<svg width="68" height="402" viewBox="0 0 68 402" fill="none" xmlns="http://www.w3.org/2000/svg">
<rect x="31.5" width="5" height="157" fill="#5385E5"/>
<rect y="157" width="68" height="68" rx="34" fill="#5385E5"/>
<path d="M24.5248 204C24.5248 202.536 24.6208 201.252 24.8128 200.148C25.0048 199.02 25.3048 198.024 25.7128 197.16C26.1448 196.272 26.6968 195.492 27.3688 194.82C28.0408 194.148 28.8688 193.512 29.8528 192.912C30.6928 192.432 31.5568 191.964 32.4448 191.508C33.3568 191.052 34.1968 190.572 34.9648 190.068C35.7568 189.564 36.3928 188.988 36.8728 188.34C37.3768 187.692 37.6288 186.9 37.6288 185.964C37.6288 185.244 37.4728 184.632 37.1608 184.128C36.8728 183.6 36.4408 183.192 35.8648 182.904C35.3128 182.616 34.6408 182.472 33.8488 182.472C32.9368 182.472 32.0848 182.64 31.2928 182.976C30.5248 183.288 29.8288 183.684 29.2048 184.164C28.6048 184.62 28.0888 185.076 27.6568 185.532L24.6328 182.364C24.9688 181.98 25.4248 181.548 26.0008 181.068C26.6008 180.588 27.3088 180.12 28.1248 179.664C28.9648 179.208 29.9128 178.836 30.9688 178.548C32.0248 178.26 33.1888 178.116 34.4608 178.116C36.3328 178.116 37.9048 178.452 39.1768 179.124C40.4488 179.772 41.4088 180.672 42.0568 181.824C42.7288 182.952 43.0648 184.26 43.0648 185.748C43.0648 186.828 42.8848 187.788 42.5248 188.628C42.1888 189.444 41.7208 190.164 41.1208 190.788C40.5208 191.412 39.8488 191.976 39.1048 192.48C38.3608 192.96 37.5928 193.428 36.8008 193.884C35.5528 194.556 34.5448 195.144 33.7768 195.648C33.0088 196.152 32.3968 196.62 31.9408 197.052C31.5088 197.484 31.1728 197.916 30.9328 198.348C30.7168 198.756 30.5248 199.188 30.3568 199.644H43.1008V204H24.5248Z" fill="white"/>
<rect x="31.5" y="225" width="5" height="177" fill="#5385E5"/>
</svg>
