<svg width="68" height="411" viewBox="0 0 68 411" fill="none" xmlns="http://www.w3.org/2000/svg">
<rect x="31.5" width="5" height="157" fill="#5385E5"/>
<rect y="157" width="68" height="68" rx="34" fill="#5385E5"/>
<path d="M33.2627 204.252C31.8947 204.252 30.6467 204.084 29.5187 203.748C28.4147 203.388 27.4427 202.884 26.6027 202.236C25.7867 201.564 25.1387 200.772 24.6587 199.86L27.2507 196.584C27.4907 197.112 27.8747 197.628 28.4027 198.132C28.9307 198.636 29.5907 199.044 30.3827 199.356C31.1747 199.668 32.0747 199.824 33.0827 199.824C34.0667 199.824 34.9187 199.68 35.6387 199.392C36.3587 199.104 36.9107 198.708 37.2947 198.204C37.7027 197.676 37.9067 197.04 37.9067 196.296C37.9067 195.504 37.6547 194.832 37.1507 194.28C36.6707 193.728 35.9507 193.308 34.9907 193.02C34.0307 192.732 32.8547 192.588 31.4627 192.588H30.2747V188.988H31.5347C33.2627 188.988 34.6427 188.688 35.6747 188.088C36.7307 187.488 37.2587 186.636 37.2587 185.532C37.2587 184.86 37.0787 184.284 36.7187 183.804C36.3587 183.3 35.8787 182.928 35.2787 182.688C34.6787 182.424 34.0187 182.292 33.2987 182.292C32.0987 182.292 31.0307 182.58 30.0947 183.156C29.1827 183.708 28.4867 184.428 28.0067 185.316L24.8747 181.824C25.4027 181.056 26.1227 180.408 27.0347 179.88C27.9467 179.328 28.9667 178.896 30.0947 178.584C31.2467 178.272 32.4347 178.116 33.6587 178.116C35.3627 178.116 36.8747 178.416 38.1947 179.016C39.5147 179.592 40.5467 180.384 41.2907 181.392C42.0347 182.4 42.4067 183.552 42.4067 184.848C42.4067 185.808 42.2027 186.684 41.7947 187.476C41.4107 188.268 40.8587 188.928 40.1387 189.456C39.4187 189.984 38.5667 190.368 37.5827 190.608C38.6387 190.776 39.5627 191.172 40.3547 191.796C41.1707 192.396 41.7947 193.164 42.2267 194.1C42.6827 195.012 42.9107 196.008 42.9107 197.088C42.9107 198.6 42.4787 199.884 41.6147 200.94C40.7747 201.996 39.6227 202.812 38.1587 203.388C36.7187 203.964 35.0867 204.252 33.2627 204.252Z" fill="white"/>
<rect x="31.5" y="225" width="5" height="186" fill="#5385E5"/>
</svg>
