<svg width="253" height="90" viewBox="0 0 253 90" fill="none" xmlns="http://www.w3.org/2000/svg">
<path d="M112.359 6.20108C112.783 11.0451 113.141 15.889 113.462 20.7424C117.766 20.7424 122.077 20.7424 126.393 20.7424V0.00946045C121.681 1.99794 116.968 4.10894 112.359 6.21051" fill="#001689"/>
<path d="M134.122 21.1477L131.558 20.9686C131.672 16.7215 131.794 12.4744 131.926 8.22723L134.499 8.85865C134.348 12.9613 134.223 17.045 134.122 21.11" fill="#001689"/>
<path d="M138.552 33.0502C138.791 28.9287 139.048 24.8198 139.325 20.7235C135.021 20.7235 130.71 20.7235 126.393 20.7235V38.1769C130.484 36.5371 134.527 34.8031 138.552 33.0502Z" fill="#001689"/>
<path d="M126.393 0C121.681 1.98848 116.968 4.09005 112.359 6.20105C113.16 15.1162 113.763 24.1068 114.244 33.0503C118.269 34.8031 122.322 36.5277 126.403 38.177C130.493 36.5277 134.537 34.8031 138.561 33.0503C139.042 24.0691 139.636 15.1445 140.446 6.20105C135.79 4.09005 131.125 1.98848 126.393 0Z" stroke="#2C3687" stroke-width="0.539746" stroke-miterlimit="10"/>
<path d="M119.588 3.80743C118.9 6.47445 118.222 9.14147 117.524 11.7991C117.477 9.46189 117.42 7.13414 117.354 4.79696L119.588 3.85455" fill="white"/>
<path d="M117.939 20.9592C118.906 18.2325 119.871 15.4964 120.832 12.7509C120.832 15.4933 120.832 18.2262 120.832 20.9687H117.911" fill="white"/>
<path d="M101.021 35.6607H0.669495V31.957H100.05L101.021 35.6607Z" fill="#001689"/>
<path d="M252.664 35.6607H152.049L152.681 31.957H252.664V35.6607Z" fill="#001689"/>
<path d="M71.2177 82.0366C71.6531 82.0342 72.0842 82.1226 72.4834 82.2962C72.8827 82.4699 73.2413 82.7249 73.5364 83.045C73.8527 83.3847 74.0987 83.7835 74.2605 84.2186C74.4222 84.6536 74.4965 85.1163 74.4789 85.5801C74.4943 86.0576 74.4147 86.5333 74.2449 86.9798C74.075 87.4263 73.8181 87.8346 73.4892 88.1811C73.1805 88.5021 72.8102 88.7574 72.4005 88.9318C71.9907 89.1063 71.55 89.1962 71.1046 89.1962C70.6593 89.1962 70.2185 89.1063 69.8088 88.9318C69.399 88.7574 69.0287 88.5021 68.72 88.1811C68.0741 87.4692 67.7353 86.531 67.7775 85.5707C67.7596 85.0722 67.8497 84.5758 68.0417 84.1155C68.2337 83.6551 68.5229 83.2417 68.8897 82.9036C69.1936 82.6023 69.5541 82.364 69.9503 82.2023C70.3466 82.0406 70.7709 81.9586 71.1989 81.9612L71.2177 82.0366ZM71.1046 82.3288C70.8223 82.3199 70.5418 82.3766 70.2851 82.4943C70.0283 82.612 69.8023 82.7876 69.6249 83.0073C69.1177 83.7371 68.875 84.6182 68.9368 85.5047C68.8758 86.4217 69.1284 87.3323 69.6531 88.0869C69.8247 88.3091 70.0467 88.4873 70.3007 88.6069C70.5547 88.7266 70.8335 88.7841 71.1141 88.7749C71.42 88.7822 71.7234 88.7179 72 88.5869C72.2766 88.456 72.5187 88.2622 72.7069 88.0209C73.1866 87.3265 73.4098 86.487 73.3384 85.6461C73.412 84.7158 73.166 83.7883 72.641 83.0167C72.4503 82.8072 72.2149 82.6433 71.9522 82.5372C71.6894 82.4312 71.4062 82.3857 71.1235 82.4042" fill="#001689"/>
<path d="M83.1502 82.0366L83.3104 84.3643H83.1502C82.9981 83.777 82.669 83.2506 82.2077 82.8565C81.8083 82.5503 81.3158 82.3906 80.8127 82.4041C80.3529 82.3879 79.9001 82.5203 79.5214 82.7817C79.1428 83.0432 78.8586 83.4197 78.7109 83.8554C78.4779 84.4556 78.3689 85.0968 78.3904 85.7402C78.3785 86.2925 78.4812 86.8412 78.692 87.3517C78.8817 87.7952 79.2132 88.1631 79.6346 88.3978C80.047 88.6452 80.5203 88.7725 81.0012 88.7654C81.4147 88.7736 81.8234 88.6763 82.1888 88.4826C82.6357 88.182 83.0172 87.7941 83.3104 87.3423L83.4612 87.446C83.1827 87.9867 82.7707 88.4473 82.2642 88.7842C81.5666 89.1713 80.7545 89.2994 79.9715 89.1459C79.1886 88.9925 78.485 88.5673 77.9851 87.9455C77.5138 87.3048 77.2684 86.5259 77.2877 85.7308C77.2808 85.0737 77.4397 84.4255 77.7495 83.846C78.0365 83.2926 78.4744 82.8319 79.0125 82.5172C79.5458 82.2017 80.1555 82.0387 80.775 82.046C81.2875 82.0492 81.7917 82.1752 82.2454 82.4135C82.3393 82.465 82.4413 82.5 82.547 82.5172C82.5907 82.5189 82.6342 82.5114 82.6749 82.4952C82.7155 82.479 82.7522 82.4543 82.7826 82.4229C82.88 82.3178 82.9454 82.187 82.9711 82.046L83.1502 82.0366Z" fill="#001689"/>
<path d="M87.8251 85.3728H91.0108V83.4126C91.0256 83.1782 91.0034 82.9428 90.9448 82.7153C90.9024 82.6215 90.8292 82.5451 90.7375 82.4985C90.5953 82.4219 90.4371 82.38 90.2756 82.376H90.0306V82.1875H92.9901V82.376H92.7451C92.5827 82.3728 92.4226 82.4152 92.2832 82.4985C92.2306 82.5215 92.1833 82.5551 92.1444 82.5973C92.1055 82.6395 92.0757 82.6893 92.057 82.7435C92.0077 82.9629 91.9886 83.1881 92.0005 83.4126V87.842C91.9905 88.0732 92.0127 88.3048 92.0664 88.5299C92.1117 88.6217 92.1841 88.6974 92.2738 88.7467C92.4174 88.8281 92.5799 88.8703 92.7451 88.8692H92.9901V89.0577H90.0494V88.8692H90.2945C90.4085 88.8774 90.5229 88.8597 90.629 88.8172C90.7352 88.7748 90.8303 88.7088 90.9071 88.6242C91.0165 88.3789 91.0588 88.1089 91.0297 87.842V85.7498H87.8439V87.842C87.829 88.0733 87.8512 88.3056 87.9099 88.5299C87.9523 88.6236 88.0255 88.7001 88.1172 88.7467C88.2581 88.8265 88.4172 88.8687 88.5791 88.8692H88.8241V89.0577H85.8835V88.8692H86.1285C86.244 88.8782 86.36 88.8608 86.4678 88.8184C86.5756 88.7759 86.6723 88.7095 86.7506 88.6242C86.8555 88.3776 86.8976 88.1088 86.8731 87.842V83.4126C86.8829 83.1783 86.8607 82.9436 86.8071 82.7153C86.7619 82.6235 86.6895 82.5478 86.5998 82.4985C86.4543 82.4218 86.293 82.3799 86.1285 82.376H85.8835V82.1875H88.8241V82.376H88.5791C88.4172 82.3765 88.2581 82.4187 88.1172 82.4985C88.0657 82.5215 88.0197 82.5553 87.9824 82.5976C87.945 82.6398 87.917 82.6896 87.9005 82.7435C87.8511 82.9629 87.8321 83.1881 87.8439 83.4126L87.8251 85.3728Z" fill="#001689"/>
<path d="M98.8338 82.0366C99.2692 82.0342 99.7002 82.1226 100.099 82.2962C100.499 82.4699 100.857 82.7249 101.152 83.045C101.469 83.3847 101.715 83.7835 101.877 84.2186C102.038 84.6536 102.113 85.1163 102.095 85.5801C102.117 86.0543 102.045 86.5282 101.883 86.9745C101.721 87.4208 101.473 87.8309 101.152 88.1811C100.844 88.5021 100.473 88.7574 100.064 88.9318C99.6539 89.1063 99.2131 89.1962 98.7678 89.1962C98.3225 89.1962 97.8817 89.1063 97.472 88.9318C97.0622 88.7574 96.6919 88.5021 96.3832 88.1811C95.7372 87.4692 95.3985 86.531 95.4407 85.5707C95.4228 85.0722 95.5129 84.5758 95.7049 84.1155C95.8968 83.6551 96.1861 83.2417 96.5529 82.9036C96.8568 82.6023 97.2172 82.364 97.6135 82.2023C98.0098 82.0406 98.4341 81.9586 98.8621 81.9612L98.8338 82.0366ZM98.7678 82.3288C98.4855 82.3199 98.205 82.3766 97.9482 82.4943C97.6915 82.612 97.4655 82.7876 97.288 83.0073C96.7809 83.7371 96.5382 84.6182 96.6 85.5047C96.539 86.4217 96.7916 87.3323 97.3163 88.0869C97.4874 88.3097 97.7092 88.4883 97.9633 88.608C98.2175 88.7277 98.4965 88.7849 98.7772 88.7749C99.0829 88.7807 99.3859 88.7157 99.6622 88.5849C99.9386 88.4541 100.181 88.2611 100.37 88.0209C100.85 87.3265 101.073 86.487 101.002 85.6461C101.075 84.7158 100.829 83.7883 100.304 83.0167C100.119 82.7909 99.8837 82.6112 99.617 82.4918C99.3504 82.3724 99.0597 82.3166 98.7678 82.3288Z" fill="#001689"/>
<path d="M109.183 85.5518C109.579 85.614 109.951 85.7835 110.257 86.0419C110.416 86.1859 110.541 86.3622 110.626 86.5589C110.71 86.7556 110.752 86.9682 110.747 87.1822C110.735 87.5209 110.624 87.8486 110.427 88.1246C110.206 88.44 109.893 88.6801 109.531 88.8126C108.973 88.9809 108.39 89.0541 107.807 89.0293H104.574V88.8409H104.828C104.946 88.8495 105.065 88.8291 105.173 88.7815C105.282 88.7339 105.377 88.6604 105.45 88.5676C105.547 88.3288 105.586 88.0704 105.563 87.8136V83.3749C105.598 83.0987 105.546 82.8185 105.413 82.5738C105.338 82.4949 105.247 82.4336 105.146 82.3944C105.045 82.3553 104.936 82.3393 104.828 82.3477H104.574V82.1592H107.533C107.983 82.152 108.431 82.1931 108.872 82.2817C109.316 82.3729 109.721 82.6002 110.031 82.932C110.289 83.2262 110.43 83.6053 110.427 83.9969C110.433 84.3372 110.324 84.6696 110.116 84.9393C109.87 85.2311 109.541 85.4414 109.173 85.5424L109.183 85.5518ZM106.525 85.2691C106.665 85.2951 106.807 85.314 106.949 85.3257H107.486C107.861 85.3426 108.235 85.2882 108.589 85.1655C108.827 85.0662 109.028 84.8948 109.164 84.6754C109.293 84.459 109.362 84.2114 109.362 83.9592C109.361 83.7611 109.316 83.5656 109.232 83.3866C109.147 83.2075 109.024 83.0491 108.872 82.9225C108.46 82.6144 107.952 82.4639 107.439 82.4985C107.121 82.4922 106.804 82.5302 106.497 82.6115L106.525 85.2691ZM106.525 88.5487C106.904 88.6415 107.293 88.689 107.684 88.6901C108.184 88.7232 108.679 88.5761 109.079 88.2754C109.231 88.1535 109.354 87.9985 109.437 87.8221C109.52 87.6457 109.562 87.4526 109.56 87.2576C109.561 86.9621 109.471 86.6734 109.302 86.4307C109.134 86.188 108.894 86.0029 108.617 85.9005C108.23 85.7505 107.816 85.68 107.401 85.6932H106.864C106.745 85.6862 106.625 85.6862 106.506 85.6932L106.525 88.5487Z" fill="#001689"/>
<path d="M117.27 86.7581H114.612L114.15 87.8419C114.056 88.0277 113.995 88.2287 113.971 88.4356C113.974 88.4908 113.989 88.5446 114.015 88.5933C114.042 88.6421 114.078 88.6847 114.122 88.7183C114.324 88.8178 114.546 88.8694 114.772 88.8691V89.0576H112.604V88.8691C112.804 88.854 112.996 88.7856 113.16 88.6712C113.416 88.3828 113.611 88.0464 113.735 87.6817L116.148 82.0272H116.327L118.721 87.7382C118.83 88.0666 119.007 88.3684 119.24 88.6241C119.427 88.7748 119.659 88.8578 119.899 88.8597V89.0482H117.185V88.8597C117.38 88.8679 117.573 88.8188 117.741 88.7183C117.786 88.6861 117.824 88.6438 117.85 88.5948C117.876 88.5457 117.89 88.4912 117.892 88.4356C117.862 88.1932 117.792 87.9574 117.684 87.7382L117.27 86.7581ZM117.128 86.3812L115.969 83.6105L114.772 86.3812H117.128Z" fill="#001689"/>
<path d="M124.009 85.3728H127.204V83.4126C127.214 83.1783 127.192 82.9436 127.138 82.7153C127.091 82.6213 127.015 82.5452 126.921 82.4985C126.78 82.4206 126.621 82.3785 126.459 82.376H126.224V82.1875H129.155V82.376H128.91C128.748 82.3765 128.589 82.4187 128.448 82.4985C128.397 82.5215 128.351 82.5553 128.313 82.5976C128.276 82.6398 128.248 82.6896 128.231 82.7435C128.182 82.9629 128.163 83.1881 128.175 83.4126V87.842C128.16 88.0733 128.182 88.3056 128.241 88.5299C128.283 88.6236 128.356 88.7001 128.448 88.7467C128.589 88.8265 128.748 88.8687 128.91 88.8692H129.155V89.0577H126.224V88.8692H126.459C126.574 88.8797 126.689 88.8629 126.795 88.8203C126.902 88.7777 126.997 88.7105 127.072 88.6242C127.186 88.3803 127.232 88.1098 127.204 87.842V85.7498H124.009V87.842C123.999 88.0732 124.021 88.3048 124.075 88.5299C124.121 88.6239 124.198 88.7 124.292 88.7467C124.431 88.83 124.591 88.8724 124.753 88.8692H125.036V89.0577H122.095V88.8692H122.341C122.455 88.8797 122.57 88.8629 122.676 88.8203C122.783 88.7777 122.878 88.7105 122.953 88.6242C123.063 88.3789 123.105 88.1089 123.076 87.842V83.4126C123.091 83.1782 123.068 82.9428 123.01 82.7153C122.967 82.6215 122.894 82.5451 122.802 82.4985C122.66 82.4219 122.502 82.38 122.341 82.376H122.095V82.1875H125.036V82.376H124.791C124.629 82.3728 124.469 82.4152 124.329 82.4985C124.278 82.5215 124.232 82.5553 124.194 82.5976C124.157 82.6398 124.129 82.6896 124.112 82.7435C124.053 82.9613 124.031 83.1875 124.046 83.4126L124.009 85.3728Z" fill="#001689"/>
<path d="M135.027 82.0366C135.462 82.0359 135.893 82.1251 136.292 82.2986C136.691 82.4722 137.049 82.7263 137.346 83.045C137.662 83.3847 137.908 83.7835 138.07 84.2186C138.231 84.6536 138.306 85.1163 138.288 85.5801C138.31 86.0543 138.238 86.5282 138.076 86.9745C137.914 87.4208 137.666 87.8309 137.346 88.1812C137.035 88.5012 136.664 88.7557 136.254 88.9295C135.843 89.1032 135.402 89.1928 134.956 89.1928C134.511 89.1928 134.069 89.1032 133.659 88.9295C133.248 88.7557 132.877 88.5012 132.567 88.1812C131.921 87.4692 131.582 86.531 131.624 85.5707C131.608 85.0725 131.699 84.5766 131.891 84.1166C132.083 83.6565 132.371 83.2429 132.737 82.9037C133.354 82.2946 134.188 81.9556 135.055 81.9613L135.027 82.0366ZM134.961 82.3288C134.679 82.3192 134.398 82.3755 134.141 82.4933C133.884 82.6111 133.658 82.7871 133.481 83.0073C132.971 83.7359 132.725 84.6171 132.784 85.5047C132.725 86.4229 132.981 87.3335 133.509 88.0869C133.679 88.3089 133.899 88.4872 134.152 88.6069C134.404 88.7266 134.682 88.7842 134.961 88.7749C135.268 88.7808 135.572 88.7158 135.85 88.5851C136.128 88.4543 136.372 88.2613 136.563 88.021C137.035 87.3234 137.255 86.4855 137.185 85.6461C137.257 84.7173 137.015 83.7913 136.497 83.0168C136.312 82.7909 136.077 82.6112 135.81 82.4918C135.544 82.3724 135.253 82.3166 134.961 82.3288Z" fill="#001689"/>
<path d="M149.834 85.5518C150.227 85.6156 150.595 85.785 150.899 86.0419C151.059 86.1854 151.186 86.3614 151.272 86.5581C151.358 86.7547 151.401 86.9675 151.399 87.1822C151.387 87.5225 151.272 87.8512 151.069 88.1246C150.85 88.4385 150.541 88.6784 150.183 88.8125C149.624 88.9808 149.041 89.0541 148.458 89.0293H145.216V88.8408H145.47C145.589 88.8521 145.708 88.8329 145.817 88.785C145.926 88.7372 146.02 88.6623 146.092 88.5675C146.194 88.3299 146.236 88.0711 146.215 87.8136V83.3748C146.245 83.0988 146.192 82.82 146.064 82.5738C145.988 82.4946 145.895 82.4333 145.792 82.3942C145.69 82.3551 145.58 82.3392 145.47 82.3476H145.216V82.1591H148.185C148.631 82.1514 149.076 82.1925 149.514 82.2816C149.96 82.3679 150.367 82.596 150.673 82.9319C150.935 83.2248 151.079 83.604 151.078 83.9968C151.086 84.3389 150.972 84.6727 150.758 84.9392C150.514 85.2338 150.185 85.4448 149.815 85.5424L149.834 85.5518ZM147.167 85.2691C147.307 85.295 147.449 85.3139 147.591 85.3256H148.119C148.496 85.3423 148.873 85.288 149.231 85.1654C149.465 85.0634 149.662 84.8925 149.796 84.6754C149.926 84.4589 149.994 84.2114 149.994 83.9591C149.995 83.7607 149.952 83.5646 149.867 83.3852C149.782 83.2058 149.658 83.0477 149.504 82.9225C149.094 82.6112 148.585 82.4604 148.071 82.4984C147.754 82.4905 147.436 82.5286 147.129 82.6115L147.167 85.2691ZM147.167 88.5487C147.546 88.6421 147.935 88.6895 148.326 88.69C148.826 88.7223 149.32 88.5753 149.721 88.2754C149.873 88.1535 149.996 87.9984 150.079 87.822C150.162 87.6457 150.204 87.4526 150.202 87.2576C150.2 86.9852 150.125 86.7183 149.985 86.4848C149.814 86.2194 149.563 86.0149 149.269 85.9005C148.885 85.7497 148.474 85.6791 148.062 85.6932H147.525C147.406 85.6858 147.286 85.6858 147.167 85.6932V88.5487Z" fill="#001689"/>
<path d="M159.504 82.866L161.173 82.0461H161.333V87.8419C161.319 88.0853 161.338 88.3294 161.389 88.5676C161.406 88.6154 161.432 88.6593 161.466 88.6966C161.5 88.7339 161.541 88.7638 161.587 88.7843C161.785 88.8462 161.992 88.8748 162.2 88.8692V89.0576H159.617V88.8692C159.831 88.8769 160.045 88.8482 160.249 88.7843C160.336 88.744 160.407 88.6738 160.447 88.5864C160.501 88.3422 160.52 88.0915 160.503 87.8419V84.1383C160.527 83.8246 160.527 83.5096 160.503 83.1959C160.483 83.1061 160.438 83.0243 160.371 82.9603C160.306 82.9119 160.227 82.8855 160.145 82.8849C159.96 82.8991 159.78 82.9537 159.617 83.0451L159.504 82.866Z" fill="#001689"/>
<path d="M165.885 89.1989V89.001C166.312 88.9911 166.731 88.8848 167.111 88.69C167.55 88.4375 167.925 88.0857 168.204 87.6628C168.551 87.1713 168.8 86.6178 168.939 86.0324C168.52 86.3346 168.023 86.5111 167.506 86.5413C167.271 86.5458 167.037 86.4983 166.822 86.4022C166.607 86.3061 166.416 86.1637 166.262 85.9853C165.902 85.5756 165.716 85.0412 165.744 84.4963C165.736 83.9199 165.919 83.357 166.262 82.8942C166.437 82.6251 166.678 82.4051 166.962 82.255C167.245 82.1049 167.563 82.0298 167.883 82.0366C168.163 82.0396 168.438 82.1046 168.689 82.2268C168.94 82.349 169.16 82.5255 169.335 82.7434C169.833 83.3392 170.095 84.0972 170.07 84.8733C170.077 85.623 169.885 86.3611 169.514 87.0125C169.131 87.676 168.594 88.2382 167.949 88.6523C167.422 89.0046 166.802 89.1917 166.168 89.1895L165.885 89.1989ZM169.024 85.6649C169.074 85.3183 169.102 84.9689 169.109 84.6188C169.103 84.2583 169.049 83.9002 168.949 83.5539C168.863 83.2265 168.698 82.9254 168.468 82.6775C168.38 82.5827 168.274 82.507 168.155 82.4552C168.037 82.4033 167.909 82.3763 167.78 82.3759C167.626 82.3798 167.475 82.4183 167.338 82.4884C167.201 82.5585 167.081 82.6586 166.988 82.7811C166.741 83.1328 166.621 83.5584 166.649 83.9874C166.613 84.5779 166.772 85.1639 167.101 85.6555C167.187 85.7895 167.306 85.8996 167.446 85.9754C167.586 86.0512 167.743 86.0903 167.902 86.089C168.092 86.0871 168.281 86.052 168.458 85.9853C168.665 85.9145 168.857 85.8058 169.024 85.6649Z" fill="#001689"/>
<path d="M172.917 83.4973C173.075 83.0869 173.326 82.719 173.652 82.423C173.969 82.1683 174.367 82.0347 174.773 82.046C175.011 82.0315 175.249 82.0725 175.468 82.1657C175.687 82.2589 175.882 82.4019 176.036 82.5832C176.246 82.8198 176.363 83.1244 176.366 83.4408C176.33 83.7513 176.228 84.0503 176.065 84.3171C175.902 84.584 175.683 84.8123 175.424 84.9863C175.801 85.1289 176.128 85.3777 176.366 85.7025C176.587 86.02 176.699 86.4 176.687 86.7863C176.697 87.351 176.495 87.8989 176.121 88.3224C175.852 88.6168 175.52 88.8467 175.149 88.9952C174.779 89.1437 174.38 89.2068 173.982 89.18C173.657 89.2076 173.331 89.1457 173.039 89.001C172.969 88.9663 172.909 88.9143 172.864 88.85C172.82 88.7858 172.792 88.7112 172.785 88.6334C172.787 88.585 172.799 88.5376 172.82 88.494C172.841 88.4503 172.871 88.4112 172.907 88.379C172.944 88.342 172.988 88.3128 173.037 88.2934C173.085 88.274 173.138 88.2646 173.19 88.2659C173.277 88.2535 173.366 88.2535 173.454 88.2659L173.84 88.4544C173.973 88.5282 174.112 88.5913 174.255 88.6429C174.387 88.6807 174.523 88.6998 174.66 88.6994C174.838 88.7066 175.014 88.6739 175.178 88.6038C175.341 88.5337 175.486 88.4279 175.603 88.2942C175.727 88.1708 175.825 88.0239 175.891 87.862C175.958 87.7002 175.991 87.5267 175.989 87.3518C175.989 87.0808 175.928 86.8134 175.81 86.5696C175.746 86.4081 175.646 86.2631 175.518 86.1455C175.346 85.985 175.144 85.8601 174.924 85.7779C174.681 85.6674 174.418 85.6095 174.151 85.6083H173.991V85.4575C174.274 85.4173 174.546 85.3212 174.792 85.1748C175.033 85.0361 175.234 84.8382 175.377 84.5999C175.497 84.3739 175.559 84.1211 175.556 83.8648C175.563 83.7091 175.538 83.5534 175.483 83.4075C175.428 83.2617 175.344 83.1286 175.235 83.0167C175.015 82.8062 174.72 82.6911 174.415 82.6963C174.141 82.7087 173.875 82.7938 173.645 82.9429C173.415 83.0919 173.229 83.2995 173.105 83.5444L172.917 83.4973Z" fill="#001689"/>
<path d="M179.806 85.665C179.791 84.9726 179.913 84.284 180.165 83.6388C180.353 83.1371 180.68 82.6991 181.107 82.376C181.378 82.1679 181.708 82.0522 182.05 82.0461C182.333 82.059 182.609 82.1393 182.855 82.2802C183.101 82.4212 183.309 82.6188 183.463 82.8566C184.026 83.6421 184.302 84.5968 184.246 85.5613C184.264 86.2522 184.148 86.9401 183.906 87.5875C183.732 88.066 183.429 88.4869 183.03 88.8032C182.73 89.0294 182.369 89.1607 181.993 89.1802C181.644 89.1628 181.307 89.0487 181.019 88.8506C180.731 88.6526 180.504 88.3784 180.362 88.0587C179.977 87.3344 179.786 86.5228 179.806 85.7027V85.665ZM180.805 85.8252C180.779 86.6128 180.897 87.3985 181.154 88.1435C181.343 88.643 181.635 88.8975 182.012 88.8975C182.223 88.8815 182.422 88.7952 182.577 88.6524C182.808 88.4291 182.963 88.1391 183.02 87.8231C183.203 87.0197 183.282 86.1963 183.256 85.3728C183.275 84.7108 183.192 84.0497 183.011 83.4126C182.938 83.1009 182.778 82.8164 182.549 82.5927C182.404 82.4787 182.224 82.4187 182.04 82.4231C181.921 82.4263 181.805 82.4558 181.699 82.5096C181.593 82.5634 181.5 82.6401 181.428 82.7341C181.141 83.1178 180.971 83.5758 180.937 84.0535C180.847 84.6397 180.803 85.2321 180.805 85.8252Z" fill="#001689"/>
<path d="M57.0987 50.1645C58.2252 50.1444 59.3439 50.3544 60.3865 50.7814C61.4291 51.2084 62.3736 51.8436 63.1623 52.6481C63.951 53.4526 64.5673 54.4094 64.9735 55.4602C65.3798 56.5109 65.5674 57.6335 65.5249 58.7592C65.5025 60.4341 64.9846 62.0649 64.0365 63.446C63.0885 64.827 61.7526 65.8964 60.1975 66.5193C58.6424 67.1422 56.9376 67.2908 55.2981 66.9463C53.6587 66.6017 52.1579 65.7795 50.9852 64.5833C49.8124 63.3871 49.0202 61.8705 48.7084 60.2247C48.3965 58.5789 48.5791 56.8777 49.233 55.3354C49.8868 53.7932 50.9828 52.4792 52.3826 51.5589C53.7824 50.6386 55.4234 50.1534 57.0987 50.1645ZM56.9384 51.0409C54.1674 51.0409 52.7536 53.576 52.7536 58.7592C52.7536 63.9425 54.403 66.5058 57.0704 66.5058C59.7378 66.5058 61.2741 63.9425 61.2741 58.7592C61.2741 53.576 59.587 51.0409 56.9384 51.0409Z" fill="#001689"/>
<path d="M86.5432 55.4984H85.9494C85.549 54.2303 84.7624 53.119 83.6995 52.3198C82.6366 51.5206 81.3504 51.0734 80.0209 51.0408C77.0708 51.0408 75.6287 53.5947 75.6287 58.8062C75.6287 63.6973 77.297 66.1382 80.4733 66.1382C81.5484 66.0915 82.5983 65.7977 83.5415 65.2796C84.4847 64.7615 85.2957 64.033 85.9117 63.1507L86.5809 63.7916C85.8217 64.9129 84.7952 65.8275 83.5939 66.4527C82.3926 67.078 81.0545 67.3942 79.7004 67.3727C74.9878 67.3727 71.3779 63.9047 71.3779 58.7403C71.3779 53.7832 74.8276 50.1644 79.7947 50.1644C81.9471 50.1974 84.0896 50.4629 86.185 50.956L86.5432 55.4984Z" fill="#001689"/>
<path d="M204.425 66.8545C204.086 66.6094 202.945 66.0251 202.38 65.6576C202.281 65.2858 202.233 64.9021 202.239 64.5173V53.0011C202.233 52.6194 202.281 52.2388 202.38 51.8702C202.945 51.5026 204.086 50.9278 204.425 50.6733C204.472 50.6733 204.425 50.6073 204.425 50.5696H196.15C196.15 50.5696 196.15 50.645 196.15 50.6639C196.489 50.8995 197.592 51.4744 198.167 51.8419C198.275 52.2154 198.326 52.603 198.318 52.9916V57.9016H191.522V53.0011C191.517 52.6194 191.564 52.2388 191.663 51.8702C192.229 51.5026 193.36 50.9278 193.709 50.6733C193.715 50.6672 193.72 50.6598 193.723 50.6517C193.727 50.6437 193.729 50.635 193.729 50.6262C193.729 50.6174 193.727 50.6087 193.723 50.6006C193.72 50.5925 193.715 50.5852 193.709 50.5791H185.433V50.6356C185.426 50.6467 185.422 50.6598 185.422 50.6733C185.422 50.6868 185.426 50.6999 185.433 50.711C185.773 50.9466 186.875 51.5215 187.45 51.889C187.557 52.2626 187.608 52.6501 187.601 53.0387V64.4984C187.608 64.8901 187.557 65.2807 187.45 65.6576C186.875 66.0251 185.773 66.6 185.433 66.8356C185.433 66.8356 185.433 66.8922 185.433 66.9298H193.709C193.715 66.9237 193.72 66.9164 193.723 66.9083C193.727 66.9002 193.729 66.8915 193.729 66.8827C193.729 66.8739 193.727 66.8653 193.723 66.8572C193.72 66.8491 193.715 66.8418 193.709 66.8356C193.369 66.5906 192.238 66.0063 191.663 65.6387C191.564 65.2669 191.517 64.8832 191.522 64.4984V59.0136H198.318V64.4984C198.325 64.8901 198.274 65.2807 198.167 65.6576C197.592 66.0251 196.489 66.6 196.15 66.8356C196.15 66.8356 196.15 66.8921 196.15 66.9204H204.359H204.416C204.424 66.9153 204.43 66.9083 204.434 66.9C204.439 66.8918 204.441 66.8826 204.441 66.8733C204.441 66.864 204.439 66.8548 204.434 66.8466C204.43 66.8383 204.424 66.8313 204.416 66.8262" fill="#001689"/>
<path d="M36.6175 59.5602C40.5667 59.5602 42.6497 57.7319 42.6497 54.9895C42.6497 51.3989 39.5394 50.5319 35.9295 50.5319H28.2667C28.1819 50.5319 28.1348 50.6262 28.2102 50.6733C28.5966 50.9466 30.0952 51.6911 30.4628 52.0209C30.5317 52.3302 30.5633 52.6466 30.5571 52.9633V64.4984C30.5587 64.815 30.5271 65.1308 30.4628 65.4408C30.0481 65.7707 28.5778 66.5057 28.2102 66.7885C28.1348 66.7885 28.2102 66.9298 28.2667 66.9298H36.6552C36.7306 66.9298 36.7778 66.8262 36.7118 66.7885C36.3442 66.534 35.0906 65.8461 34.5628 65.5256C34.4832 65.1891 34.4452 64.8442 34.4497 64.4984V59.5602H36.6175ZM34.4497 52.9633C34.4497 51.5497 34.723 51.3612 35.675 51.3612C37.6637 51.3612 38.3989 52.4827 38.3989 55.0461C38.3989 57.6094 37.5035 58.6555 35.1566 58.6555H34.4497V52.9633Z" fill="#001689"/>
<path d="M20.5851 51.8985C21.1318 51.5404 22.3382 50.9561 22.6869 50.6734C22.7435 50.6734 22.6869 50.5603 22.6869 50.5508H4.77891C4.72236 50.5508 4.69408 50.6357 4.77891 50.6734C5.12765 50.9184 6.31523 51.5309 6.87132 51.8985C6.96261 52.2588 7.00696 52.6294 7.00328 53.0011V64.4985C7.01454 64.9035 6.96043 65.3076 6.84305 65.6953C6.24925 66.0629 5.20305 66.6378 4.88259 66.8357H4.81661V66.9487H13.092C13.092 66.9487 13.092 66.9487 13.092 66.8828C12.7527 66.6378 11.6311 66.0629 11.0561 65.6953C10.9115 65.3119 10.8288 64.9079 10.8111 64.4985V51.6063H16.5699V64.4985C16.5785 64.8903 16.5276 65.2811 16.4191 65.6577C15.8348 66.0252 14.7414 66.6001 14.4021 66.8357V66.9487H14.4775H22.6115C22.6115 66.9487 22.6587 66.8734 22.6115 66.8451C22.2722 66.6001 21.1318 66.0158 20.5663 65.6482C20.457 65.275 20.4061 64.8872 20.4155 64.4985V53.0011C20.4123 52.6295 20.4566 52.2589 20.5474 51.8985" fill="#001689"/>
<path d="M228.507 66.845C228.168 66.6094 227.084 66.0534 226.509 65.6859C226.452 65.5327 226.408 65.3751 226.377 65.2147C226.34 64.9841 226.324 64.7507 226.33 64.5173V53.0011C226.325 52.6163 226.372 52.2327 226.471 51.8607C227.036 51.4932 228.168 50.9183 228.507 50.6733C228.563 50.6733 228.507 50.5508 228.45 50.5414H220.316C220.241 50.5414 220.203 50.6356 220.269 50.6733C220.608 50.9089 221.721 51.4838 222.296 51.8513C222.391 52.0617 222.442 52.2894 222.446 52.5204L216.226 62.8869V53.0011C216.22 52.6224 216.267 52.2449 216.367 51.8796C216.933 51.5121 218.092 50.9372 218.441 50.6733C218.488 50.6733 218.441 50.5885 218.441 50.5602H210.175V50.7016H210.222C210.561 50.9278 211.617 51.4838 212.201 51.8513C212.318 52.2294 212.372 52.6242 212.361 53.0199V64.4984C212.366 64.8925 212.319 65.2855 212.22 65.667C211.636 66.0346 210.552 66.6094 210.222 66.8262C210.156 66.8262 210.222 66.9487 210.222 66.9581H218.346C218.362 66.9596 218.378 66.956 218.392 66.9479C218.406 66.9397 218.416 66.9274 218.423 66.9128C218.429 66.8981 218.43 66.8818 218.427 66.8662C218.423 66.8507 218.415 66.8367 218.403 66.8262C218.054 66.5812 216.914 65.9969 216.348 65.6293C216.243 65.3952 216.188 65.1415 216.188 64.8848L222.409 54.5183V64.4984C222.413 64.8832 222.366 65.2668 222.267 65.6387C221.702 66.0063 220.571 66.5812 220.231 66.8262C220.165 66.8733 220.231 66.9487 220.279 66.9581H228.413C228.488 66.9581 228.526 66.8733 228.469 66.8262" fill="#001689"/>
<path d="M179.524 62.8304C178.864 63.5183 177.148 65.3089 176.555 65.7519C175.961 66.1948 174.99 66.3833 171.427 66.3833C171.392 66.3833 171.359 66.3694 171.334 66.3446C171.309 66.3199 171.295 66.2863 171.295 66.2513V59.4094C171.298 59.3386 171.328 59.2715 171.379 59.2223C171.43 59.173 171.498 59.1455 171.569 59.1456H173.623C174.226 59.1357 174.808 59.3624 175.245 59.777C175.727 60.2953 176.156 60.8604 176.526 61.4639L176.291 61.1058L176.526 61.4639C176.554 61.4711 176.583 61.4711 176.611 61.4639C176.642 61.464 176.672 61.4524 176.695 61.4314C176.717 61.4104 176.731 61.3816 176.734 61.3508V56.6011C176.729 56.5352 176.729 56.469 176.734 56.4032C176.733 56.3763 176.723 56.3504 176.707 56.329C176.69 56.3076 176.668 56.2918 176.642 56.2835C176.617 56.2753 176.589 56.2752 176.563 56.2831C176.537 56.291 176.515 56.3066 176.498 56.3278L175.066 57.9487C174.641 58.2324 174.13 58.356 173.623 58.2974H171.597C171.562 58.2987 171.526 58.2928 171.493 58.2801C171.46 58.2674 171.43 58.2482 171.404 58.2235C171.379 58.1989 171.358 58.1694 171.345 58.1367C171.331 58.1041 171.324 58.069 171.324 58.0335V51.4367C171.324 51.4017 171.338 51.3681 171.362 51.3434C171.387 51.3186 171.421 51.3047 171.456 51.3047C175.028 51.3047 175.414 51.2482 176.168 51.7854C176.753 52.2189 178.477 54.0189 179.137 54.7068C179.158 54.7255 179.184 54.7376 179.212 54.7416C179.239 54.7456 179.268 54.7412 179.293 54.7291C179.318 54.717 179.339 54.6977 179.353 54.6736C179.368 54.6495 179.374 54.6217 179.373 54.5937L179.109 50.6168C179.107 50.5784 179.09 50.5425 179.062 50.5162C179.034 50.4899 178.997 50.4753 178.958 50.4754H165.386C165.367 50.4679 165.346 50.4682 165.327 50.4761C165.309 50.4841 165.294 50.4991 165.287 50.5178C165.279 50.5366 165.28 50.5575 165.287 50.5761C165.295 50.5946 165.31 50.6093 165.329 50.6168C165.574 50.7864 166.272 51.1445 166.8 51.4649L167.403 51.8231C167.428 51.8367 167.45 51.8571 167.465 51.882C167.48 51.9069 167.488 51.9354 167.488 51.9644C167.488 53.0576 167.591 63.8293 167.488 65.5728C166.997 65.9309 165.678 66.6 165.301 66.8639C165.282 66.8714 165.267 66.886 165.259 66.9046C165.251 66.9231 165.251 66.9441 165.258 66.9628C165.266 66.9816 165.281 66.9966 165.299 67.0045C165.318 67.0125 165.339 67.0128 165.357 67.0053H179.25C179.28 67.0065 179.309 67.0019 179.336 66.9915C179.364 66.9812 179.389 66.9655 179.41 66.9452C179.431 66.9249 179.448 66.9006 179.459 66.8737C179.471 66.8468 179.477 66.8178 179.477 66.7885L179.731 62.8775C179.731 62.8504 179.723 62.8239 179.708 62.8012C179.693 62.7786 179.671 62.7607 179.647 62.7498C179.622 62.7389 179.594 62.7353 179.567 62.7396C179.541 62.7439 179.516 62.7557 179.495 62.7738" fill="#001689"/>
<path d="M127.024 62.8304C126.364 63.5183 124.648 65.3089 124.055 65.7518C123.461 66.1948 122.49 66.3833 118.927 66.3833C118.892 66.3833 118.859 66.3694 118.834 66.3446C118.809 66.3199 118.795 66.2863 118.795 66.2513V59.4094C118.798 59.3386 118.828 59.2715 118.879 59.2223C118.93 59.173 118.998 59.1455 119.069 59.1456H121.123C121.726 59.1357 122.308 59.3624 122.745 59.777C123.227 60.2953 123.656 60.8604 124.026 61.4639L123.791 61.1058L124.026 61.4639C124.054 61.4711 124.083 61.4711 124.111 61.4639C124.142 61.464 124.172 61.4524 124.195 61.4314C124.217 61.4104 124.231 61.3816 124.234 61.3508V56.6011C124.229 56.5352 124.229 56.469 124.234 56.4032C124.232 56.3763 124.223 56.3504 124.207 56.329C124.19 56.3076 124.168 56.2918 124.142 56.2835C124.116 56.2753 124.089 56.2752 124.063 56.2831C124.037 56.291 124.015 56.3066 123.998 56.3278L122.565 57.9487C122.141 58.2324 121.63 58.356 121.123 58.2974H119.097C119.061 58.2987 119.026 58.2928 118.993 58.2801C118.96 58.2674 118.93 58.2482 118.904 58.2235C118.879 58.1989 118.858 58.1694 118.845 58.1367C118.831 58.1041 118.824 58.069 118.824 58.0335V51.4367C118.824 51.4017 118.838 51.3681 118.862 51.3434C118.887 51.3186 118.921 51.3047 118.956 51.3047C122.528 51.3047 122.914 51.2482 123.668 51.7854C124.253 52.2189 125.977 54.0189 126.637 54.7068C126.658 54.7255 126.684 54.7376 126.712 54.7416C126.739 54.7456 126.768 54.7412 126.793 54.7291C126.818 54.717 126.839 54.6977 126.853 54.6736C126.868 54.6495 126.874 54.6217 126.873 54.5937L126.609 50.6168C126.606 50.5784 126.59 50.5425 126.562 50.5162C126.533 50.4899 126.497 50.4753 126.458 50.4754H112.886C112.867 50.4679 112.846 50.4682 112.827 50.4761C112.809 50.4841 112.794 50.4991 112.787 50.5178C112.779 50.5366 112.779 50.5575 112.787 50.5761C112.795 50.5946 112.81 50.6093 112.829 50.6168C113.074 50.7864 113.772 51.1445 114.299 51.4649L114.903 51.8231C114.928 51.8367 114.95 51.8571 114.965 51.882C114.98 51.9069 114.988 51.9354 114.988 51.9644C114.988 53.0576 115.091 63.8293 114.988 65.5728C114.497 65.9309 113.178 66.6 112.801 66.8639C112.782 66.8714 112.767 66.886 112.759 66.9046C112.751 66.9231 112.751 66.9441 112.758 66.9628C112.766 66.9816 112.781 66.9966 112.799 67.0045C112.818 67.0125 112.839 67.0128 112.857 67.0053H126.75C126.78 67.0065 126.809 67.0019 126.836 66.9915C126.864 66.9812 126.889 66.9655 126.91 66.9452C126.931 66.9249 126.948 66.9006 126.959 66.8737C126.971 66.8468 126.976 66.8178 126.976 66.7885L127.231 62.8775C127.231 62.8504 127.223 62.8239 127.208 62.8012C127.193 62.7786 127.171 62.7607 127.147 62.7498C127.122 62.7389 127.094 62.7353 127.067 62.7396C127.041 62.7438 127.016 62.7557 126.995 62.7738" fill="#001689"/>
<path d="M247.774 62.8304C247.114 63.5183 245.398 65.3089 244.805 65.7518C244.211 66.1948 243.24 66.3833 239.677 66.3833C239.642 66.3833 239.609 66.3694 239.584 66.3446C239.559 66.3199 239.545 66.2863 239.545 66.2513V59.4094C239.548 59.3386 239.578 59.2715 239.629 59.2223C239.68 59.173 239.748 59.1455 239.819 59.1456H241.873C242.476 59.1357 243.058 59.3624 243.495 59.777C243.977 60.2953 244.406 60.8604 244.776 61.4639L244.541 61.1058L244.776 61.4639C244.804 61.4711 244.833 61.4711 244.861 61.4639C244.892 61.464 244.922 61.4524 244.945 61.4314C244.967 61.4104 244.981 61.3816 244.984 61.3508V56.6011C244.979 56.5352 244.979 56.469 244.984 56.4032C244.983 56.3763 244.973 56.3504 244.957 56.329C244.94 56.3076 244.918 56.2918 244.892 56.2835C244.867 56.2753 244.839 56.2752 244.813 56.2831C244.787 56.291 244.765 56.3066 244.748 56.3278L243.315 57.9487C242.891 58.2324 242.38 58.356 241.873 58.2974H239.847C239.812 58.2987 239.776 58.2928 239.743 58.2801C239.71 58.2674 239.68 58.2482 239.654 58.2235C239.629 58.1989 239.608 58.1694 239.595 58.1367C239.581 58.1041 239.574 58.069 239.574 58.0335V51.4367C239.574 51.4017 239.588 51.3681 239.612 51.3434C239.637 51.3186 239.671 51.3047 239.706 51.3047C243.278 51.3047 243.664 51.2482 244.418 51.7854C245.003 52.2189 246.727 54.0189 247.387 54.7068C247.408 54.7255 247.434 54.7376 247.462 54.7416C247.489 54.7456 247.518 54.7412 247.543 54.7291C247.568 54.717 247.589 54.6977 247.603 54.6736C247.618 54.6495 247.624 54.6217 247.623 54.5937L247.359 50.6168C247.357 50.5784 247.34 50.5425 247.312 50.5162C247.284 50.4899 247.247 50.4753 247.208 50.4754H233.636C233.617 50.4679 233.596 50.4682 233.577 50.4761C233.559 50.4841 233.544 50.4991 233.537 50.5178C233.529 50.5366 233.529 50.5575 233.537 50.5761C233.545 50.5946 233.56 50.6093 233.579 50.6168C233.824 50.7864 234.522 51.1445 235.049 51.4649L235.653 51.8231C235.678 51.8367 235.7 51.8571 235.715 51.882C235.73 51.9069 235.738 51.9354 235.738 51.9644C235.738 53.0576 235.841 63.8293 235.738 65.5728C235.247 65.9309 233.928 66.6 233.551 66.8639C233.532 66.8714 233.517 66.886 233.509 66.9046C233.501 66.9231 233.501 66.9441 233.508 66.9628C233.516 66.9816 233.531 66.9966 233.549 67.0045C233.568 67.0125 233.589 67.0128 233.607 67.0053H247.5C247.53 67.0065 247.559 67.0019 247.586 66.9915C247.614 66.9812 247.639 66.9655 247.66 66.9452C247.681 66.9249 247.698 66.9006 247.709 66.8737C247.721 66.8468 247.727 66.8178 247.727 66.7885L247.981 62.8775C247.981 62.8504 247.973 62.8239 247.958 62.8012C247.943 62.7786 247.921 62.7607 247.897 62.7498C247.872 62.7389 247.844 62.7353 247.817 62.7396C247.791 62.7438 247.766 62.7557 247.745 62.7738" fill="#001689"/>
<path d="M159.552 66.0722C159.552 66.0322 159.536 65.9939 159.507 65.9656C159.479 65.9373 159.441 65.9214 159.401 65.9214H158.458C157.223 65.9214 157.11 65.601 157.11 65.1864V52.4827C157.1 52.2944 157.1 52.1056 157.11 51.9173C157.657 51.5497 158.873 50.9277 159.231 50.6733V50.5696H150.965C150.965 50.5696 150.909 50.645 150.965 50.6733C151.333 50.9371 152.633 51.6157 153.133 51.9549C153.143 52.1307 153.143 52.3069 153.133 52.4827V65.912H147.949V52.4827C147.938 52.3006 147.938 52.1181 147.949 51.9361C148.477 51.578 149.74 50.9277 150.098 50.6733H141.823V50.7769C142.19 51.0314 143.444 51.7193 143.972 52.0303C143.982 52.2155 143.982 52.4012 143.972 52.5864V65.912H138.788V52.4827C138.777 52.3069 138.777 52.1307 138.788 51.9549C139.287 51.6063 140.588 50.9371 140.965 50.6733C141.012 50.6733 140.965 50.5979 140.965 50.5602H132.699V50.6638C133.057 50.9183 134.273 51.5403 134.82 51.8984C134.83 52.0899 134.83 52.2818 134.82 52.4733V64.4984C134.825 64.8775 134.793 65.2563 134.725 65.6293C134.16 65.9968 133.01 66.5717 132.661 66.8262C132.595 66.8733 132.661 66.9675 132.727 66.9675H154.914C155.505 66.9587 156.093 67.0577 156.649 67.2597C157.271 67.778 158.779 70.2094 159.42 70.8879C159.439 70.9087 159.465 70.9225 159.493 70.9275C159.521 70.9325 159.549 70.9284 159.575 70.9157C159.6 70.903 159.621 70.8824 159.634 70.857C159.646 70.8316 159.651 70.8028 159.646 70.7748L159.552 66.0722Z" fill="#001689"/>
<path d="M101.944 58.0523C104.593 57.5529 105.912 56.3371 105.912 54.2827C105.912 51.8136 103.763 50.5131 99.5407 50.5131H92.0005C91.9156 50.5131 91.8685 50.6073 91.9345 50.6544C92.3398 50.9371 93.8195 51.6911 94.2248 52.0115C94.2867 52.3217 94.3151 52.6376 94.3097 52.9539V64.4984C94.3147 64.8146 94.2863 65.1305 94.2248 65.4408C93.8384 65.7518 92.3398 66.5152 91.9345 66.7979C91.8685 66.845 91.9345 66.9392 92.0005 66.9392H100.21C104.319 66.9392 106.742 65.1581 106.742 62.2272C106.742 60.0125 105.168 58.6649 101.972 58.0523H101.944ZM98.2023 53.001C98.2023 51.9078 98.2683 51.3801 99.4276 51.3801C101.19 51.3801 101.897 52.3225 101.897 54.5089C101.897 57.0722 100.954 57.8921 98.4002 57.8921H98.2023V53.001ZM99.5878 66.1193C98.5133 66.1193 98.174 65.6104 98.174 64.5172V58.646H98.7207C101.435 58.646 102.491 59.6544 102.491 62.3497C102.491 65.045 101.812 66.1193 99.6632 66.1193" fill="#001689"/>
</svg>
