<svg width="181" height="40" viewBox="0 0 181 40" fill="none" xmlns="http://www.w3.org/2000/svg">
<path fill-rule="evenodd" clip-rule="evenodd" d="M15.974 7.44265C15.7537 10.8079 15.7537 14.0632 15.4894 16.9226C15.225 19.782 15.0488 22.3334 14.7624 24.6209C14.501 26.6413 14.0961 28.6406 13.5508 30.6036C13.1263 32.2061 12.4735 33.7395 11.6123 35.1566C11.1731 35.9401 10.5988 36.64 9.91603 37.2242C9.32707 37.7529 8.6672 38.1971 7.95544 38.5439C7.31556 38.8657 6.63321 39.0953 5.92877 39.2257C5.31995 39.3522 4.70015 39.4185 4.07832 39.4237C3.38224 39.4974 2.67993 39.49 1.98556 39.4017C1.40644 39.2502 0.850628 39.0208 0.333374 38.7199L1.14845 32.2533C1.35434 32.335 1.56856 32.394 1.78729 32.4292H2.42614C3.02025 32.4324 3.60493 32.2808 4.12238 31.9893C4.72635 31.6789 5.22463 31.1967 5.55427 30.6036C6.21613 29.4953 6.68536 28.2831 6.94211 27.0184C7.41422 25.0619 7.76733 23.0787 7.9995 21.0797C8.28588 18.6602 8.55023 15.8008 8.72646 12.4576C8.9027 9.11429 9.14502 5.19914 9.14502 0.756104H31.3944V39.1158H23.9926V7.44265H15.974Z" fill="black"/>
<path fill-rule="evenodd" clip-rule="evenodd" d="M53.5117 22.7292H53.3575L51.0224 26.7323L41.4398 39.1157H37.0119V11.7096H44.0172V24.7528L43.6867 28.492H43.907L46.132 24.5988L55.8248 11.7096H60.2526V39.1157H53.2474V26.6224L53.5117 22.7292Z" fill="black"/>
<path fill-rule="evenodd" clip-rule="evenodd" d="M79.2637 18.0222V39.1157H72.0381V18.0222H64.3279V11.7096H86.7536V18.0222H79.2637Z" fill="black"/>
<path fill-rule="evenodd" clip-rule="evenodd" d="M102.35 6.67288C101.645 6.67288 100.962 6.67288 100.301 6.67288L98.7374 6.87084V19.3861L99.4643 19.6061C99.7507 19.6061 100.059 19.6061 100.368 19.6061H101.315H101.998C102.96 19.6101 103.919 19.5143 104.861 19.3201C105.781 19.1628 106.658 18.8184 107.439 18.3084C108.21 17.7962 108.833 17.0909 109.245 16.2628C109.726 15.1771 109.952 13.9959 109.906 12.8095C109.951 11.7744 109.732 10.7449 109.267 9.8182C108.86 9.06226 108.279 8.41389 107.571 7.92661C106.848 7.43372 106.03 7.09663 105.17 6.93682C104.263 6.75977 103.341 6.67137 102.416 6.67288H102.35ZM96.3362 0.448232C98.1646 0.27227 99.971 0.206284 101.667 0.206284C103.586 0.203164 105.502 0.357651 107.395 0.668184C109.201 0.939657 110.932 1.5758 112.484 2.53778C114.028 3.49093 115.303 4.82378 116.184 6.40894C117.227 8.44728 117.72 10.7212 117.616 13.0075C117.682 15.1086 117.251 17.1955 116.361 19.1002C115.6 20.7001 114.476 22.1008 113.078 23.1913C111.691 24.263 110.103 25.0481 108.408 25.5008C106.647 25.9685 104.833 26.2051 103.011 26.2046H100.808H99.5524C99.2487 26.1944 98.9465 26.1576 98.6492 26.0947V39.2918H91.3576V1.13008C93.0045 0.818784 94.6662 0.591207 96.3362 0.448232Z" fill="#FF4B00"/>
<path fill-rule="evenodd" clip-rule="evenodd" d="M131.671 16.5268C130.893 16.4567 130.11 16.5762 129.388 16.875C128.667 17.1739 128.029 17.6431 127.529 18.2424C126.566 19.516 126.006 21.0479 125.921 22.6415H135.989C136.252 21.0804 135.98 19.4764 135.218 18.0884C134.819 17.5289 134.284 17.0798 133.664 16.7836C133.043 16.4873 132.357 16.3535 131.671 16.3948V16.5268ZM137.244 38.8299C135.347 39.4551 133.36 39.7672 131.362 39.7537C129.576 39.9035 127.78 39.6311 126.119 38.9586C124.458 38.286 122.979 37.2322 121.802 35.8826C119.643 32.7829 118.588 29.0499 118.806 25.2809C118.539 21.4037 119.751 17.5694 122.198 14.5472C123.443 13.3074 124.937 12.345 126.581 11.7232C128.225 11.1014 129.982 10.8345 131.737 10.94C133.085 10.9343 134.428 11.1195 135.724 11.4899C136.974 11.8345 138.133 12.4504 139.117 13.2935C140.192 14.2142 141.025 15.3851 141.54 16.7027C142.207 18.3884 142.521 20.1922 142.465 22.0036C142.463 22.8265 142.419 23.6487 142.333 24.4671C142.333 25.3469 142.113 26.2707 141.936 27.2165H125.723C125.725 29.1179 126.387 30.96 127.596 32.4293C128.279 33.0647 129.091 33.5482 129.975 33.8477C130.86 34.1472 131.798 34.256 132.728 34.167C134.071 34.1599 135.404 33.9295 136.671 33.4851C137.653 33.1549 138.616 32.7731 139.557 32.3414L141.76 36.7404C140.408 37.7575 138.876 38.5111 137.244 38.9619V38.8299Z" fill="#FF4C00"/>
<path fill-rule="evenodd" clip-rule="evenodd" d="M165.287 17.0105C164.026 16.744 162.743 16.5895 161.454 16.5486C156.652 16.5486 153.524 19.364 153.524 25.5446C153.524 31.3294 155.903 34.1888 160.926 34.1888C162.556 34.1888 165.728 33.7489 165.728 33.7489L166.697 38.6978C164.417 39.4167 162.039 39.7802 159.648 39.7755C149.889 39.7755 146.276 32.5171 146.276 25.1707C146.276 17.8243 150.506 11.0718 160.243 11.0718C162.294 11.0742 164.336 11.3328 166.323 11.8416L165.287 17.0105Z" fill="#FF4C00"/>
<path fill-rule="evenodd" clip-rule="evenodd" d="M176.368 19.606C175.563 19.6235 174.771 19.401 174.092 18.9671C173.414 18.5332 172.881 17.9074 172.561 17.1696C172.241 16.4318 172.148 15.6154 172.294 14.8246C172.44 14.0339 172.819 13.3045 173.382 12.7297C173.946 12.1549 174.667 11.7606 175.456 11.5972C176.245 11.4337 177.064 11.5086 177.81 11.8121C178.556 12.1157 179.194 12.6342 179.643 13.3015C180.093 13.9688 180.333 14.7547 180.333 15.5589C180.339 16.0846 180.241 16.6063 180.045 17.0942C179.849 17.5821 179.558 18.0266 179.19 18.4025C178.822 18.7783 178.383 19.078 177.899 19.2845C177.415 19.491 176.894 19.6002 176.368 19.606Z" fill="#FF4C00"/>
<path fill-rule="evenodd" clip-rule="evenodd" d="M180.333 35.4647C180.32 36.25 180.075 37.014 179.628 37.6604C179.181 38.3068 178.552 38.8068 177.821 39.0974C177.09 39.3879 176.29 39.4561 175.52 39.2933C174.751 39.1306 174.046 38.7441 173.496 38.1826C172.946 37.6211 172.575 36.9097 172.428 36.1378C172.282 35.366 172.368 34.5683 172.675 33.845C172.982 33.1218 173.497 32.5054 174.154 32.0735C174.811 31.6415 175.581 31.4133 176.368 31.4175C176.894 31.4233 177.415 31.5325 177.899 31.739C178.383 31.9455 178.822 32.2452 179.19 32.6211C179.558 32.9969 179.849 33.4414 180.045 33.9293C180.241 34.4172 180.339 34.9389 180.333 35.4647Z" fill="#FF4C00"/>
</svg>
