<svg width="68" height="402" viewBox="0 0 68 402" fill="none" xmlns="http://www.w3.org/2000/svg">
<rect x="31.5" width="5" height="157" fill="#5385E5"/>
<rect y="157" width="68" height="68" rx="34" fill="#5385E5"/>
<path d="M42.0238 199.644V204H27.5518V199.644H32.5198V183.012C32.3278 183.3 32.0038 183.624 31.5478 183.984C31.1158 184.32 30.6118 184.656 30.0358 184.992C29.4838 185.304 28.9078 185.568 28.3078 185.784C27.7318 186 27.2038 186.108 26.7238 186.108V181.644C27.3718 181.644 28.0318 181.476 28.7038 181.14C29.3758 180.804 29.9998 180.42 30.5758 179.988C31.1518 179.556 31.6078 179.16 31.9438 178.8C32.3038 178.416 32.4958 178.212 32.5198 178.188H37.4518V199.644H42.0238Z" fill="white"/>
<rect x="31.5" y="225" width="5" height="177" fill="#5385E5"/>
</svg>
