<svg width="328" height="122" viewBox="0 0 328 122" fill="none" xmlns="http://www.w3.org/2000/svg">
<rect x="130" width="68" height="68" rx="34" fill="#5385E5"/>
<path d="M172.024 42.644V47H157.552V42.644H162.52V26.012C162.328 26.3 162.004 26.624 161.548 26.984C161.116 27.32 160.612 27.656 160.036 27.992C159.484 28.304 158.908 28.568 158.308 28.784C157.732 29 157.204 29.108 156.724 29.108V24.644C157.372 24.644 158.032 24.476 158.704 24.14C159.376 23.804 160 23.42 160.576 22.988C161.152 22.556 161.608 22.16 161.944 21.8C162.304 21.416 162.496 21.212 162.52 21.188H167.452V42.644H172.024Z" fill="white"/>
<rect x="161.5" y="68" width="5" height="54" fill="#5385E5"/>
</svg>
