<svg width="328" height="122" viewBox="0 0 328 122" fill="none" xmlns="http://www.w3.org/2000/svg">
<rect x="130" width="68" height="68" rx="34" fill="#5385E5"/>
<path d="M154.525 47C154.525 45.536 154.621 44.252 154.813 43.148C155.005 42.02 155.305 41.024 155.713 40.16C156.145 39.272 156.697 38.492 157.369 37.82C158.041 37.148 158.869 36.512 159.853 35.912C160.693 35.432 161.557 34.964 162.445 34.508C163.357 34.052 164.197 33.572 164.965 33.068C165.757 32.564 166.393 31.988 166.873 31.34C167.377 30.692 167.629 29.9 167.629 28.964C167.629 28.244 167.473 27.632 167.161 27.128C166.873 26.6 166.441 26.192 165.865 25.904C165.313 25.616 164.641 25.472 163.849 25.472C162.937 25.472 162.085 25.64 161.293 25.976C160.525 26.288 159.829 26.684 159.205 27.164C158.605 27.62 158.089 28.076 157.657 28.532L154.633 25.364C154.969 24.98 155.425 24.548 156.001 24.068C156.601 23.588 157.309 23.12 158.125 22.664C158.965 22.208 159.913 21.836 160.969 21.548C162.025 21.26 163.189 21.116 164.461 21.116C166.333 21.116 167.905 21.452 169.177 22.124C170.449 22.772 171.409 23.672 172.057 24.824C172.729 25.952 173.065 27.26 173.065 28.748C173.065 29.828 172.885 30.788 172.525 31.628C172.189 32.444 171.721 33.164 171.121 33.788C170.521 34.412 169.849 34.976 169.105 35.48C168.361 35.96 167.593 36.428 166.801 36.884C165.553 37.556 164.545 38.144 163.777 38.648C163.009 39.152 162.397 39.62 161.941 40.052C161.509 40.484 161.173 40.916 160.933 41.348C160.717 41.756 160.525 42.188 160.357 42.644H173.101V47H154.525Z" fill="white"/>
<rect x="161.5" y="68" width="5" height="54" fill="#5385E5"/>
</svg>
