<svg width="328" height="122" viewBox="0 0 328 122" fill="none" xmlns="http://www.w3.org/2000/svg">
<rect x="130" width="68" height="68" rx="34" fill="#5385E5"/>
<path d="M163.263 47.252C161.895 47.252 160.647 47.084 159.519 46.748C158.415 46.388 157.443 45.884 156.603 45.236C155.787 44.564 155.139 43.772 154.659 42.86L157.251 39.584C157.491 40.112 157.875 40.628 158.403 41.132C158.931 41.636 159.591 42.044 160.383 42.356C161.175 42.668 162.075 42.824 163.083 42.824C164.067 42.824 164.919 42.68 165.639 42.392C166.359 42.104 166.911 41.708 167.295 41.204C167.703 40.676 167.907 40.04 167.907 39.296C167.907 38.504 167.655 37.832 167.151 37.28C166.671 36.728 165.951 36.308 164.991 36.02C164.031 35.732 162.855 35.588 161.463 35.588H160.275V31.988H161.535C163.263 31.988 164.643 31.688 165.675 31.088C166.731 30.488 167.259 29.636 167.259 28.532C167.259 27.86 167.079 27.284 166.719 26.804C166.359 26.3 165.879 25.928 165.279 25.688C164.679 25.424 164.019 25.292 163.299 25.292C162.099 25.292 161.031 25.58 160.095 26.156C159.183 26.708 158.487 27.428 158.007 28.316L154.875 24.824C155.403 24.056 156.123 23.408 157.035 22.88C157.947 22.328 158.967 21.896 160.095 21.584C161.247 21.272 162.435 21.116 163.659 21.116C165.363 21.116 166.875 21.416 168.195 22.016C169.515 22.592 170.547 23.384 171.291 24.392C172.035 25.4 172.407 26.552 172.407 27.848C172.407 28.808 172.203 29.684 171.795 30.476C171.411 31.268 170.859 31.928 170.139 32.456C169.419 32.984 168.567 33.368 167.583 33.608C168.639 33.776 169.563 34.172 170.355 34.796C171.171 35.396 171.795 36.164 172.227 37.1C172.683 38.012 172.911 39.008 172.911 40.088C172.911 41.6 172.479 42.884 171.615 43.94C170.775 44.996 169.623 45.812 168.159 46.388C166.719 46.964 165.087 47.252 163.263 47.252Z" fill="white"/>
<rect x="161.5" y="68" width="5" height="54" fill="#5385E5"/>
</svg>
