<svg width="90" height="83" viewBox="0 0 90 83" fill="none" xmlns="http://www.w3.org/2000/svg">
<g clip-path="url(#clip0_611_14991)">
<path d="M84 60.1424H83.7507V60.3933H84V60.1424Z" fill="#56000F"/>
<path fill-rule="evenodd" clip-rule="evenodd" d="M6 12.129V53.6938C6.08892 54.5183 5.78206 56.5006 6.9624 57.9216C8.49144 59.7653 9.77464 60.088 12.4666 60.5529C15.8001 60.9634 21.5013 60.7546 25.6316 60.9564C29.6416 61.1528 33.092 62.4212 36.9242 64.2771C38.1446 64.828 39.311 65.5051 40.5559 66.0156L39.8881 65.3244C34.4031 60.1547 27.084 58.2829 19.8223 57.7812C16.8898 57.6584 12.1929 57.9742 9.92459 55.7147C9.21324 55.0042 8.64835 53.7851 8.64835 51.887V9.65552C7.3791 10.1888 6.70611 11.0905 6 12.129Z" fill="#1F4BB0"/>
<path fill-rule="evenodd" clip-rule="evenodd" d="M83.9721 12.129V53.6938C83.8849 54.5183 84.19 56.5006 83.0097 57.9216C81.4824 59.7653 80.1992 60.088 77.5073 60.5529C74.172 60.9634 68.4725 60.7546 64.3405 60.9564C60.3305 61.1528 56.8801 62.4212 53.0497 64.2771C51.8292 64.828 50.6611 65.5051 49.418 66.0156L50.0858 65.3244C55.569 60.1547 62.8899 58.2829 70.1515 57.7812C73.084 57.6584 77.781 57.9742 80.0475 55.7147C80.7606 55.0042 81.3255 53.7851 81.3255 51.887V9.65552C82.5878 10.1888 83.266 11.0905 83.9721 12.129Z" fill="#1F4BB0"/>
<path fill-rule="evenodd" clip-rule="evenodd" d="M11.8476 2.26491C11.5896 18.7863 11.4362 35.3007 11.8337 51.8203C11.8651 53.1553 12.8955 53.9973 14.088 54.1008L16.2343 54.2762L19.2557 54.4516C21.2886 54.5727 22.4672 54.8025 26.8364 55.6656C29.2964 56.0866 35.0534 58.0829 39.0687 61.2125C41.0493 62.772 43.2025 64.6788 43.2025 64.6788V13.7078C38.2161 4.76118 27.5111 -0.252434 14.2606 0.0142099C11.7465 0.0615743 11.8564 1.7667 11.8476 2.26491Z" fill="#1F4BB0"/>
<path fill-rule="evenodd" clip-rule="evenodd" d="M14.5134 5.94529C14.299 19.9213 14.1647 33.8885 14.5012 47.8715C14.5274 49.0012 15.373 49.7135 16.3685 49.8012L18.1486 49.9485L20.6522 50.0941C22.3347 50.1959 23.3111 50.3871 26.9288 51.1204C28.9669 51.4712 33.7388 53.1658 37.0637 55.8129C38.706 57.1321 40.4896 58.746 40.4896 58.746V15.6374C36.3593 8.06441 27.485 3.82968 16.508 4.05949C14.4297 4.08229 14.5204 5.52428 14.5134 5.94529Z" fill="white"/>
<path fill-rule="evenodd" clip-rule="evenodd" d="M78.1262 2.27365C78.3842 18.7968 78.5394 35.3094 78.1419 51.8291C78.1088 53.164 77.0784 54.0061 75.8876 54.1096L73.7396 54.285L70.7181 54.4604C68.687 54.5797 67.5084 54.8112 63.1375 55.6726C60.6792 56.0936 54.9204 58.0899 50.9069 61.2195C48.9246 62.7807 46.7714 64.6876 46.7714 64.6876V13.7078C51.7578 4.76117 62.4628 -0.252427 75.7132 0.012463C78.2291 0.0703527 78.1192 1.77896 78.1262 2.27365Z" fill="#1F4BB0"/>
<path fill-rule="evenodd" clip-rule="evenodd" d="M75.4622 5.95405C75.6749 19.93 75.8109 33.899 75.4744 47.8803C75.4465 49.0082 74.5939 49.7205 73.6053 49.8099L71.827 49.9573L69.3233 50.1046C67.6391 50.2046 66.6628 50.3976 63.0468 51.1309C61.0104 51.4817 56.2472 53.1745 52.9119 55.8217C51.2713 57.1426 49.486 58.7548 49.486 58.7548V15.6374C53.6181 8.06263 62.4924 3.82791 73.4676 4.05947C75.5458 4.09105 75.4552 5.53304 75.4622 5.95405Z" fill="white"/>
<path fill-rule="evenodd" clip-rule="evenodd" d="M59.8405 37.0672L38.3643 49.4047C36.3767 50.1783 33.9306 48.2382 33.9271 46.2717C33.9271 38.0513 33.9271 29.8304 33.9271 21.6089C33.9515 20.0722 36.4883 18.0864 38.7409 19.2336L59.2076 31.2291C62.0391 32.75 61.4271 36.0796 59.8405 37.0672Z" fill="white" stroke="#1F4BB0" stroke-width="3" stroke-linecap="round" stroke-linejoin="round"/>
</g>
<path d="M5.13844 73.61H6.09244L8.57644 80H7.51444L6.83944 78.263H4.37344L3.70744 80H2.63644L5.13844 73.61ZM6.64144 77.516L5.61544 74.717L4.55344 77.516H6.64144ZM10.9147 80.036V79.19H11.3737C11.5237 79.19 11.6377 79.154 11.7157 79.082C11.7937 79.01 11.8687 78.902 11.9407 78.758L12.1297 78.344L9.52868 73.61H10.6447L12.5887 77.309L14.2357 73.61H15.3067L12.7147 79.235C12.5707 79.529 12.4117 79.736 12.2377 79.856C12.0697 79.976 11.8387 80.036 11.5447 80.036H10.9147ZM16.4126 81.224V79.109H16.7186C16.8866 79.109 17.0306 79.043 17.1506 78.911C17.2766 78.779 17.3816 78.569 17.4656 78.281C17.5556 77.993 17.6246 77.615 17.6726 77.147C17.7266 76.673 17.7656 76.094 17.7896 75.41L17.8346 73.61H21.9476V79.109H22.7576V81.224H21.8666V80H17.3036V81.224H16.4126ZM17.9966 79.109H20.9306V74.501H18.7706L18.7436 75.545C18.7256 76.235 18.6896 76.82 18.6356 77.3C18.5816 77.774 18.5036 78.158 18.4016 78.452C18.2996 78.746 18.1646 78.965 17.9966 79.109ZM24.7328 80V73.61H25.7408V78.578L29.1518 73.61H30.0968V80H29.0888V75.113L25.7138 80H24.7328ZM35.1334 80.045C34.6714 80.045 34.2544 79.955 33.8824 79.775C33.5104 79.595 33.1894 79.352 32.9194 79.046C32.6494 78.734 32.4394 78.386 32.2894 78.002C32.1454 77.612 32.0734 77.213 32.0734 76.805C32.0734 76.379 32.1514 75.974 32.3074 75.59C32.4634 75.2 32.6794 74.855 32.9554 74.555C33.2314 74.249 33.5554 74.009 33.9274 73.835C34.3054 73.655 34.7134 73.565 35.1514 73.565C35.6074 73.565 36.0214 73.658 36.3934 73.844C36.7714 74.03 37.0924 74.279 37.3564 74.591C37.6264 74.903 37.8334 75.251 37.9774 75.635C38.1274 76.019 38.2024 76.412 38.2024 76.814C38.2024 77.24 38.1244 77.648 37.9684 78.038C37.8184 78.422 37.6054 78.767 37.3294 79.073C37.0534 79.373 36.7264 79.61 36.3484 79.784C35.9764 79.958 35.5714 80.045 35.1334 80.045ZM33.0994 76.805C33.0994 77.105 33.1474 77.396 33.2434 77.678C33.3394 77.96 33.4744 78.212 33.6484 78.434C33.8284 78.65 34.0444 78.821 34.2964 78.947C34.5484 79.073 34.8304 79.136 35.1424 79.136C35.4664 79.136 35.7544 79.07 36.0064 78.938C36.2584 78.806 36.4684 78.629 36.6364 78.407C36.8104 78.179 36.9424 77.927 37.0324 77.651C37.1224 77.369 37.1674 77.087 37.1674 76.805C37.1674 76.505 37.1194 76.217 37.0234 75.941C36.9334 75.659 36.7984 75.41 36.6184 75.194C36.4384 74.972 36.2224 74.798 35.9704 74.672C35.7244 74.546 35.4484 74.483 35.1424 74.483C34.8184 74.483 34.5304 74.549 34.2784 74.681C34.0264 74.813 33.8134 74.99 33.6394 75.212C33.4654 75.434 33.3304 75.683 33.2344 75.959C33.1444 76.235 33.0994 76.517 33.0994 76.805ZM40.794 80.036V79.19H41.253C41.403 79.19 41.517 79.154 41.595 79.082C41.673 79.01 41.748 78.902 41.82 78.758L42.009 78.344L39.408 73.61H40.524L42.468 77.309L44.115 73.61H45.186L42.594 79.235C42.45 79.529 42.291 79.736 42.117 79.856C41.949 79.976 41.718 80.036 41.424 80.036H40.794ZM50.2429 80V77.417C50.1529 77.453 50.0359 77.498 49.8919 77.552C49.7479 77.6 49.5769 77.642 49.3789 77.678C49.1869 77.714 48.9649 77.732 48.7129 77.732C47.9869 77.732 47.4469 77.57 47.0929 77.246C46.7389 76.922 46.5619 76.406 46.5619 75.698V73.61H47.5429V75.59C47.5429 76.01 47.6479 76.319 47.8579 76.517C48.0679 76.715 48.4219 76.814 48.9199 76.814C49.1539 76.814 49.3909 76.787 49.6309 76.733C49.8769 76.679 50.0809 76.61 50.2429 76.526V73.61H51.2329V80H50.2429ZM57.9481 79.109V80H53.5651V73.61H57.8671V74.501H54.5731V76.319H57.4261V77.156H54.5731V79.109H57.9481ZM59.897 80V73.61H64.388V74.492H60.905V76.283H62.777C63.485 76.283 64.016 76.451 64.37 76.787C64.724 77.117 64.901 77.555 64.901 78.101C64.901 78.467 64.823 78.794 64.667 79.082C64.517 79.364 64.289 79.589 63.983 79.757C63.683 79.919 63.302 80 62.84 80H59.897ZM60.905 79.118H62.705C62.981 79.118 63.203 79.067 63.371 78.965C63.545 78.863 63.668 78.734 63.74 78.578C63.818 78.416 63.857 78.248 63.857 78.074C63.857 77.9 63.824 77.738 63.758 77.588C63.692 77.438 63.572 77.318 63.398 77.228C63.23 77.132 62.993 77.084 62.687 77.084H60.905V79.118ZM71.9939 73.61V80H70.9769V77.183H67.7549V80H66.7469V73.61H67.7549V76.283H70.9769V73.61H71.9939ZM74.3804 80V73.61H75.3884V78.578L78.7994 73.61H79.7444V80H78.7364V75.113L75.3614 80H74.3804ZM82.1351 80V73.61H83.1431V76.283H83.8901L85.8971 73.61H87.0491L84.7001 76.706L87.2201 80H85.9871L83.8901 77.21H83.1431V80H82.1351Z" fill="#1F4BB0"/>
<defs>
<clipPath id="clip0_611_14991">
<rect width="78" height="66" fill="white" transform="translate(6)"/>
</clipPath>
</defs>
</svg>
