<svg width="1920" height="580" viewBox="0 0 1920 580" fill="none" xmlns="http://www.w3.org/2000/svg">
<g filter="url(#filter0_d_3904_24472)">
<rect width="1920" height="561" rx="20" fill="white"/>
</g>
<g filter="url(#filter1_d_3904_24472)">
<path d="M0 20C0 8.95431 8.95431 0 20 0H1900C1911.05 0 1920 8.95431 1920 20V492.995C1920 503.644 1911.66 512.426 1901.02 512.969L960 561L18.9805 512.969C8.34488 512.426 0 503.644 0 492.995V20Z" fill="white"/>
</g>
<g filter="url(#filter2_d_3904_24472)">
<path d="M0 20C0 8.9543 8.95431 0 20 0H1900C1911.05 0 1920 8.9543 1920 20V454.749C1920 465.088 1912.12 473.722 1901.83 474.666L961.826 560.833C960.611 560.944 959.389 560.944 958.174 560.833L18.1743 474.666C7.87917 473.722 0 465.088 0 454.749V20Z" fill="#5385E5"/>
</g>
<g filter="url(#filter3_d_3904_24472)">
<path d="M0 20C0 8.9543 8.95431 0 20 0H1900C1911.05 0 1920 8.9543 1920 20V454.749C1920 465.088 1912.12 473.722 1901.83 474.666L961.826 560.833C960.611 560.944 959.389 560.944 958.174 560.833L18.1743 474.666C7.87917 473.722 0 465.088 0 454.749V20Z" fill="url(#paint0_linear_3904_24472)"/>
</g>
<mask id="mask0_3904_24472" style="mask-type:alpha" maskUnits="userSpaceOnUse" x="0" y="0" width="1920" height="561">
<path d="M0 7.99999C0 3.58171 3.58172 0 8 0H1912C1916.42 0 1920 3.58172 1920 8V465.7C1920 469.835 1916.85 473.289 1912.73 473.666L960.73 560.933C960.244 560.978 959.756 560.978 959.27 560.933L7.26974 473.666C3.15169 473.289 0 469.835 0 465.7V7.99999Z" fill="#1F4BB0"/>
</mask>
<g mask="url(#mask0_3904_24472)">
<path d="M1613 339.937V478.131H1521.34V352.181H1511.8C1511.25 352.182 1510.71 352.135 1510.17 352.042C1507.85 351.648 1505.75 350.423 1504.23 348.585C1502.71 346.747 1501.87 344.416 1501.87 342.007V339.937H1613Z" fill="#F9E216"/>
<path d="M1613 331.833V352.181H1511.8C1511.25 352.182 1510.71 352.135 1510.17 352.042C1507.85 351.648 1505.75 350.423 1504.23 348.585C1502.71 346.747 1501.87 344.416 1501.87 342.007C1501.87 341.311 1501.94 340.618 1502.08 339.936C1502.49 337.927 1503.48 336.09 1504.92 334.669C1506.37 333.247 1508.2 332.306 1510.17 331.97C1510.71 331.878 1511.25 331.832 1511.8 331.833H1613Z" fill="#FEF8C4"/>
<path d="M1601.09 343.419H1518.58V344.873H1601.09V343.419Z" fill="#232323"/>
<path d="M1609.32 337.036H1514.42V338.489H1609.32V337.036Z" fill="#232323"/>
<path d="M1521.34 352.181V478.131H1511.8C1511.25 478.132 1510.71 478.092 1510.17 478.01C1505.65 477.334 1502.15 473.878 1501.89 469.638C1501.88 469.472 1501.87 469.307 1501.87 469.124V342.007C1501.87 344.416 1502.71 346.747 1504.23 348.585C1505.75 350.423 1507.85 351.648 1510.17 352.042C1510.71 352.135 1511.25 352.182 1511.8 352.181H1521.34Z" fill="#1C1314"/>
<path d="M1397.52 276.614C1412.22 296.837 1425.5 321.112 1420.87 345.181C1420.75 345.792 1420.63 346.399 1420.49 347.003C1418.71 354.728 1415.04 362.421 1408.93 369.942C1399.74 381.274 1393.1 390 1380.08 400.524C1378.35 401.92 1376.51 403.349 1374.53 404.82L1374.5 404.845L1374.09 405.153C1372.3 406.478 1370.4 407.839 1368.38 409.235C1366.33 410.653 1364.15 412.117 1361.84 413.628C1358.22 415.989 1354.25 418.477 1349.87 421.117C1345.05 424.02 1339.74 427.109 1333.86 430.422C1323.31 436.366 1313.59 424.819 1310.25 420.536C1309.65 419.774 1309.26 419.242 1309.1 419.078C1308.42 418.386 1307.73 417.72 1307.02 417.079C1305.73 415.92 1304.4 414.825 1303.02 413.787L1302.99 413.765C1300.53 411.907 1297.94 410.214 1295.24 408.545C1282.21 400.486 1266.83 392.966 1252.53 369.957C1250.26 366.333 1248.84 362.215 1248.39 357.931C1248.32 357.307 1248.28 356.68 1248.25 356.051C1247.16 332.215 1272.74 306.118 1269.07 289.45C1263.93 266.144 1245.43 230.759 1243.03 207.04H1430.64C1410.98 227.534 1384.07 258.131 1397.52 276.614Z" fill="#1C1314"/>
<path d="M1372.38 345.168C1378.48 339.163 1381.36 330.648 1381.88 322.137C1382.47 312.287 1379.78 302.68 1376.19 293.64C1372.26 283.723 1367.24 274.282 1363.79 264.179C1360.58 254.759 1358.64 244.451 1360.99 234.585C1362.89 226.588 1367.45 218.867 1374.63 214.818C1375.52 214.312 1376.45 213.87 1377.41 213.493C1377.89 213.302 1377.68 212.499 1377.19 212.694C1369.72 215.652 1364.41 222.277 1361.59 229.815C1358.26 238.717 1358.68 248.391 1360.96 257.507C1363.57 267.959 1368.39 277.601 1372.69 287.388C1376.81 296.775 1380.64 306.675 1381.1 317.079C1381.49 325.905 1379.55 335.297 1373.95 342.222C1373.28 343.047 1372.56 343.832 1371.81 344.574C1371.43 344.943 1372 345.529 1372.38 345.16L1372.38 345.168Z" fill="#5B5B5B"/>
<path d="M1308.86 275.495C1312.19 290.926 1308.01 307.829 1297.87 319.749C1293.14 325.317 1287.15 329.635 1282.64 335.421C1280.56 338.085 1278.84 341.063 1277.97 344.375C1276.96 348.199 1277.2 352.25 1278.39 356.002C1281.18 364.823 1288.57 370.84 1296.46 374.732C1296.93 374.962 1297.34 374.248 1296.87 374.016C1289.67 370.454 1282.81 365.157 1279.73 357.341C1278.19 353.459 1277.66 349.148 1278.64 345.052C1279.46 341.627 1281.21 338.545 1283.36 335.822C1287.83 330.163 1293.7 325.895 1298.37 320.431C1303.24 314.729 1306.8 307.879 1308.83 300.591C1311.11 292.376 1311.45 283.622 1309.65 275.274C1309.53 274.754 1308.75 274.975 1308.87 275.495H1308.86Z" fill="#5B5B5B"/>
<path d="M1461.32 207.04C1460.34 214.814 1457.81 222.299 1453.89 229.031C1450.76 234.411 1446.73 239.192 1442 243.159C1437.4 247.018 1432.35 250.309 1427.91 254.375C1423.69 258.24 1420.07 262.964 1419.19 268.852C1418.12 276.071 1421.4 283.001 1424.39 289.304C1425.89 292.467 1427.43 295.628 1428.61 298.937C1429.85 302.423 1430.69 306.042 1431.13 309.725C1432.02 317.073 1431.28 324.529 1428.98 331.547C1427.1 337.197 1424.22 342.443 1420.49 347.023C1416.04 352.514 1410.49 356.954 1404.21 360.039C1403.74 360.268 1403.33 359.554 1403.8 359.324C1405.2 358.644 1406.56 357.894 1407.89 357.076C1412.9 353.97 1417.3 349.94 1420.88 345.188C1425.38 339.246 1428.46 332.301 1429.85 324.914C1431.22 317.552 1430.92 309.966 1428.97 302.743C1427.09 295.805 1423.37 289.67 1420.73 283.044C1418.35 277.048 1417.16 270.499 1419.59 264.307C1421.64 259.095 1425.67 255.075 1429.87 251.614C1434.46 247.823 1439.48 244.557 1443.83 240.462C1448.36 236.174 1452.11 231.096 1454.91 225.465C1457.8 219.699 1459.69 213.466 1460.51 207.04H1461.32Z" fill="#1C1314"/>
<path d="M1261.41 369.642C1260.18 369.095 1259 368.456 1257.86 367.731C1254.03 365.235 1250.79 361.886 1248.39 357.931C1245 352.401 1243.21 345.821 1243.56 339.317C1243.9 332.929 1246.65 327.193 1249.21 321.479C1251.83 315.64 1254.54 309.174 1252.98 302.632C1251.57 296.678 1247.23 292.068 1245.15 286.401C1244.07 283.547 1243.85 280.428 1244.52 277.446C1245.27 274.05 1246.82 270.88 1247.33 267.426C1248.34 260.623 1244.23 254.535 1239.54 250.184C1234.74 245.727 1228.88 242.688 1223.93 238.425C1219.2 234.353 1215.79 229.15 1214.71 222.837C1213.79 217.492 1214.49 211.893 1216.84 207.04H1217.74C1217.29 207.916 1216.9 208.821 1216.57 209.75C1214.48 215.685 1214.65 222.209 1217.04 228.023C1219.6 234.169 1224.72 238.319 1229.96 241.993C1235.12 245.608 1240.46 249.033 1244.27 254.227C1246.05 256.645 1247.46 259.419 1248.02 262.414C1248.62 265.604 1248.06 268.683 1247.09 271.733C1246.06 275.014 1244.71 278.31 1244.94 281.836C1245.14 284.834 1246.39 287.615 1247.81 290.198C1250.67 295.416 1254.23 300.336 1254.25 306.58C1254.28 312.905 1251.31 318.765 1248.79 324.368C1247.44 327.385 1246.12 330.439 1245.26 333.652C1244.54 336.386 1244.23 339.218 1244.34 342.048C1244.55 346.967 1245.89 351.766 1248.25 356.056C1251.32 361.671 1256.02 366.325 1261.82 368.931C1262.29 369.14 1261.88 369.854 1261.41 369.642Z" fill="#1C1314"/>
<path d="M1448.22 537.887C1448.22 538.019 1448.22 538.152 1448.22 538.283H1238.94C1238.76 537.081 1238.68 535.867 1238.68 534.652C1238.68 515.589 1255.08 509.339 1285.3 493.648L1339.45 527.121L1370.02 506.16L1371.67 505.029L1393.37 490.146C1404.9 495.735 1415.22 500.968 1423.7 506.27C1424.32 506.661 1424.94 507.051 1425.54 507.442C1439.64 516.568 1448.22 525.995 1448.22 537.887Z" fill="#B4CAFF"/>
<path d="M1393.37 490.146C1390.04 492.428 1382.56 499.134 1374.37 507.056C1373.9 507.503 1373.43 507.956 1372.96 508.414C1362.06 519.035 1350.25 531.454 1345.42 538.282H1339.47C1334.91 534.547 1330.62 530.489 1326.61 526.139C1319.87 518.817 1298.15 502.766 1285.3 493.647C1290.71 490.872 1296.24 487.896 1301.89 484.722C1307.81 481.41 1314.12 477.7 1320.8 473.506C1320.88 468.597 1321.13 460.513 1321.36 452.969C1321.42 450.982 1321.48 449.016 1321.53 447.172C1321.59 445.185 1321.64 443.308 1321.67 441.647C1321.68 441.22 1321.69 440.806 1321.7 440.408C1321.7 440.057 1321.71 439.718 1321.72 439.392C1321.73 438.35 1321.74 437.437 1321.74 436.689L1356.24 436.071L1356.5 439.97L1356.91 446.069L1357 447.434L1358.74 473.408C1360.2 474.137 1361.66 474.855 1363.1 475.562L1364.87 476.428C1374.91 481.337 1384.5 485.848 1393.37 490.146Z" fill="#F8E2E2"/>
<path d="M1356.91 446.056C1351.07 451.323 1345.44 454.127 1341.95 453.59C1334.78 452.487 1327.22 446.303 1321.7 440.395C1321.73 438.925 1321.74 437.659 1321.74 436.675L1356.24 436.058L1356.91 446.056Z" fill="#E9BFBF"/>
<path d="M1372.68 410.115C1371.83 411.751 1370.2 413.924 1368.86 414.495C1368.64 417.092 1368.34 419.524 1367.98 421.576C1367.78 422.762 1367.56 423.82 1367.34 424.723C1367.04 425.882 1366.73 426.758 1366.42 427.266C1357.56 441.676 1345.19 450.674 1339.18 449.75C1328.73 448.145 1317.48 435.776 1312.85 429.121C1312.44 428.543 1312.09 428.01 1311.8 427.532C1311.64 427.288 1311.5 427.035 1311.36 426.773C1310.32 424.757 1309.63 422.159 1309.1 419.103C1308.19 418.835 1307.38 417.858 1306.63 416.403C1305.76 414.729 1303.38 409.485 1304.58 408.47C1305.23 407.927 1306.52 408.124 1307.81 408.811C1307.49 405.711 1307.12 402.398 1306.63 398.952C1313.07 394.013 1318.9 387.524 1325.81 379.036C1329.66 374.299 1330.99 371.706 1330.99 371.706C1330.99 371.706 1349.01 386.06 1364.68 388.784C1368 389.356 1369.2 396.835 1369.24 405.09C1370.83 403.841 1372.76 403.301 1373.61 404.007C1374.81 405.014 1373.55 408.435 1372.68 410.115Z" fill="#F8E2E2"/>
<path d="M1331.03 370.397C1332.12 375.096 1331.06 380.116 1328.41 384.081C1325.68 388.163 1321.28 390.732 1316.54 391.461C1313.8 391.876 1311.01 391.666 1308.35 390.847C1307.86 390.693 1307.64 391.492 1308.14 391.645C1313.05 393.147 1318.33 392.63 1322.87 390.204C1325.04 389.008 1326.95 387.363 1328.47 385.373C1329.99 383.382 1331.09 381.09 1331.71 378.64C1332.41 375.87 1332.45 372.965 1331.81 370.177C1331.69 369.659 1330.91 369.879 1331.03 370.397Z" fill="#1C1314"/>
<path d="M1349.18 405.574C1349.18 405.077 1351.49 406.224 1356.2 405.352C1361.65 404.343 1365.59 401.483 1365.88 401.905C1366.22 402.389 1362.57 406.99 1357.55 407.884C1352.98 408.699 1349.18 407.029 1349.18 405.574Z" fill="#1C1314"/>
<path d="M1328.73 407.346C1328.65 406.736 1325.39 407.346 1320.17 406.155C1315.53 405.093 1313.42 403.535 1313.2 403.922C1312.87 404.487 1316.8 408.891 1322.06 409.282C1325.56 409.547 1328.81 407.969 1328.73 407.346Z" fill="#1C1314"/>
<path d="M1356.15 424.3C1360.2 424.3 1363.48 421.374 1363.48 417.765C1363.48 414.155 1360.2 411.229 1356.15 411.229C1352.11 411.229 1348.82 414.155 1348.82 417.765C1348.82 421.374 1352.11 424.3 1356.15 424.3Z" fill="#FFD5C8"/>
<path d="M1348.68 429.978C1349.11 430.713 1346.14 434.405 1342.1 435.14C1338.43 435.803 1334.74 433.88 1334.83 433.055C1334.9 432.459 1336.91 432.681 1341.61 431.665C1346.58 430.592 1348.38 429.469 1348.68 429.978Z" fill="#EC5F5F"/>
<path d="M1321.73 425.556C1325.66 425.556 1328.84 422.637 1328.84 419.037C1328.84 415.437 1325.66 412.518 1321.73 412.518C1317.79 412.518 1314.61 415.437 1314.61 419.037C1314.61 422.637 1317.79 425.556 1321.73 425.556Z" fill="#FFD5C8"/>
<path d="M1333.16 432.485C1335.91 433.834 1339.01 434.246 1342 433.662C1344.99 433.077 1347.72 431.527 1349.8 429.237C1349.97 429.042 1349.69 428.741 1349.51 428.944C1347.5 431.172 1344.85 432.683 1341.94 433.255C1339.04 433.828 1336.03 433.433 1333.36 432.128C1333.13 432.013 1332.92 432.369 1333.15 432.485H1333.16Z" fill="#A58374"/>
<path d="M1346.02 395.441C1346.38 393.983 1350.06 393.122 1352.73 392.726C1360.66 391.545 1366.56 393.071 1366.48 394.666C1366.45 395.351 1361.68 396.368 1355.48 397.647C1350.75 398.627 1348.62 401.065 1346.84 400.073C1345.73 399.46 1345.66 396.883 1346.02 395.441Z" fill="#1C1314"/>
<path d="M1331.07 397.206C1330.66 395.759 1326.96 395.007 1324.28 394.689C1316.32 393.74 1310.48 395.434 1310.59 397.027C1310.64 397.713 1314.73 397.902 1320.95 399.005C1325.71 399.846 1329.56 402.841 1331.32 401.797C1332.41 401.148 1331.47 398.637 1331.07 397.206Z" fill="#1C1314"/>
<path d="M1337.05 410.92C1337.03 412.507 1336.72 414.108 1336.47 415.668C1336.16 417.57 1335.82 419.464 1335.53 421.367C1335.43 422.003 1335.33 422.643 1335.28 423.284C1335.25 423.553 1335.17 423.959 1335.31 424.214C1335.5 424.555 1336.02 424.613 1336.35 424.661C1337.13 424.751 1337.91 424.772 1338.68 424.724C1340.24 424.67 1341.99 424.648 1343.5 424.191C1343.55 424.176 1343.59 424.141 1343.62 424.093C1343.65 424.046 1343.65 423.989 1343.64 423.936C1343.63 423.883 1343.59 423.838 1343.54 423.811C1343.5 423.784 1343.44 423.777 1343.39 423.792C1342.18 424.16 1340.81 424.189 1339.56 424.267C1338.75 424.326 1337.95 424.341 1337.15 424.314C1336.82 424.3 1335.85 424.348 1335.66 424.004C1335.54 423.797 1335.69 423.191 1335.71 422.969C1335.79 422.255 1335.91 421.546 1336.02 420.837C1336.3 419.087 1336.61 417.343 1336.89 415.592C1337.13 414.058 1337.44 412.48 1337.45 410.92C1337.45 410.865 1337.43 410.812 1337.39 410.774C1337.35 410.735 1337.3 410.713 1337.25 410.713C1337.2 410.713 1337.14 410.735 1337.11 410.774C1337.07 410.812 1337.05 410.865 1337.05 410.92Z" fill="#A58374"/>
<path d="M1301.1 402.142L1305.63 430.002C1300.9 430.811 1296.05 425.231 1294.8 417.538C1293.54 409.845 1296.37 402.943 1301.1 402.142Z" fill="#FEB8A2"/>
<path d="M1303.29 400.983C1301.31 389.886 1301.72 380.124 1304.49 371.954C1306.95 364.71 1311.33 358.782 1317.17 354.816C1322.88 350.94 1329.75 348.986 1337.05 349.171C1344.17 349.336 1351.1 351.544 1357.06 355.544C1362.88 359.442 1367.45 365.028 1370.17 371.593C1373.2 378.942 1373.93 387.317 1372.33 396.488L1370.42 396.138C1373.32 379.523 1368.06 365.333 1355.99 357.206C1344.33 349.35 1329.16 349.055 1318.24 356.472C1311.28 361.205 1300.31 373.238 1305.2 400.625L1303.29 400.983Z" fill="#FF7448"/>
<path d="M1309.06 432.184C1308.67 432.25 1308.27 432.237 1307.88 432.145C1307.49 432.052 1307.13 431.882 1306.8 431.645C1306.48 431.407 1306.2 431.107 1305.99 430.761C1305.78 430.414 1305.64 430.029 1305.58 429.627L1301.19 402.414C1301.13 402.011 1301.14 401.6 1301.23 401.202C1301.32 400.805 1301.49 400.43 1301.72 400.099C1301.95 399.767 1302.24 399.486 1302.58 399.271C1302.92 399.055 1303.3 398.911 1303.69 398.844C1304.08 398.778 1304.48 398.791 1304.87 398.884C1305.26 398.976 1305.62 399.146 1305.95 399.383C1306.27 399.621 1306.54 399.921 1306.75 400.268C1306.96 400.614 1307.11 400.999 1307.17 401.402L1311.55 428.615C1311.68 429.427 1311.5 430.259 1311.03 430.929C1310.56 431.598 1309.85 432.05 1309.06 432.184Z" fill="#FF7448"/>
<path d="M1374.66 397.288L1374.19 425.528C1378.99 425.612 1382.98 419.358 1383.11 411.559C1383.24 403.76 1379.46 397.372 1374.66 397.288Z" fill="#FEB8A2"/>
<path d="M1371.12 428.212C1371.92 428.224 1372.7 427.908 1373.27 427.335C1373.85 426.762 1374.18 425.979 1374.19 425.156L1374.61 397.577C1374.62 396.755 1374.31 395.962 1373.75 395.372C1373.19 394.782 1372.43 394.443 1371.63 394.43C1370.82 394.42 1370.05 394.736 1369.48 395.309C1368.9 395.882 1368.57 396.666 1368.56 397.488L1368.14 425.067C1368.13 425.889 1368.44 426.681 1369 427.271C1369.55 427.861 1370.32 428.199 1371.12 428.212Z" fill="#FF7448"/>
<path d="M1397.4 516.089C1394.93 516.092 1392.47 515.886 1390.04 515.473C1378.33 513.472 1368.17 506.684 1360.64 495.84L1362.22 494.681C1378.98 518.843 1404.3 516.904 1420.89 507.901C1438.35 498.422 1453.27 477.499 1444.75 453.965C1435.37 428.052 1432.41 403.81 1435.95 381.919C1438.92 363.535 1446.54 347.152 1458.01 334.534C1465.79 325.969 1475.02 319.48 1484.69 315.765C1493.88 312.241 1502.95 311.504 1510.25 313.692C1519.02 316.318 1524.78 322.988 1526.47 332.47L1524.56 332.828C1522.99 323.997 1517.85 318.039 1509.7 315.603C1502.8 313.536 1494.16 314.257 1485.37 317.632C1475.97 321.239 1467 327.554 1459.42 335.893C1447.52 348.996 1422.44 386.661 1446.56 453.286C1450.51 464.185 1449.85 475.578 1444.67 486.234C1439.97 495.89 1431.84 504.214 1421.79 509.67C1414.02 513.886 1405.57 516.089 1397.4 516.089Z" fill="#FF7448"/>
<path d="M1361.45 496.253C1360.53 496.253 1352.05 495.19 1343.14 490.622C1337.97 487.972 1333.72 484.659 1330.5 480.784C1326.48 475.946 1324.09 470.23 1323.38 463.794C1321.8 449.529 1316.78 438.398 1308.44 430.71L1309.73 429.233C1318.43 437.255 1323.67 448.809 1325.3 463.571C1326.51 474.513 1332.73 482.978 1343.79 488.732C1350.9 492.424 1357.98 493.833 1360.5 494.181C1359.9 491.256 1358.85 483.237 1368.46 462.145C1372.33 453.638 1371.67 448.423 1370.9 442.385C1370.35 438.078 1369.73 433.216 1370.72 426.569L1372.64 426.871C1371.69 433.237 1372.26 437.757 1372.82 442.128C1373.6 448.209 1374.33 453.955 1370.21 462.984C1366.01 472.221 1363.4 479.957 1362.46 485.978C1361.72 490.719 1362.23 493.046 1362.48 494.166C1362.61 494.777 1362.73 495.305 1362.38 495.784C1362.27 495.925 1362.14 496.041 1361.99 496.122C1361.83 496.204 1361.66 496.249 1361.49 496.256L1361.45 496.253Z" fill="#FF7448"/>
<path d="M1524.52 330.516H1526.52C1527.32 330.516 1528.08 330.839 1528.64 331.416C1529.21 331.992 1529.52 332.774 1529.52 333.59V343.093H1521.53V333.59C1521.53 332.774 1521.84 331.992 1522.4 331.416C1522.97 330.839 1523.73 330.516 1524.52 330.516Z" fill="#FF7448"/>
<path d="M1533.01 409.304C1533.01 412.472 1533.78 415.352 1535.32 417.944C1536.9 420.488 1539.04 422.528 1541.72 424.064C1544.46 425.552 1547.51 426.296 1550.87 426.296C1552.5 426.296 1553.99 426.08 1555.33 425.648C1556.72 425.216 1557.95 424.568 1559 423.704C1560.06 422.84 1560.92 421.832 1561.6 420.68C1561.55 423.752 1561.07 426.392 1560.16 428.6C1559.29 430.76 1558.07 432.416 1556.48 433.568C1554.9 434.72 1553.03 435.296 1550.87 435.296C1548.76 435.296 1546.79 434.792 1544.96 433.784C1543.14 432.728 1541.65 431.312 1540.5 429.536L1534.96 435.584C1536.83 438.176 1539.13 440.192 1541.87 441.632C1544.6 443.024 1547.56 443.72 1550.72 443.72C1554.76 443.72 1558.26 442.616 1561.24 440.408C1564.21 438.2 1566.49 434.96 1568.08 430.688C1569.71 426.368 1570.52 421.112 1570.52 414.92C1570.52 409.976 1569.76 405.776 1568.22 402.32C1566.68 398.816 1564.5 396.152 1561.67 394.328C1558.88 392.456 1555.57 391.52 1551.73 391.52C1548.23 391.52 1545.06 392.312 1542.23 393.896C1539.4 395.432 1537.14 397.544 1535.46 400.232C1533.83 402.92 1533.01 405.944 1533.01 409.304ZM1551.66 399.584C1553.39 399.584 1554.95 400.04 1556.34 400.952C1557.78 401.864 1558.93 403.04 1559.8 404.48C1560.71 405.92 1561.16 407.528 1561.16 409.304C1561.16 410.984 1560.73 412.544 1559.87 413.984C1559 415.376 1557.85 416.504 1556.41 417.368C1555.02 418.184 1553.46 418.592 1551.73 418.592C1550 418.592 1548.42 418.184 1546.98 417.368C1545.54 416.504 1544.39 415.376 1543.52 413.984C1542.71 412.544 1542.3 410.96 1542.3 409.232C1542.3 407.504 1542.73 405.92 1543.6 404.48C1544.46 402.992 1545.59 401.816 1546.98 400.952C1548.42 400.04 1549.98 399.584 1551.66 399.584Z" fill="#FEF8C4"/>
<path d="M1531.53 464V454.568H1533.94V458.132H1534.75L1537.31 454.568H1539.93L1536.59 459.122L1540.29 464H1537.54L1534.71 460.256H1533.94V464H1531.53ZM1542.01 464.126V461.984C1542.3 461.972 1542.56 461.9 1542.78 461.768C1543.01 461.636 1543.21 461.414 1543.38 461.102C1543.56 460.778 1543.7 460.328 1543.79 459.752C1543.9 459.176 1543.97 458.438 1544.01 457.538L1544.13 454.568H1551.21V464H1548.8V456.674H1546.26L1546.22 457.772C1546.17 459.008 1546.05 460.034 1545.86 460.85C1545.67 461.666 1545.4 462.314 1545.05 462.794C1544.72 463.262 1544.3 463.598 1543.79 463.802C1543.29 464.006 1542.69 464.114 1542.01 464.126ZM1553.65 461.21C1553.65 460.598 1553.82 460.064 1554.16 459.608C1554.5 459.14 1554.98 458.78 1555.6 458.528C1556.21 458.276 1556.91 458.15 1557.7 458.15C1558.1 458.15 1558.5 458.18 1558.91 458.24C1559.32 458.3 1559.67 458.396 1559.97 458.528V458.024C1559.97 457.424 1559.79 456.962 1559.43 456.638C1559.08 456.314 1558.56 456.152 1557.86 456.152C1557.35 456.152 1556.86 456.242 1556.39 456.422C1555.92 456.602 1555.43 456.866 1554.91 457.214L1554.14 455.63C1554.76 455.222 1555.4 454.916 1556.05 454.712C1556.71 454.508 1557.4 454.406 1558.12 454.406C1559.46 454.406 1560.5 454.742 1561.25 455.414C1562 456.086 1562.38 457.046 1562.38 458.294V461.3C1562.38 461.552 1562.42 461.732 1562.51 461.84C1562.6 461.948 1562.75 462.014 1562.96 462.038V464C1562.74 464.036 1562.54 464.066 1562.36 464.09C1562.2 464.114 1562.05 464.126 1561.93 464.126C1561.45 464.126 1561.09 464.018 1560.83 463.802C1560.59 463.586 1560.44 463.322 1560.38 463.01L1560.33 462.524C1559.92 463.052 1559.41 463.46 1558.8 463.748C1558.19 464.036 1557.56 464.18 1556.93 464.18C1556.3 464.18 1555.74 464.054 1555.24 463.802C1554.74 463.538 1554.35 463.184 1554.07 462.74C1553.79 462.284 1553.65 461.774 1553.65 461.21ZM1559.52 461.696C1559.65 461.552 1559.76 461.408 1559.84 461.264C1559.93 461.12 1559.97 460.988 1559.97 460.868V459.914C1559.68 459.794 1559.37 459.704 1559.03 459.644C1558.7 459.572 1558.38 459.536 1558.08 459.536C1557.46 459.536 1556.94 459.674 1556.53 459.95C1556.14 460.214 1555.94 460.568 1555.94 461.012C1555.94 461.252 1556 461.48 1556.14 461.696C1556.27 461.912 1556.46 462.086 1556.71 462.218C1556.96 462.35 1557.26 462.416 1557.61 462.416C1557.97 462.416 1558.33 462.35 1558.67 462.218C1559.02 462.074 1559.3 461.9 1559.52 461.696ZM1569.93 464.18C1569.16 464.18 1568.47 464.054 1567.86 463.802C1567.25 463.538 1566.72 463.178 1566.29 462.722C1565.86 462.254 1565.52 461.726 1565.28 461.138C1565.06 460.55 1564.94 459.932 1564.94 459.284C1564.94 458.396 1565.14 457.586 1565.54 456.854C1565.94 456.11 1566.52 455.516 1567.26 455.072C1568.01 454.628 1568.89 454.406 1569.91 454.406C1570.93 454.406 1571.81 454.628 1572.54 455.072C1573.27 455.516 1573.82 456.098 1574.18 456.818L1571.82 457.538C1571.61 457.19 1571.34 456.926 1571.01 456.746C1570.67 456.554 1570.3 456.458 1569.89 456.458C1569.44 456.458 1569.02 456.578 1568.63 456.818C1568.26 457.046 1567.97 457.376 1567.75 457.808C1567.53 458.228 1567.43 458.72 1567.43 459.284C1567.43 459.836 1567.53 460.328 1567.75 460.76C1567.98 461.18 1568.28 461.516 1568.65 461.768C1569.02 462.008 1569.44 462.128 1569.89 462.128C1570.18 462.128 1570.45 462.08 1570.7 461.984C1570.97 461.888 1571.2 461.756 1571.4 461.588C1571.61 461.42 1571.76 461.228 1571.85 461.012L1574.21 461.732C1574 462.2 1573.68 462.62 1573.26 462.992C1572.85 463.364 1572.36 463.658 1571.8 463.874C1571.25 464.078 1570.62 464.18 1569.93 464.18ZM1580.9 464.18C1580.13 464.18 1579.44 464.054 1578.83 463.802C1578.22 463.538 1577.7 463.178 1577.26 462.722C1576.83 462.254 1576.5 461.726 1576.26 461.138C1576.03 460.55 1575.91 459.932 1575.91 459.284C1575.91 458.396 1576.11 457.586 1576.51 456.854C1576.92 456.11 1577.49 455.516 1578.24 455.072C1578.98 454.628 1579.86 454.406 1580.88 454.406C1581.9 454.406 1582.78 454.628 1583.51 455.072C1584.24 455.516 1584.79 456.098 1585.15 456.818L1582.79 457.538C1582.59 457.19 1582.32 456.926 1581.98 456.746C1581.64 456.554 1581.27 456.458 1580.86 456.458C1580.41 456.458 1579.99 456.578 1579.6 456.818C1579.23 457.046 1578.94 457.376 1578.72 457.808C1578.51 458.228 1578.4 458.72 1578.4 459.284C1578.4 459.836 1578.51 460.328 1578.72 460.76C1578.95 461.18 1579.25 461.516 1579.62 461.768C1579.99 462.008 1580.41 462.128 1580.86 462.128C1581.15 462.128 1581.42 462.08 1581.67 461.984C1581.94 461.888 1582.17 461.756 1582.38 461.588C1582.58 461.42 1582.73 461.228 1582.83 461.012L1585.18 461.732C1584.97 462.2 1584.65 462.62 1584.23 462.992C1583.82 463.364 1583.34 463.658 1582.77 463.874C1582.22 464.078 1581.6 464.18 1580.9 464.18Z" fill="#FEF8C4"/>
<path d="M244 274.633L258.563 261H392.692V405.009C392.692 405.796 392.537 406.575 392.235 407.302C391.933 408.029 391.491 408.689 390.934 409.245C390.376 409.8 389.715 410.24 388.987 410.54C388.259 410.839 387.479 410.992 386.692 410.99H244V274.633Z" fill="#3C1A72"/>
<path d="M370.5 433.5L394 409.651V261H266.982L252.5 274L257 354.019L370.5 433.5Z" fill="#E2CEFF"/>
<path d="M244 274.633H368.906C370.204 274.634 371.449 275.15 372.367 276.068C373.284 276.986 373.8 278.23 373.801 279.528V428.384C373.801 430.208 373.076 431.958 371.786 433.248C370.496 434.538 368.747 435.262 366.923 435.262H249.236C247.847 435.262 246.516 434.711 245.534 433.729C244.552 432.747 244 431.415 244 430.026V274.633Z" fill="#491D88"/>
<path d="M482.166 598.139C484.297 558.666 498.589 519.43 523.106 511.694C545.513 504.625 583.171 498.04 583.171 498.04H627.995C627.995 498.04 665.656 504.625 688.06 511.694C712.577 519.43 726.868 558.666 729 598.139H482.166Z" fill="#B4CAFF"/>
<path d="M579.004 498.795L592.525 514.078C594.248 516.026 596.366 517.585 598.737 518.651C601.109 519.717 603.681 520.266 606.281 520.262C608.882 520.257 611.451 519.7 613.82 518.626C616.188 517.552 618.301 515.986 620.017 514.033L633.234 498.994L630.11 469.426L627.632 445.971H585.625L582.555 470.461L579.004 498.795Z" fill="#F8E2E2"/>
<path d="M582.555 470.461C594.576 478.415 605.583 477.396 605.583 477.396C605.583 477.396 617.52 478.501 630.11 469.424L629.248 461.269C616.982 469.69 605.594 468.634 605.594 468.634C605.594 468.634 595.199 469.596 583.582 462.352L582.555 470.461Z" fill="#E9BFBF"/>
<path d="M555.92 416.197C561.678 442.679 573.123 455.839 583.571 462.357C595.189 469.614 605.583 468.639 605.583 468.639C605.583 468.639 616.982 469.695 629.237 461.274C639.22 454.419 649.781 441.286 655.235 416.197C667.39 360.288 668.083 325.903 605.572 324.86C543.069 325.903 543.765 360.285 555.92 416.197Z" fill="#F8E2E2"/>
<path d="M603.61 426.016C606.327 426.016 609.147 424.82 610.437 422.971C611.421 421.559 611.413 419.922 610.418 418.358C607.763 414.186 606.118 398.693 606.091 398.537C606.077 398.4 606.008 398.273 605.901 398.186C605.794 398.099 605.656 398.058 605.518 398.072C605.381 398.086 605.254 398.155 605.167 398.262C605.08 398.369 605.039 398.507 605.053 398.645C605.123 399.292 606.755 414.541 609.54 418.917C610.316 420.137 610.33 421.301 609.583 422.374C608.239 424.293 604.785 425.409 602.032 424.812C601.963 424.792 601.891 424.786 601.82 424.794C601.749 424.803 601.681 424.826 601.619 424.863C601.557 424.899 601.504 424.948 601.462 425.006C601.42 425.064 601.39 425.13 601.375 425.2C601.359 425.27 601.359 425.342 601.372 425.413C601.386 425.483 601.414 425.55 601.455 425.608C601.496 425.667 601.548 425.717 601.609 425.755C601.67 425.793 601.738 425.818 601.809 425.828C602.401 425.954 603.005 426.018 603.61 426.016Z" fill="#A58374"/>
<path d="M631.78 400.338C636.529 400.338 641.153 398.258 642.531 395.5C642.562 395.438 642.58 395.372 642.585 395.303C642.59 395.235 642.582 395.166 642.56 395.101C642.539 395.036 642.504 394.976 642.46 394.924C642.415 394.873 642.36 394.83 642.299 394.8C642.238 394.769 642.171 394.75 642.103 394.745C642.034 394.741 641.966 394.749 641.901 394.771C641.836 394.792 641.776 394.827 641.724 394.871C641.672 394.916 641.629 394.971 641.599 395.032C640.4 397.424 636.083 399.295 631.774 399.295C627.465 399.295 623.802 397.951 622.297 395.769C622.215 395.662 622.096 395.592 621.964 395.571C621.832 395.55 621.697 395.581 621.587 395.657C621.477 395.732 621.4 395.848 621.372 395.979C621.345 396.11 621.369 396.246 621.439 396.36C623.143 398.814 627.103 400.338 631.78 400.338Z" fill="#A58374"/>
<path d="M577.47 400.338C582.219 400.338 586.845 398.257 588.221 395.5C588.274 395.377 588.278 395.24 588.232 395.115C588.187 394.99 588.095 394.888 587.977 394.828C587.858 394.768 587.721 394.756 587.594 394.794C587.466 394.832 587.358 394.917 587.291 395.032C586.093 397.424 581.776 399.295 577.464 399.295C573.153 399.295 569.494 397.951 567.987 395.768C567.908 395.655 567.788 395.577 567.652 395.553C567.517 395.528 567.377 395.558 567.264 395.637C567.15 395.715 567.073 395.835 567.048 395.971C567.023 396.107 567.053 396.246 567.132 396.36C568.833 398.814 572.793 400.338 577.47 400.338Z" fill="#A58374"/>
<path d="M605.567 447.458C613.555 447.458 618.641 445.235 622.06 440.254C622.138 440.14 622.168 440 622.143 439.863C622.118 439.727 622.04 439.607 621.926 439.528C621.869 439.49 621.806 439.462 621.738 439.448C621.671 439.434 621.602 439.433 621.535 439.445C621.399 439.47 621.278 439.549 621.2 439.663C618.91 443.004 615.262 446.415 605.567 446.415C595.938 446.415 592.275 443.025 589.977 439.695C589.938 439.637 589.889 439.586 589.831 439.548C589.773 439.509 589.708 439.482 589.639 439.469C589.571 439.455 589.5 439.456 589.432 439.47C589.364 439.485 589.299 439.513 589.242 439.553C589.185 439.593 589.136 439.644 589.099 439.703C589.062 439.762 589.037 439.828 589.026 439.897C589.014 439.966 589.017 440.036 589.034 440.104C589.05 440.172 589.08 440.236 589.122 440.292C592.605 445.318 597.527 447.458 605.567 447.458Z" fill="#FF7448"/>
<path d="M622.291 380.912C621.888 381.067 621.543 381.342 621.302 381.701C621.062 382.059 620.938 382.483 620.947 382.915C620.979 384.334 621.299 386.301 622.794 386.581C625.167 387.027 641.05 381.684 647.73 387.621C648.3 387.621 641.631 373.491 622.291 380.912Z" fill="#070707"/>
<path d="M589.243 380.967C589.603 381.106 589.912 381.352 590.129 381.671C590.346 381.99 590.46 382.368 590.458 382.754C590.458 384.181 590.162 386.291 588.611 386.582C586.235 387.028 570.352 381.684 563.672 387.622C563.092 387.622 569.793 373.427 589.243 380.967Z" fill="#070707"/>
<path d="M552.087 396.771C552.087 396.771 572.516 321.688 547.443 328.715C522.369 335.741 552.087 396.771 552.087 396.771Z" fill="#070707"/>
<path d="M658.275 398.591C658.275 398.591 637.846 323.508 662.922 330.534C687.998 337.561 658.275 398.591 658.275 398.591Z" fill="#070707"/>
<path d="M551.042 330.069C551.042 330.069 554.536 298.653 590.874 291.675C590.003 292.255 583.617 301.851 583.617 301.851C583.617 301.851 622.592 268.704 659.503 299.524C696.414 330.344 668.08 333.327 668.08 333.327L650.474 352.191C650.474 352.191 580.991 379.493 557.439 345.184C553.95 333.542 551.042 330.069 551.042 330.069Z" fill="#070707"/>
<path d="M551.165 383.538L549.141 381.842L550.289 405.533L551.41 428.65L553.292 427.327C554.409 426.19 555.28 424.835 555.848 423.345C556.417 421.856 556.671 420.265 556.595 418.672L555.945 405.232L555.294 391.793C555.21 390.207 554.8 388.655 554.089 387.235C553.379 385.815 552.384 384.556 551.165 383.538Z" fill="#FFB93E"/>
<path d="M546.539 379.027L546.534 379.027C545.177 379.093 544.131 380.247 544.197 381.604L546.504 428.769C546.57 430.126 547.724 431.172 549.081 431.105L549.086 431.105C550.443 431.039 551.489 429.885 551.422 428.528L549.116 381.363C549.049 380.006 547.896 378.96 546.539 379.027Z" fill="#FEC859"/>
<path d="M527.721 554.75L529.952 550.247C536.446 537.135 553.834 539.227 570.65 541.235C581.319 542.514 591.396 543.721 599.143 541.425C606.231 539.323 619.805 534.052 631.097 522.341C642.203 510.815 648.031 496.362 648.418 479.379C649.254 442.624 662.352 429.537 662.484 429.408L661.551 428.443C661.409 428.58 658.057 431.873 654.584 439.829C651.402 447.119 647.518 459.892 647.074 479.342C646.088 522.763 609.846 536.864 598.761 540.138C591.272 542.358 581.329 541.165 570.806 539.904C555.176 538.022 539.067 536.101 531.025 546.086C534.094 536.294 540.432 531.324 547.115 526.101C556.361 518.863 565.93 511.377 568.242 490.672C569.572 478.764 564.272 471.149 559.595 464.429C557.557 461.502 555.633 458.736 554.324 455.782C548.948 443.686 549.738 431.297 549.754 431.174L548.41 431.08C548.41 431.206 547.604 443.912 553.098 456.328C554.461 459.397 556.423 462.214 558.498 465.198C563.261 472.041 568.175 479.116 566.911 490.524C564.659 510.665 555.321 517.976 546.289 525.042C538.562 531.093 531.261 536.808 528.702 549.828L527.721 554.75Z" fill="#FF7448"/>
<path d="M498.511 568.939C512.029 568.939 519.66 564.579 523.805 560.606C529.025 555.615 529.987 550.277 530.022 550.051L528.697 549.825C528.697 549.876 527.748 555.01 522.813 559.695C516.254 565.918 505.623 568.539 492.065 567.273C473.548 565.544 470.801 556.061 467.605 545.081C465.14 536.584 462.35 526.951 451.459 520.115C440.739 513.395 427.907 518.333 414.322 523.569C395.993 530.638 375.218 538.649 352.862 522.389C332.579 507.64 325.044 487.672 322.297 473.52C319.316 458.171 321.155 446.189 321.174 446.068L319.849 445.858C319.827 445.979 317.951 458.196 320.977 473.775C322.655 482.655 325.763 491.204 330.181 499.087C335.641 508.695 343.108 517.014 352.072 523.478C375.019 540.165 396.154 532.015 414.806 524.822C428.643 519.486 440.597 514.876 450.744 521.249C461.202 527.816 463.799 536.78 466.312 545.441C469.495 556.416 472.494 566.783 491.928 568.598C494.261 568.84 496.449 568.939 498.511 568.939Z" fill="#FF7448"/>
<path d="M314.79 435.262V445.603C314.79 446.191 315.023 446.755 315.439 447.171C315.855 447.587 316.419 447.82 317.007 447.82H318.351V451.046H321.577V447.82H322.921C323.212 447.82 323.5 447.763 323.769 447.651C324.038 447.54 324.282 447.377 324.488 447.171C324.694 446.965 324.857 446.72 324.968 446.451C325.079 446.182 325.136 445.894 325.136 445.603V435.262H314.79Z" fill="#FF7448"/>
<path d="M676.002 378.533C676.05 378.232 677.136 371.007 676.039 361.215C674.574 348.165 669.873 336.695 662.438 328.048C650.48 314.141 631.672 307.136 606.529 307.211C581.227 307.294 561.925 314.469 549.163 328.543C539.314 339.402 535.406 352.358 533.863 361.311C532.196 370.988 532.836 378.073 532.866 378.369L538.398 377.848L535.632 378.116L538.398 377.848C538.398 377.78 537.798 371.055 539.371 362.067C540.803 353.879 544.386 342.055 553.318 332.23C564.987 319.393 582.886 312.842 606.54 312.764C629.944 312.689 647.329 319.035 658.183 331.631C666.632 341.437 669.535 353.368 670.486 361.653C671.529 370.765 670.51 377.614 670.5 377.684L676.002 378.533Z" fill="#B4CAFF"/>
<path d="M664.675 428.898C670.967 429.204 676.273 425.543 676.58 419.251L678.354 382.635L666.946 382.082L664.675 428.898Z" fill="#FF7448"/>
<path d="M674.394 418.852C674.394 418.852 681.961 420.79 684.041 410.324C686.122 399.857 684.34 388.997 678.198 385.863C678.182 386.183 674.394 418.852 674.394 418.852Z" fill="#FF7448"/>
<path d="M678.131 387.226L678.993 369.467L669.153 368.991C669.153 368.991 671.483 377.176 668.516 382.162C668.097 382.138 678.131 387.226 678.131 387.226Z" fill="#FF7448"/>
<path d="M534.589 419.251L532.812 382.635L544.22 382.082L546.496 428.992C546.496 428.992 534.589 429.225 534.589 419.251Z" fill="#FF7448"/>
<path d="M536.771 418.852C536.771 418.852 529.207 420.79 527.124 410.324C525.041 399.857 526.826 388.997 532.968 385.863C532.984 386.183 536.771 418.852 536.771 418.852Z" fill="#FF7448"/>
<path d="M533.035 387.226L532.172 369.467L542.013 368.991C542.013 368.991 539.682 377.176 542.65 382.162C543.069 382.138 533.035 387.226 533.035 387.226Z" fill="#FF7448"/>
<path d="M662.097 431.118C662.42 431.133 662.742 431.085 663.046 430.976C663.35 430.867 663.63 430.699 663.869 430.482C664.108 430.264 664.302 430.002 664.44 429.71C664.578 429.418 664.657 429.102 664.672 428.779L666.96 381.614C666.975 381.291 666.928 380.969 666.819 380.665C666.71 380.361 666.542 380.081 666.325 379.842C666.108 379.603 665.846 379.409 665.554 379.271C665.262 379.133 664.946 379.054 664.624 379.038C664.301 379.023 663.978 379.071 663.674 379.18C663.37 379.289 663.091 379.457 662.852 379.674C662.613 379.892 662.419 380.154 662.281 380.446C662.143 380.738 662.064 381.054 662.049 381.377L659.761 428.542C659.745 428.865 659.793 429.187 659.902 429.491C660.011 429.795 660.178 430.075 660.395 430.314C660.612 430.553 660.874 430.747 661.166 430.885C661.458 431.023 661.774 431.102 662.097 431.118Z" fill="#FEC859"/>
<path d="M660 383.538L662.024 381.842L660.877 405.533L659.758 428.615L658.237 427.585C657.996 427.425 657.774 427.237 657.576 427.026C656.552 425.903 655.76 424.589 655.245 423.159C654.73 421.729 654.501 420.212 654.573 418.694L655.224 405.254L655.874 391.814C655.955 390.225 656.364 388.669 657.074 387.245C657.784 385.821 658.78 384.559 660 383.538Z" fill="#FFB93E"/>
<path d="M298 335C298 333.352 299.882 332.411 301.2 333.4L319.867 347.4C320.933 348.2 320.933 349.8 319.867 350.6L301.2 364.6C299.882 365.589 298 364.648 298 363V335Z" fill="#E2CEFF" fill-opacity="0.3"/>
</g>
<defs>
<filter id="filter0_d_3904_24472" x="-10" y="-9" width="1940" height="581" filterUnits="userSpaceOnUse" color-interpolation-filters="sRGB">
<feFlood flood-opacity="0" result="BackgroundImageFix"/>
<feColorMatrix in="SourceAlpha" type="matrix" values="0 0 0 0 0 0 0 0 0 0 0 0 0 0 0 0 0 0 127 0" result="hardAlpha"/>
<feOffset dy="1"/>
<feGaussianBlur stdDeviation="5"/>
<feColorMatrix type="matrix" values="0 0 0 0 0.729412 0 0 0 0 0.807843 0 0 0 0 0.819608 0 0 0 0.25 0"/>
<feBlend mode="darken" in2="BackgroundImageFix" result="effect1_dropShadow_3904_24472"/>
<feBlend mode="normal" in="SourceGraphic" in2="effect1_dropShadow_3904_24472" result="shape"/>
</filter>
<filter id="filter1_d_3904_24472" x="-15" y="-11" width="1950" height="591" filterUnits="userSpaceOnUse" color-interpolation-filters="sRGB">
<feFlood flood-opacity="0" result="BackgroundImageFix"/>
<feColorMatrix in="SourceAlpha" type="matrix" values="0 0 0 0 0 0 0 0 0 0 0 0 0 0 0 0 0 0 127 0" result="hardAlpha"/>
<feOffset dy="4"/>
<feGaussianBlur stdDeviation="7.5"/>
<feColorMatrix type="matrix" values="0 0 0 0 0.414201 0 0 0 0 0.507027 0 0 0 0 0.629167 0 0 0 0.25 0"/>
<feBlend mode="normal" in2="BackgroundImageFix" result="effect1_dropShadow_3904_24472"/>
<feBlend mode="normal" in="SourceGraphic" in2="effect1_dropShadow_3904_24472" result="shape"/>
</filter>
<filter id="filter2_d_3904_24472" x="-15" y="-11" width="1950" height="590.916" filterUnits="userSpaceOnUse" color-interpolation-filters="sRGB">
<feFlood flood-opacity="0" result="BackgroundImageFix"/>
<feColorMatrix in="SourceAlpha" type="matrix" values="0 0 0 0 0 0 0 0 0 0 0 0 0 0 0 0 0 0 127 0" result="hardAlpha"/>
<feOffset dy="4"/>
<feGaussianBlur stdDeviation="7.5"/>
<feColorMatrix type="matrix" values="0 0 0 0 0.414201 0 0 0 0 0.507027 0 0 0 0 0.629167 0 0 0 0.25 0"/>
<feBlend mode="normal" in2="BackgroundImageFix" result="effect1_dropShadow_3904_24472"/>
<feBlend mode="normal" in="SourceGraphic" in2="effect1_dropShadow_3904_24472" result="shape"/>
</filter>
<filter id="filter3_d_3904_24472" x="-15" y="-11" width="1950" height="590.916" filterUnits="userSpaceOnUse" color-interpolation-filters="sRGB">
<feFlood flood-opacity="0" result="BackgroundImageFix"/>
<feColorMatrix in="SourceAlpha" type="matrix" values="0 0 0 0 0 0 0 0 0 0 0 0 0 0 0 0 0 0 127 0" result="hardAlpha"/>
<feOffset dy="4"/>
<feGaussianBlur stdDeviation="7.5"/>
<feColorMatrix type="matrix" values="0 0 0 0 0.414201 0 0 0 0 0.507027 0 0 0 0 0.629167 0 0 0 0.25 0"/>
<feBlend mode="normal" in2="BackgroundImageFix" result="effect1_dropShadow_3904_24472"/>
<feBlend mode="normal" in="SourceGraphic" in2="effect1_dropShadow_3904_24472" result="shape"/>
</filter>
<linearGradient id="paint0_linear_3904_24472" x1="960" y1="35.5" x2="960" y2="561" gradientUnits="userSpaceOnUse">
<stop stop-color="#1F4BB0"/>
<stop offset="1" stop-color="#5385E5" stop-opacity="0"/>
</linearGradient>
</defs>
</svg>
