<svg width="485" height="300" viewBox="0 0 485 300" fill="none" xmlns="http://www.w3.org/2000/svg">
<path d="M0 13.6333L14.5633 0H148.692V144.009C148.692 144.796 148.537 145.575 148.235 146.302C147.933 147.029 147.491 147.689 146.934 148.245C146.376 148.8 145.715 149.24 144.987 149.54C144.259 149.839 143.479 149.992 142.692 149.99H0V13.6333Z" fill="#3C1A72"/>
<path d="M126.5 172.5L150 148.651V0H22.9819L8.5 13L13 93.0194L126.5 172.5Z" fill="#E2CEFF"/>
<path d="M0 13.6333H124.906C126.204 13.634 127.449 14.1499 128.367 15.0677C129.284 15.9855 129.8 17.2301 129.801 18.5281V167.384C129.801 169.208 129.076 170.958 127.786 172.248C126.496 173.538 124.747 174.262 122.923 174.262H5.23612C3.84742 174.262 2.51559 173.711 1.53363 172.729C0.551661 171.747 0 170.415 0 169.026L0 13.6333Z" fill="#491D88"/>
<path d="M238.166 337.139C240.297 297.666 254.589 258.43 279.106 250.694C301.513 243.625 339.171 237.04 339.171 237.04H383.995C383.995 237.04 421.656 243.625 444.06 250.694C468.577 258.43 482.868 297.666 485 337.139H238.166Z" fill="#B4CAFF"/>
<path d="M335.004 237.795L348.525 253.078C350.248 255.026 352.366 256.585 354.737 257.651C357.109 258.717 359.681 259.266 362.281 259.262C364.882 259.257 367.451 258.7 369.82 257.626C372.188 256.552 374.301 254.986 376.017 253.033L389.234 237.994L386.11 208.426L383.632 184.971H341.625L338.555 209.461L335.004 237.795Z" fill="#F8E2E2"/>
<path d="M338.555 209.461C350.576 217.415 361.583 216.396 361.583 216.396C361.583 216.396 373.52 217.501 386.11 208.424L385.248 200.269C372.982 208.69 361.594 207.634 361.594 207.634C361.594 207.634 351.199 208.596 339.582 201.352L338.555 209.461Z" fill="#E9BFBF"/>
<path d="M311.92 155.197C317.678 181.679 329.123 194.839 339.571 201.357C351.189 208.614 361.583 207.639 361.583 207.639C361.583 207.639 372.982 208.695 385.237 200.274C395.22 193.419 405.781 180.286 411.235 155.197C423.39 99.2875 424.083 64.9033 361.572 63.8604C299.069 64.9033 299.765 99.2848 311.92 155.197Z" fill="#F8E2E2"/>
<path d="M359.61 165.016C362.327 165.016 365.147 163.82 366.437 161.971C367.421 160.559 367.413 158.922 366.418 157.358C363.763 153.186 362.118 137.693 362.091 137.537C362.077 137.4 362.008 137.273 361.901 137.186C361.794 137.099 361.656 137.058 361.518 137.072C361.381 137.086 361.254 137.155 361.167 137.262C361.08 137.369 361.039 137.507 361.053 137.645C361.123 138.292 362.755 153.541 365.54 157.917C366.316 159.137 366.33 160.301 365.583 161.374C364.239 163.293 360.785 164.409 358.032 163.812C357.963 163.792 357.891 163.786 357.82 163.794C357.749 163.803 357.681 163.826 357.619 163.863C357.557 163.899 357.504 163.948 357.462 164.006C357.42 164.064 357.39 164.13 357.375 164.2C357.359 164.27 357.359 164.342 357.372 164.413C357.386 164.483 357.414 164.55 357.455 164.608C357.496 164.667 357.548 164.717 357.609 164.755C357.67 164.793 357.738 164.818 357.809 164.828C358.401 164.954 359.005 165.018 359.61 165.016Z" fill="#A58374"/>
<path d="M387.78 139.338C392.529 139.338 397.153 137.258 398.531 134.5C398.562 134.438 398.58 134.372 398.585 134.303C398.59 134.235 398.582 134.166 398.56 134.101C398.539 134.036 398.504 133.976 398.46 133.924C398.415 133.873 398.36 133.83 398.299 133.8C398.238 133.769 398.171 133.75 398.103 133.745C398.034 133.741 397.966 133.749 397.901 133.771C397.836 133.792 397.776 133.827 397.724 133.871C397.672 133.916 397.629 133.971 397.599 134.032C396.4 136.424 392.083 138.295 387.774 138.295C383.465 138.295 379.802 136.951 378.297 134.769C378.215 134.662 378.096 134.592 377.964 134.571C377.832 134.55 377.697 134.581 377.587 134.657C377.477 134.732 377.4 134.848 377.372 134.979C377.345 135.11 377.369 135.246 377.439 135.36C379.143 137.814 383.103 139.338 387.78 139.338Z" fill="#A58374"/>
<path d="M333.47 139.338C338.219 139.338 342.845 137.257 344.221 134.5C344.274 134.377 344.278 134.24 344.232 134.115C344.187 133.99 344.095 133.888 343.977 133.828C343.858 133.768 343.721 133.756 343.594 133.794C343.466 133.832 343.358 133.917 343.291 134.032C342.093 136.424 337.776 138.295 333.464 138.295C329.153 138.295 325.494 136.951 323.987 134.768C323.908 134.655 323.788 134.577 323.652 134.553C323.517 134.528 323.377 134.558 323.264 134.637C323.15 134.715 323.073 134.835 323.048 134.971C323.023 135.107 323.053 135.246 323.132 135.36C324.833 137.814 328.793 139.338 333.47 139.338Z" fill="#A58374"/>
<path d="M361.567 186.458C369.555 186.458 374.641 184.235 378.06 179.254C378.138 179.14 378.168 179 378.143 178.863C378.118 178.727 378.04 178.607 377.926 178.528C377.869 178.49 377.806 178.462 377.738 178.448C377.671 178.434 377.602 178.433 377.535 178.445C377.399 178.47 377.278 178.549 377.2 178.663C374.91 182.004 371.262 185.415 361.567 185.415C351.938 185.415 348.275 182.025 345.977 178.695C345.938 178.637 345.889 178.586 345.831 178.548C345.773 178.509 345.708 178.482 345.639 178.469C345.571 178.455 345.5 178.456 345.432 178.47C345.364 178.485 345.299 178.513 345.242 178.553C345.185 178.593 345.136 178.644 345.099 178.703C345.062 178.762 345.037 178.828 345.026 178.897C345.014 178.966 345.017 179.036 345.034 179.104C345.05 179.172 345.08 179.236 345.122 179.292C348.605 184.318 353.527 186.458 361.567 186.458Z" fill="#FF7448"/>
<path d="M378.291 119.912C377.888 120.067 377.543 120.342 377.302 120.701C377.062 121.059 376.938 121.483 376.947 121.915C376.979 123.334 377.299 125.301 378.794 125.581C381.167 126.027 397.05 120.684 403.73 126.621C404.3 126.621 397.631 112.491 378.291 119.912Z" fill="#070707"/>
<path d="M345.243 119.967C345.603 120.106 345.912 120.352 346.129 120.671C346.346 120.99 346.46 121.368 346.458 121.754C346.458 123.181 346.162 125.291 344.611 125.582C342.235 126.028 326.352 120.684 319.672 126.622C319.092 126.622 325.793 112.427 345.243 119.967Z" fill="#070707"/>
<path d="M308.087 135.771C308.087 135.771 328.516 60.6883 303.443 67.7146C278.369 74.7409 308.087 135.771 308.087 135.771Z" fill="#070707"/>
<path d="M414.275 137.591C414.275 137.591 393.846 62.5081 418.922 69.5344C443.998 76.5607 414.275 137.591 414.275 137.591Z" fill="#070707"/>
<path d="M307.042 69.0694C307.042 69.0694 310.536 37.6527 346.874 30.6748C346.003 31.2554 339.617 40.8513 339.617 40.8513C339.617 40.8513 378.592 7.70357 415.503 38.5236C452.414 69.3436 424.08 72.3272 424.08 72.3272L406.474 91.1913C406.474 91.1913 336.991 118.493 313.439 84.1838C309.95 72.5423 307.042 69.0694 307.042 69.0694Z" fill="#070707"/>
<path d="M307.165 122.538L305.141 120.842L306.289 144.533L307.41 167.65L309.292 166.327C310.409 165.19 311.28 163.835 311.848 162.345C312.417 160.856 312.671 159.265 312.595 157.672L311.945 144.232L311.294 130.793C311.21 129.207 310.8 127.655 310.089 126.235C309.379 124.815 308.384 123.556 307.165 122.538Z" fill="#FFB93E"/>
<path d="M302.539 118.027L302.534 118.027C301.177 118.093 300.131 119.247 300.197 120.604L302.504 167.769C302.57 169.126 303.724 170.172 305.081 170.105L305.086 170.105C306.443 170.039 307.489 168.885 307.422 167.528L305.116 120.363C305.049 119.006 303.896 117.96 302.539 118.027Z" fill="#FEC859"/>
<path d="M283.721 293.75L285.952 289.247C292.446 276.135 309.834 278.227 326.65 280.235C337.319 281.514 347.396 282.721 355.143 280.425C362.231 278.323 375.805 273.052 387.097 261.341C398.203 249.815 404.031 235.362 404.418 218.379C405.254 181.624 418.352 168.537 418.484 168.408L417.551 167.443C417.409 167.58 414.057 170.873 410.584 178.829C407.402 186.119 403.518 198.892 403.074 218.342C402.088 261.763 365.846 275.864 354.761 279.138C347.272 281.358 337.329 280.165 326.806 278.904C311.176 277.022 295.067 275.101 287.025 285.086C290.094 275.294 296.432 270.324 303.115 265.101C312.361 257.863 321.93 250.377 324.242 229.672C325.572 217.764 320.272 210.149 315.595 203.429C313.557 200.502 311.633 197.736 310.324 194.782C304.948 182.686 305.738 170.297 305.754 170.174L304.41 170.08C304.41 170.206 303.604 182.912 309.098 195.328C310.461 198.397 312.423 201.214 314.498 204.198C319.261 211.041 324.175 218.116 322.911 229.524C320.659 249.665 311.321 256.976 302.289 264.042C294.562 270.093 287.261 275.808 284.702 288.828L283.721 293.75Z" fill="#FF7448"/>
<path d="M254.511 307.939C268.029 307.939 275.66 303.579 279.805 299.606C285.025 294.615 285.987 289.277 286.022 289.051L284.697 288.825C284.697 288.876 283.748 294.01 278.813 298.695C272.254 304.918 261.623 307.539 248.065 306.273C229.548 304.544 226.801 295.061 223.605 284.081C221.14 275.584 218.35 265.951 207.459 259.115C196.739 252.395 183.907 257.333 170.322 262.569C151.993 269.638 131.218 277.649 108.862 261.389C88.5786 246.64 81.0443 226.672 78.2972 212.52C75.3163 197.171 77.1549 185.189 77.1737 185.068L75.8485 184.858C75.827 184.979 73.9508 197.196 76.9774 212.775C78.6549 221.655 81.7632 230.204 86.181 238.087C91.6413 247.695 99.1076 256.014 108.072 262.478C131.019 279.165 152.154 271.015 170.806 263.822C184.643 258.486 196.597 253.876 206.744 260.249C217.202 266.816 219.799 275.78 222.312 284.441C225.495 295.416 228.494 305.783 247.928 307.598C250.261 307.84 252.449 307.939 254.511 307.939Z" fill="#FF7448"/>
<path d="M70.7898 174.262V184.603C70.7898 185.191 71.0234 185.755 71.4393 186.171C71.8552 186.587 72.4192 186.82 73.0074 186.82H74.3513V190.046H77.5769V186.82H78.9208C79.2119 186.82 79.5002 186.763 79.7691 186.651C80.038 186.54 80.2822 186.377 80.4879 186.171C80.6936 185.965 80.8567 185.72 80.9679 185.451C81.079 185.182 81.1361 184.894 81.1357 184.603V174.262H70.7898Z" fill="#FF7448"/>
<path d="M432.002 117.533C432.05 117.232 433.136 110.007 432.039 100.215C430.574 87.1646 425.873 75.6952 418.438 67.048C406.48 53.1406 387.672 46.1358 362.529 46.211C337.227 46.2944 317.925 53.4685 305.163 67.5426C295.314 78.4019 291.406 91.3579 289.863 100.311C288.196 109.988 288.836 117.073 288.866 117.369L294.398 116.848L291.632 117.116L294.398 116.848C294.398 116.78 293.798 110.055 295.371 101.067C296.803 92.8792 300.386 81.0549 309.318 71.2305C320.987 58.3928 338.886 51.8423 362.54 51.7644C385.944 51.6891 403.329 58.0353 414.183 70.6311C422.632 80.4367 425.535 92.3685 426.486 100.653C427.529 109.765 426.51 116.614 426.5 116.684L432.002 117.533Z" fill="#B4CAFF"/>
<path d="M420.675 167.898C426.967 168.204 432.273 164.543 432.58 158.251L434.354 121.635L422.946 121.082L420.675 167.898Z" fill="#FF7448"/>
<path d="M430.394 157.852C430.394 157.852 437.961 159.79 440.041 149.324C442.122 138.857 440.34 127.997 434.198 124.863C434.182 125.183 430.394 157.852 430.394 157.852Z" fill="#FF7448"/>
<path d="M434.131 126.226L434.993 108.467L425.153 107.991C425.153 107.991 427.483 116.176 424.516 121.162C424.097 121.138 434.131 126.226 434.131 126.226Z" fill="#FF7448"/>
<path d="M290.589 158.251L288.812 121.635L300.22 121.082L302.496 167.992C302.496 167.992 290.589 168.225 290.589 158.251Z" fill="#FF7448"/>
<path d="M292.771 157.852C292.771 157.852 285.207 159.79 283.124 149.324C281.041 138.857 282.826 127.997 288.968 124.863C288.984 125.183 292.771 157.852 292.771 157.852Z" fill="#FF7448"/>
<path d="M289.035 126.226L288.172 108.467L298.013 107.991C298.013 107.991 295.682 116.176 298.65 121.162C299.069 121.138 289.035 126.226 289.035 126.226Z" fill="#FF7448"/>
<path d="M418.097 170.118C418.42 170.133 418.742 170.085 419.046 169.976C419.35 169.867 419.63 169.699 419.869 169.482C420.108 169.264 420.302 169.002 420.44 168.71C420.578 168.418 420.657 168.102 420.672 167.779L422.96 120.614C422.975 120.291 422.928 119.969 422.819 119.665C422.71 119.361 422.542 119.081 422.325 118.842C422.108 118.603 421.846 118.409 421.554 118.271C421.262 118.133 420.946 118.054 420.624 118.038C420.301 118.023 419.978 118.071 419.674 118.18C419.37 118.289 419.091 118.457 418.852 118.674C418.613 118.892 418.419 119.154 418.281 119.446C418.143 119.738 418.064 120.054 418.049 120.377L415.761 167.542C415.745 167.865 415.793 168.187 415.902 168.491C416.011 168.795 416.178 169.075 416.395 169.314C416.612 169.553 416.874 169.747 417.166 169.885C417.458 170.023 417.774 170.102 418.097 170.118Z" fill="#FEC859"/>
<path d="M416 122.538L418.024 120.842L416.877 144.533L415.758 167.615L414.237 166.585C413.996 166.425 413.774 166.237 413.576 166.026C412.552 164.903 411.76 163.589 411.245 162.159C410.73 160.729 410.501 159.212 410.573 157.694L411.224 144.254L411.874 130.814C411.955 129.225 412.364 127.669 413.074 126.245C413.784 124.821 414.78 123.559 416 122.538Z" fill="#FFB93E"/>
<path d="M54 74C54 72.3519 55.8815 71.4111 57.2 72.4L75.8667 86.4C76.9333 87.2 76.9333 88.8 75.8667 89.6L57.2 103.6C55.8815 104.589 54 103.648 54 102V74Z" fill="#E2CEFF" fill-opacity="0.3"/>
</svg>
