<svg width="39" height="24" viewBox="0 0 39 24" fill="none" xmlns="http://www.w3.org/2000/svg">
<g clip-path="url(#clip0_611_15069)">
<path d="M24.6915 2.56665H14.1915V21.4366H24.6915V2.56665Z" fill="#FF5F00"/>
<path d="M14.8576 12C14.8556 10.1829 15.2673 8.38919 16.0614 6.7548C16.8555 5.1204 18.0112 3.68818 19.4409 2.56666C17.6707 1.17486 15.5447 0.309206 13.3058 0.0686574C11.0669 -0.171891 8.80544 0.222372 6.78003 1.20638C4.75461 2.19038 3.04693 3.72442 1.85219 5.63313C0.657448 7.54184 0.0238647 9.7482 0.0238647 12C0.0238647 14.2518 0.657448 16.4581 1.85219 18.3669C3.04693 20.2756 4.75461 21.8096 6.78003 22.7936C8.80544 23.7776 11.0669 24.1719 13.3058 23.9313C15.5447 23.6908 17.6707 22.8251 19.4409 21.4333C18.0112 20.3118 16.8555 18.8796 16.0614 17.2452C15.2673 15.6108 14.8556 13.8171 14.8576 12Z" fill="#EB001B"/>
<path d="M38.8581 12C38.8581 14.2517 38.2245 16.458 37.0298 18.3667C35.835 20.2753 34.1274 21.8093 32.102 22.7933C30.0767 23.7773 27.8154 24.1716 25.5765 23.9311C23.3376 23.6906 21.2116 22.825 19.4415 21.4333C20.6795 20.4581 21.7133 19.2486 22.4838 17.8738C23.2543 16.499 23.7465 14.9859 23.9322 13.4209C24.1179 11.8559 23.9936 10.2696 23.5662 8.75271C23.1388 7.23578 22.4168 5.81789 21.4415 4.58C20.8551 3.83762 20.1838 3.16639 19.4415 2.58C21.2107 1.189 23.3355 0.32359 25.5732 0.0825966C27.8108 -0.158396 30.0712 0.23474 32.0961 1.21711C34.1209 2.19948 35.8287 3.73149 37.0245 5.63818C38.2202 7.54488 38.8556 9.7494 38.8581 12V12Z" fill="#F79E1B"/>
<path d="M37.7214 19.4367V19.05H37.8781V18.97H37.4814V19.05H37.6381V19.4367H37.7214ZM38.4914 19.4367V18.97H38.3714L38.2314 19.3034L38.0914 18.97H37.9681V19.4367H38.0548V19.0834L38.1848 19.3867H38.2748L38.4081 19.0834V19.4367H38.4914Z" fill="#F79E1B"/>
</g>
<defs>
<clipPath id="clip0_611_15069">
<rect width="38.8346" height="24" fill="white" transform="translate(0.0224609)"/>
</clipPath>
</defs>
</svg>
