<svg width="152" height="152" viewBox="0 0 152 152" fill="none" xmlns="http://www.w3.org/2000/svg">
<rect width="152" height="152" rx="8" fill="#B4CAFF"/>
<path d="M1 9C1 4.58172 4.58172 1 9 1H137.334C143.45 1 147.304 7.58352 144.31 12.9163L142.672 15.8337C141.307 18.266 141.307 21.234 142.672 23.6663L148.801 34.5837C150.167 37.016 150.167 39.984 148.801 42.4163L142.672 53.3337C141.307 55.766 141.307 58.734 142.672 61.1663L148.801 72.0837C150.167 74.516 150.167 77.484 148.801 79.9163L142.672 90.8337C141.307 93.266 141.307 96.234 142.672 98.6663L148.801 109.584C150.167 112.016 150.167 114.984 148.801 117.416L142.672 128.334C141.307 130.766 141.307 133.734 142.672 136.166L144.31 139.084C147.304 144.416 143.45 151 137.334 151H9C4.58172 151 1 147.418 1 143V9Z" fill="#60458D"/>
</svg>
