<svg width="410" height="192" viewBox="0 0 410 192" fill="none" xmlns="http://www.w3.org/2000/svg">
<rect x="0.666656" width="408.667" height="192" rx="8" fill="#B4CAFF"/>
<path d="M1.66341 9C1.66341 4.58172 5.24513 1 9.66341 1H216.07C222.488 1 226.294 8.17791 222.691 13.4899L218.1 20.2601C216.262 22.9711 216.262 26.5289 218.1 29.2399L228.116 44.0101C229.955 46.7211 229.955 50.2789 228.116 52.9899L218.1 67.7601C216.262 70.4711 216.262 74.0289 218.1 76.7399L228.116 91.5101C229.955 94.2211 229.955 97.7789 228.116 100.49L218.1 115.26C216.262 117.971 216.262 121.529 218.1 124.24L228.116 139.01C229.955 141.721 229.955 145.279 228.116 147.99L218.1 162.76C216.262 165.471 216.262 169.029 218.1 171.74L222.691 178.51C226.294 183.822 222.488 191 216.07 191H9.66341C5.24513 191 1.66341 187.418 1.66341 183V9Z" fill="#60458D"/>
</svg>
