<svg width="458" height="314" viewBox="0 0 458 314" fill="none" xmlns="http://www.w3.org/2000/svg">
<mask id="mask0_3901_91379" style="mask-type:alpha" maskUnits="userSpaceOnUse" x="0" y="0" width="458" height="314">
<rect width="458" height="314" fill="#C4C4C4"/>
</mask>
<g mask="url(#mask0_3901_91379)">
<path d="M453.841 54.248L432.663 234.848L312.88 220.801L332.182 56.2029L319.705 54.7398C318.994 54.6576 318.292 54.5135 317.605 54.3092C314.636 53.4391 312.07 51.5154 310.366 48.8808C308.661 46.2462 307.929 43.0719 308.298 39.9232L308.615 37.2177L453.841 54.248Z" fill="#F9E216"/>
<path d="M455.083 43.6576L451.965 70.2498L319.705 54.7401C318.994 54.6578 318.291 54.5138 317.605 54.3094C314.635 53.4394 312.07 51.5157 310.366 48.8811C308.661 46.2465 307.928 43.0721 308.298 39.9234C308.404 39.0146 308.601 38.1186 308.883 37.2493C309.725 34.6855 311.302 32.4378 313.407 30.8011C315.513 29.1645 318.048 28.2155 320.681 28.0787C321.396 28.0406 322.113 28.0637 322.824 28.1479L455.083 43.6576Z" fill="#FEF8C4"/>
<path d="M437.747 56.975L329.911 44.3293L329.688 46.2285L437.524 58.8742L437.747 56.975Z" fill="#232323"/>
<path d="M449.478 49.8943L325.455 35.3503L325.232 37.2494L449.256 51.7934L449.478 49.8943Z" fill="#232323"/>
<path d="M332.182 56.2029L312.88 220.801L300.403 219.338C299.693 219.256 298.99 219.12 298.3 218.931C292.493 217.355 288.452 212.302 288.762 206.721C288.77 206.503 288.789 206.285 288.817 206.047L308.298 39.9231C307.929 43.0718 308.661 46.2462 310.366 48.8807C312.07 51.5153 314.636 53.439 317.605 54.3091C318.292 54.5134 318.994 54.6575 319.705 54.7397L332.182 56.2029Z" fill="#1C1314"/>
<path d="M36.6974 87.7426L38.3515 124.847C32.0442 125.178 26.5596 117.143 26.1025 106.897C25.6454 96.6517 30.3912 88.065 36.6974 87.7426Z" fill="#B4CAFF"/>
<path d="M39.7445 86.5637C38.8589 71.7588 40.8806 59.0633 45.7553 48.811C50.0766 39.7203 56.7166 32.6459 64.9562 28.3571C73.0045 24.1665 82.2868 22.6658 91.8006 24.0272C101.079 25.3334 109.799 29.2811 116.97 35.4221C123.987 41.4083 129.094 49.4085 131.642 58.4044C134.481 68.4729 134.149 79.5301 130.652 91.2692L128.212 90.5201C134.546 69.2507 129.849 49.9 115.324 37.4298C101.286 25.3765 81.5056 22.6664 66.1021 30.6856C56.2714 35.8038 40.0993 49.8482 42.2925 86.3886L39.7445 86.5637Z" fill="#5385E5"/>
<path d="M42.499 128.223C41.9761 128.25 41.4536 128.171 40.9616 127.991C40.4696 127.81 40.0176 127.532 39.6315 127.172C39.2454 126.812 38.9328 126.378 38.7114 125.893C38.4901 125.408 38.3643 124.883 38.3415 124.347L36.7823 88.1119C36.7588 87.5761 36.8387 87.0403 37.0174 86.535C37.196 86.0298 37.47 85.565 37.8235 85.1672C38.1771 84.7695 38.6033 84.4467 39.0778 84.2172C39.5523 83.9877 40.0658 83.856 40.5889 83.8298C41.1119 83.8029 41.6343 83.8819 42.1263 84.0621C42.6183 84.2423 43.0703 84.5203 43.4564 84.8802C43.8425 85.2401 44.1551 85.6749 44.3765 86.1596C44.5978 86.6443 44.7236 87.1695 44.7465 87.7052L46.3056 123.941C46.3519 125.022 45.9769 126.081 45.2631 126.884C44.5493 127.687 43.5551 128.169 42.499 128.223Z" fill="#5385E5"/>
<path d="M133.575 92.6719L128.633 129.506C134.888 130.351 141.067 122.79 142.432 112.618C143.796 102.445 139.833 93.5175 133.575 92.6719Z" fill="#B4CAFF"/>
<path d="M124.211 132.544C125.257 132.682 126.317 132.388 127.157 131.727C127.996 131.067 128.548 130.093 128.69 129.021L133.461 93.0424C133.602 91.9695 133.321 90.886 132.681 90.0294C132.041 89.1729 131.095 88.6132 130.049 88.4732C129.002 88.337 127.943 88.6315 127.104 89.2921C126.264 89.9528 125.712 90.9259 125.569 91.9984L120.8 127.977C120.66 129.049 120.94 130.132 121.58 130.988C122.219 131.844 123.165 132.404 124.211 132.544Z" fill="#5385E5"/>
<path d="M145.083 251.413C141.86 251.039 138.675 250.392 135.559 249.48C120.569 245.072 108.326 234.642 100.145 219.317L102.388 218.044C120.594 252.19 153.979 253.536 177.035 244.312C201.316 234.602 224.018 209.545 216.489 177.483C208.199 142.18 208.042 110.045 216.022 81.9804C222.722 58.4105 235.201 38.1689 252.118 23.4351C263.597 13.4352 276.651 6.36902 289.868 2.99737C302.412 -0.200877 314.376 0.225795 323.583 4.204C334.638 8.98033 341.144 18.5793 341.905 31.2304L339.357 31.4055C338.65 19.6231 332.848 11.0502 322.575 6.61783C313.877 2.85951 302.474 2.47681 290.464 5.54016C277.629 8.81395 264.936 15.6919 253.757 25.4288C236.194 40.7275 197.649 86.1077 218.962 176.873C222.449 191.722 219.846 206.51 211.434 219.641C203.811 231.54 191.918 241.173 177.945 246.762C167.144 251.082 155.765 252.666 145.083 251.413Z" fill="#5385E5"/>
<path d="M101.146 219.981C99.9385 219.839 89.0244 217.151 78.0858 209.816C71.7364 205.561 66.6854 200.58 63.0719 195.022C58.5608 188.084 56.3039 180.247 56.3634 171.728C56.4954 152.844 51.6337 137.527 41.9164 126.202L43.8317 124.47C53.9727 136.287 59.0463 152.189 58.9099 171.73C58.81 186.215 65.6468 198.232 79.2199 207.446C87.943 213.36 96.9864 216.287 100.224 217.128C99.8809 213.213 99.7398 202.572 115.531 176.481C121.901 165.958 121.831 159.041 121.749 151.031C121.694 145.319 121.628 138.87 123.941 130.336L126.398 131.023C124.184 139.198 124.242 145.193 124.301 150.99C124.382 159.057 124.458 166.677 117.697 177.847C110.793 189.274 106.189 198.984 104.04 206.708C102.351 212.791 102.663 215.911 102.813 217.412C102.894 218.231 102.965 218.939 102.434 219.511C102.274 219.679 102.08 219.809 101.866 219.892C101.653 219.975 101.424 220.009 101.196 219.991L101.146 219.981Z" fill="#5385E5"/>
<path d="M339.66 28.3778L342.274 28.6843C343.313 28.8062 344.26 29.3463 344.906 30.1858C345.553 31.0254 345.846 32.0955 345.721 33.161L344.265 45.5805L333.815 44.355L335.271 31.9355C335.396 30.8701 335.929 29.8967 336.752 29.2295C337.575 28.5623 338.621 28.256 339.66 28.3778Z" fill="#5385E5"/>
<path d="M370.841 117.738C371.021 116.1 372.994 115.369 374.197 116.496L398.956 139.68C399.929 140.591 399.755 142.182 398.607 142.861L369.418 160.138C368 160.978 366.232 159.838 366.411 158.199L370.841 117.738Z" fill="#FEF8C4"/>
<path d="M99.1696 170.737C105.762 169.755 124.134 158.947 125.887 154.428C128.378 147.982 130.629 140.527 133.865 125.035C135.908 125.197 139.009 125.309 139.009 125.309C139.739 135.869 138.889 148.753 136.503 160.916C135.291 167.079 119.69 180.95 110.718 189.812C106.809 183.596 99.1696 170.737 99.1696 170.737Z" fill="#2ED0C7"/>
<path d="M91.6284 172.134C86.0981 171.811 80.5508 171.937 75.0408 172.51C69.558 179.302 82.2998 183.6 91.6284 172.134Z" fill="#E19100"/>
<path d="M79.2592 180.013C83.09 177.658 80.0419 168.604 79.4737 165.612C78.7211 161.604 79.3947 141.412 79.3947 141.412C69.9494 147.395 60.4401 164.957 66.3068 174.576C64.7202 175.368 63.3942 176.598 62.4863 178.121C61.5784 179.644 61.1266 181.396 61.1847 183.168C61.2427 184.941 61.8082 186.659 62.8138 188.119C63.8195 189.58 65.2232 190.721 66.8581 191.407C68.4931 192.094 70.2907 192.297 72.0375 191.992C73.7843 191.687 75.4069 190.887 76.7126 189.687C78.0184 188.488 78.9524 186.938 79.4038 185.224C79.8552 183.509 79.805 181.7 79.2592 180.013Z" fill="#1C1314"/>
<path d="M65.2569 236.237C51.6685 259.907 51.962 349.787 51.962 386.334H58.4345C62.0771 377.273 93.4497 253.472 95.9145 236.237H65.2569Z" fill="#E13600"/>
<path d="M104.919 236.237C120.608 260.983 120.499 349.644 120.499 386.191H114.015C110.372 377.13 78.1792 253.472 75.7181 236.237H104.919Z" fill="#F14008"/>
<path d="M139.002 125.321C140.371 123.402 144.499 116.865 143.799 115.951C143.1 115.037 141.293 118.525 140.507 118.378C139.72 118.231 140.943 110.551 140.247 108.681C140.145 108.339 139.976 108.021 139.75 107.746C139.523 107.47 139.244 107.242 138.929 107.075C138.614 106.909 138.269 106.806 137.913 106.774C137.558 106.743 137.2 106.782 136.86 106.89C135.615 107.266 132.917 110.002 132.582 114.115C132.247 118.228 134.241 122.465 133.857 125.027C136.921 125.784 139.002 125.321 139.002 125.321Z" fill="#F8E2E2"/>
<path d="M71.8874 173.706C65.7235 171.366 51.0513 159.151 48.357 155.128C47.1265 153.292 47.1867 142.375 44.9702 127.688C42.9269 127.816 40.1987 127.974 40.1987 127.974C38.4639 136.629 35.7545 148.106 38.5956 160.167C40.0369 166.282 55.9734 183.001 63.778 192.905C68.4329 187.223 71.8874 173.706 71.8874 173.706Z" fill="#18B9B0"/>
<path d="M104.919 236.237H65.2568C67.891 209.775 58.1785 203.747 62.3329 194.181C66.8674 183.739 67.6614 181.684 71.8873 173.706C79.4586 173.262 86.7477 174.779 98.1083 167.99C102.511 171.591 106.282 176.25 108.867 184.657C109.42 197.03 100.829 211.8 104.919 236.237Z" fill="#2ED0C7"/>
<path d="M93.6077 172.867C88.1609 172.667 82.7068 172.907 77.2987 173.586C72.0454 180.382 84.6705 184.337 93.6077 172.867Z" fill="#E19100"/>
<path d="M89.2276 173.82C88.6067 169.176 90.206 165.251 91.7489 162.719C91.7489 162.719 96.0801 156.63 95.971 150.425C95.828 142.504 83.2895 140.521 79.6958 142.342C75.0635 145.066 74.3447 149.191 73.3362 154.662C73.3362 154.662 71.116 159.75 71.0784 160.092C71.0144 160.589 72.5836 160.548 72.64 160.792C72.6965 161.037 72.1847 164.119 73.1104 165.447C74.0361 166.775 77.1068 166.467 78.0024 167.069C79.4211 168.002 81.0505 169.526 78.676 173.127C75.5 179.735 82.5933 179.16 89.2276 173.82Z" fill="#F8E2E2"/>
<path d="M116.931 187.25C117.744 186.187 118.294 184.946 118.534 183.63C118.775 182.313 118.701 180.959 118.317 179.677C117.934 178.395 117.252 177.222 116.327 176.254C115.403 175.286 114.262 174.551 112.999 174.109L112.694 173.997C108.111 172.574 99.8583 166.44 99.2411 157.725C98.5261 147.674 96.2307 142.297 89.9539 140.502C83.6771 138.707 78.5142 140.716 77.2385 144.088C75.5677 153.567 78.4803 156.201 82.2848 156.882C85.7054 157.488 87.0864 160.22 86.0215 162.832C85.0883 165.123 86.0441 169.605 87.0526 172.315C83.8502 174.949 80.7532 183.035 84.9039 188.078C86.2091 189.719 88.0071 190.898 90.0329 191.44C92.0587 191.982 94.205 191.859 96.1554 191.088C95.6368 193.001 95.6115 195.013 96.0819 196.938C96.5522 198.862 97.5029 200.636 98.845 202.094C100.187 203.551 101.877 204.644 103.756 205.271C105.636 205.898 107.643 206.039 109.592 205.679C111.54 205.32 113.365 204.472 114.897 203.216C116.429 201.959 117.617 200.335 118.351 198.494C119.084 196.654 119.339 194.657 119.091 192.692C118.844 190.726 118.102 188.855 116.935 187.254L116.931 187.25Z" fill="#3E3839"/>
</g>
</svg>
