<svg width="52" height="46" viewBox="0 0 52 46" fill="none" xmlns="http://www.w3.org/2000/svg">
<g clip-path="url(#clip0_3901_7229)">
<path d="M52 41.145H51.8338V41.3127H52V41.145Z" fill="#56000F"/>
<path fill-rule="evenodd" clip-rule="evenodd" d="M0 9.04756V36.8338C0.0592785 37.385 -0.145292 38.7101 0.641601 39.66C1.66096 40.8926 2.51643 41.1083 4.31106 41.4191C6.53342 41.6935 10.3342 41.554 13.0878 41.6888C15.7611 41.8202 18.0613 42.668 20.6161 43.9088C21.4298 44.277 22.2073 44.7297 23.0372 45.0709L22.5921 44.6089C18.9354 41.1529 14.056 39.9016 9.2149 39.5662C7.25987 39.4841 4.12857 39.6952 2.61639 38.1848C2.14216 37.7098 1.76557 36.8948 1.76557 35.6259V7.39404C0.919398 7.75055 0.470741 8.35332 0 9.04756Z" fill="white"/>
<path fill-rule="evenodd" clip-rule="evenodd" d="M51.9814 9.04756V36.8338C51.9233 37.385 52.1267 38.7101 51.3398 39.66C50.3216 40.8926 49.4661 41.1083 47.6715 41.4191C45.448 41.6935 41.6483 41.554 38.8936 41.6888C36.2203 41.8202 33.9201 42.668 31.3664 43.9088C30.5528 44.277 29.774 44.7297 28.9453 45.0709L29.3905 44.6089C33.046 41.1529 37.9266 39.9016 42.7676 39.5662C44.7227 39.4841 47.854 39.6952 49.365 38.1848C49.8404 37.7098 50.217 36.8948 50.217 35.6259V7.39404C51.0585 7.75055 51.5106 8.35332 51.9814 9.04756Z" fill="white"/>
<path fill-rule="evenodd" clip-rule="evenodd" d="M3.89843 2.45375C3.72641 13.4983 3.62412 24.5383 3.88913 35.5817C3.91005 36.4741 4.59698 37.037 5.39201 37.1062L6.82284 37.2235L8.83714 37.3408C10.1924 37.4217 10.9781 37.5753 13.8909 38.1523C15.531 38.4337 19.369 39.7683 22.0458 41.8604C23.3662 42.9029 24.8016 44.1777 24.8016 44.1777V10.1033C21.4774 4.12251 14.3407 0.770896 5.50709 0.949148C3.83102 0.980812 3.90424 2.1207 3.89843 2.45375Z" fill="white"/>
<path fill-rule="evenodd" clip-rule="evenodd" d="M5.67566 4.91407C5.53269 14.2571 5.4432 23.5942 5.66752 32.9419C5.68496 33.6971 6.24868 34.1732 6.91237 34.2319L8.0991 34.3304L9.7682 34.4277C10.8898 34.4957 11.5407 34.6236 13.9526 35.1137C15.3113 35.3483 18.4926 36.4811 20.7091 38.2508C21.8041 39.1326 22.9931 40.2115 22.9931 40.2115V11.3933C20.2396 6.33071 14.3233 3.49978 7.00536 3.6534C5.61987 3.66865 5.68031 4.63262 5.67566 4.91407Z" fill="#1F4BB0"/>
<path fill-rule="evenodd" clip-rule="evenodd" d="M48.0841 2.45921C48.2561 13.505 48.3596 24.5437 48.0946 35.5872C48.0725 36.4796 47.3856 37.0425 46.5917 37.1117L45.1597 37.229L43.1454 37.3462C41.7913 37.426 41.0056 37.5808 38.0916 38.1566C36.4528 38.438 32.6136 39.7726 29.9379 41.8647C28.6164 42.9084 27.1809 44.1831 27.1809 44.1831V10.103C30.5052 4.12212 37.6418 0.770517 46.4755 0.947597C48.1527 0.986297 48.0795 2.12851 48.0841 2.45921Z" fill="white"/>
<path fill-rule="evenodd" clip-rule="evenodd" d="M46.3081 4.91954C46.4499 14.2625 46.5406 23.6008 46.3162 32.9474C46.2976 33.7014 45.7293 34.1775 45.0702 34.2373L43.8847 34.3358L42.2156 34.4343C41.0928 34.5012 40.4419 34.6302 38.0312 35.1204C36.6736 35.3549 33.4981 36.4866 31.2746 38.2562C30.1809 39.1393 28.9907 40.217 28.9907 40.217V11.3929C31.7454 6.32913 37.6616 3.49821 44.9784 3.65301C46.3639 3.67411 46.3035 4.63809 46.3081 4.91954Z" fill="#1F4BB0"/>
<path fill-rule="evenodd" clip-rule="evenodd" d="M35.8937 25.7189L21.5762 33.9666C20.2512 34.4838 18.6204 33.1867 18.6181 31.8721C18.6181 26.3768 18.6181 20.8811 18.6181 15.385C18.6344 14.3577 20.3256 13.0302 21.8273 13.7971L35.4718 21.8161C37.3594 22.8329 36.9514 25.0587 35.8937 25.7189Z" fill="#1F4BB0" stroke="white" stroke-width="3" stroke-linecap="round" stroke-linejoin="round"/>
</g>
<defs>
<clipPath id="clip0_3901_7229">
<rect width="52" height="44.1212" fill="white" transform="translate(0 0.939453)"/>
</clipPath>
</defs>
</svg>
