<svg width="75" height="24" viewBox="0 0 75 24" fill="none" xmlns="http://www.w3.org/2000/svg">
<g clip-path="url(#clip0_611_15092)">
<path d="M29.0082 0.424204L19.3014 23.6369H12.9684L8.19165 5.11366C7.90164 3.97265 7.65103 3.55464 6.7675 3.07393C5.32753 2.29093 2.94958 1.55631 0.859314 1.09999L1.00142 0.425364H11.1959C12.4954 0.425364 13.6635 1.29235 13.9585 2.79216L16.4813 16.2227L22.7161 0.423429H29.0105L29.0082 0.424204ZM53.8218 16.0582C53.8473 9.93162 45.3696 9.5945 45.4279 6.85731C45.4461 6.02438 46.2388 5.13882 47.9692 4.91279C48.8276 4.80015 51.1928 4.71423 53.8774 5.95162L54.9297 1.02916C53.4881 0.504708 51.6334 0 49.3258 0C43.4041 0 39.2367 3.15521 39.2015 7.6732C39.1629 11.015 42.1749 12.8798 44.4459 13.9902C46.781 15.1273 47.5645 15.8581 47.5556 16.8752C47.539 18.4323 45.6932 19.1201 43.9682 19.1468C40.9562 19.1933 39.2096 18.3301 37.8168 17.6811L36.7309 22.7665C38.1307 23.4101 40.7145 23.9717 43.3932 24C49.6876 24 53.8044 20.8839 53.8237 16.0582H53.8218ZM69.4607 23.6369H75.0017L70.1624 0.424204H65.0489C64.5027 0.419486 63.9678 0.579312 63.5133 0.882967C63.0589 1.18662 62.706 1.6201 62.5003 2.12721L53.5102 23.6369H59.801L61.0491 20.1698H68.7355L69.4607 23.6369ZM62.776 15.4122L65.9293 6.69668L67.7442 15.4122H62.776ZM37.5681 0.424204L32.6141 23.6369H26.6233L31.5792 0.424204H37.5681Z" fill="#1434CB"/>
</g>
<defs>
<clipPath id="clip0_611_15092">
<rect width="74.1429" height="24" fill="white" transform="translate(0.857117)"/>
</clipPath>
</defs>
</svg>
