<svg width="132" height="132" viewBox="0 0 132 132" fill="none" xmlns="http://www.w3.org/2000/svg">
<circle cx="66" cy="66" r="66" fill="#92B4F6"/>
<circle cx="66" cy="66" r="33" fill="white"/>
<path d="M73.1016 48.1576C73.0341 48.12 72.9766 48.0669 72.9335 48.0027C72.8905 47.9386 72.8632 47.8652 72.854 47.7885C72.8447 47.7118 72.8536 47.634 72.8801 47.5615C72.9066 47.4889 72.9498 47.4236 73.0063 47.371H72.9358L73.1192 46.997L72.7171 47.0817V46.4467L73.1227 46.5067L73.0769 46.1186H73.6695L73.6166 46.5208L74.0152 46.4679V47.0605L73.6201 47.0006L73.7965 47.3533H73.7189C73.8064 47.4346 73.8647 47.5425 73.8847 47.6602C73.8804 47.837 73.8099 48.0057 73.6872 48.1329C73.6872 48.1753 73.7542 48.3587 73.8247 48.3587C73.8882 48.0483 74.3609 48.0941 74.8195 48.3199L74.8548 48.3411C75.2445 48.5092 75.5516 48.8251 75.7085 49.2195C75.8955 49.9991 75.2252 50.6623 75.1511 51.4207C75.3161 51.382 75.476 51.324 75.6274 51.2479C76.594 50.8281 77.4794 50.6517 77.0702 49.4099C76.9714 49.1136 76.7174 48.5951 76.5234 48.0765H76.7351L76.7033 46.4009C76.982 46.1963 77.3383 46.0481 77.5782 45.8893C78.4389 45.3461 78.8093 45.1556 79.5325 46.0869C79.6172 46.1927 80.1887 46.9124 80.238 46.9441C80.746 47.2969 81.9348 46.9194 82.2735 48.2352C82.5416 49.2724 81.06 49.5934 81.5115 50.2531C81.5997 50.3836 81.8184 50.2919 82.0019 50.2531C83.2507 49.8721 83.1342 51.3114 82.5592 51.7594C82.4922 51.8088 82.4287 51.9075 82.337 51.9252C82.337 51.8405 82.4852 51.5548 82.4252 51.3431C82.4252 51.2832 82.3723 51.2408 82.3617 51.1738C81.8467 51.1738 81.4868 51.4878 80.9506 51.2761C80.7566 51.1985 80.6649 51.0045 80.492 50.9233C80.492 51.5301 81.2717 51.7594 80.9647 52.6237C80.8758 52.863 80.7104 53.0664 80.4942 53.2022C80.278 53.3381 80.0231 53.3988 79.7689 53.3751C79.9433 53.2032 80.0656 52.9855 80.1216 52.7471C80.3615 51.844 78.8234 51.5724 79.5607 49.8121C79.85 49.1066 80.2098 48.8103 79.9135 48.0201C79.8948 47.9338 79.8588 47.8521 79.8077 47.7802C79.6278 47.6073 79.1374 47.5862 78.8905 47.4627C78.6476 47.3084 78.3838 47.1896 78.1073 47.1099C78.0307 47.2498 77.9883 47.4057 77.9833 47.5651C77.9784 47.7245 78.0113 47.8828 78.0791 48.0271C78.3084 48.6938 78.7388 49.7521 78.3013 50.433C77.9803 50.9374 76.8162 51.4419 76.1847 51.523C75.9323 51.5492 75.6814 51.5893 75.4334 51.643C75.4334 52.1509 75.9025 51.6641 76.0366 52.2921C76.5363 52.2932 77.0228 52.4525 77.4265 52.7471C77.649 52.9236 77.8146 53.1616 77.9027 53.4315C77.9927 53.8024 77.9927 54.1894 77.9027 54.5604C77.7969 54.8602 77.55 55.026 77.3877 55.2659C77.243 55.125 77.0898 54.9931 76.9291 54.8708C76.3647 54.518 74.9218 54.6344 74.7066 54.9731C75.8849 54.9519 76.2835 55.3259 77.4653 55.6151C77.8233 55.6946 78.1978 55.6459 78.5236 55.4775C78.6803 55.3242 78.8061 55.1422 78.894 54.9413C79.4408 55.1989 78.3296 57.2731 76.6786 56.4512C76.0436 56.1372 75.6909 55.5798 74.8795 55.5305C75.384 55.7598 75.9696 55.9361 75.9802 56.5535C75.9661 56.7279 75.9052 56.8953 75.804 57.0381C75.7029 57.1809 75.5651 57.2938 75.4051 57.3649C75.4086 57.1427 75.3595 56.9229 75.262 56.7233C75.1644 56.5237 75.0211 56.3499 74.8437 56.2162C74.6663 56.0825 74.4598 55.9925 74.241 55.9536C74.0223 55.9148 73.7975 55.9281 73.5849 55.9926C73.2321 56.0878 73.1369 56.1549 72.7206 56.2572C72.5407 56.2995 72.322 56.176 72.1879 56.1584C72.1032 56.243 71.9868 56.3101 71.8916 56.4194C71.4177 56.9665 71.0429 57.5921 70.7839 58.2679C70.604 58.723 70.4911 59.7143 70.7028 60.2046C70.7824 60.444 70.9137 60.663 71.0875 60.8459C71.2612 61.0288 71.4731 61.1712 71.7081 61.2629C72.1209 61.3758 72.4983 61.0548 72.8229 60.9983C72.8441 61.7638 72.449 62.3212 71.7646 62.3318C71.5176 62.3318 71.4541 62.2789 71.2742 62.2789C71.6348 62.6293 72.1065 62.8427 72.6077 62.8821C73.606 62.8821 73.4085 62.3777 73.7824 62.2401C73.8318 62.3812 74.5902 63.2419 73.8918 64.2015C73.7542 64.392 73.1122 64.6177 73.0698 64.7165C73.3309 65.0721 73.7115 65.3217 74.1417 65.4196C74.5719 65.5174 75.023 65.4569 75.4122 65.2492C76.2165 64.8541 76.4352 64.5048 76.4528 64.145C76.5128 62.9315 74.8584 62.4694 75.3416 61.2241C75.6852 60.4384 76.1844 59.7303 76.8091 59.1428C77.1619 58.79 77.8957 58.1092 78.1673 57.7317C78.4687 57.3429 78.7963 56.9751 79.148 56.6311C79.2785 56.497 79.2997 56.6875 79.3949 56.8604C79.4161 56.8992 79.4231 56.9627 79.4761 56.9733C79.6699 56.8615 79.841 56.7143 79.9805 56.5394C80.3268 56.1363 80.6328 55.7003 80.8942 55.2377C81.0847 54.9131 81.187 54.5321 81.3739 54.1794C81.5139 54.2543 81.6413 54.3507 81.7514 54.4651C82.1994 54.1476 83.3353 52.0698 83.6493 51.5548C83.7939 51.3149 83.9633 51.0856 84.1079 50.8492C84.376 50.4048 85.0357 49.1595 85.2544 48.6339C85.3888 48.3295 85.542 48.0338 85.713 47.7484C86.5808 48.0448 87.0076 49.3606 86.8806 50.2919C86.6937 51.6677 86.4608 52.0557 85.7765 53.174C85.5116 53.6889 85.1756 54.1639 84.7782 54.585C84.7782 54.585 84.7993 54.6062 84.8099 54.585C85.2015 54.2852 86.8136 52.4684 87.5968 51.8828C87.6967 51.8218 87.7912 51.7522 87.879 51.6747C88.0523 51.9693 88.1908 52.283 88.2917 52.6095C88.3863 53.1853 88.3366 53.7756 88.1471 54.3275C87.8554 55.0853 87.3382 55.7355 86.6654 56.1901C86.8524 56.243 88.0165 55.5622 88.9161 55.6504C88.9677 55.6661 89.021 55.6756 89.0748 55.6786C89.1172 56.7863 88.775 57.3225 88.0836 58.0598C87.9213 58.2362 87.4909 58.5431 87.4133 58.6807C87.8578 58.6807 88.3058 58.4725 88.7679 58.5078C89.0466 58.5643 89.3571 58.6066 89.6428 58.6383C89.6074 58.9434 89.5178 59.2396 89.3782 59.5132C88.909 60.4551 88.1894 60.7761 87.3816 61.2135C87.3319 61.2484 87.2787 61.278 87.2228 61.3017C87.8966 61.3017 88.7362 61.2206 89.3394 61.524C89.4064 61.5557 89.604 61.6192 89.6146 61.6898C89.3606 61.9826 89.6569 62.8045 87.7343 63.637C87.4926 63.7257 87.2435 63.793 86.99 63.8381C87.1381 63.8381 87.9566 64.085 88.0483 64.1203C88.4727 64.2904 88.8544 64.5518 89.1666 64.8858C88.8879 65.4997 88.2282 65.8312 87.5262 66.0429C87.3287 66.1029 87.117 66.0993 86.8983 66.1487C87.1241 66.4486 88.1682 66.7449 88.2388 67.5598C87.9249 67.8464 87.54 68.0437 87.124 68.1313C86.4185 68.3006 85.9282 68.0043 85.3108 67.9972C85.5401 68.2724 86.2386 68.1454 86.7219 69.1966C86.8647 69.4945 86.9508 69.8163 86.9759 70.1456C86.7431 70.2197 86.0869 70.8829 84.9686 70.4172C84.3795 70.1703 83.1519 69.1331 82.979 69.0802C82.979 69.0802 82.979 69.0802 82.9543 69.112C83.5011 69.5 85.0004 70.4842 85.1697 71.1122C85.2085 71.2568 85.0462 71.7859 85.0498 72.2798C84.57 72.2798 84.0444 72.5656 83.5611 72.3786C83.2083 72.241 82.8909 71.7718 82.6651 71.479C82.3723 71.0981 81.9807 70.7947 81.6879 70.4207C81.5152 70.1698 81.3217 69.9337 81.1094 69.7152C80.9236 69.5454 80.7579 69.3548 80.6155 69.1472C80.8194 69.4555 81.0433 69.7501 81.2858 70.0292C81.8438 70.7403 82.3632 71.481 82.8415 72.2481C83.0637 72.7596 82.5099 73.8602 82.4146 73.839C81.9172 73.7297 81.2787 73.9061 80.9118 73.4404C80.2592 72.6044 79.8888 71.5108 79.275 70.6183C79.2338 70.5347 79.1776 70.4594 79.1092 70.3961C79.1092 70.8864 80.6367 73.0771 80.4285 73.7438C80.244 74.1021 79.9855 74.4171 79.6701 74.6681C79.4831 74.5093 78.7282 74.4776 78.513 74.3153C78.0615 73.9943 77.6734 71.927 77.3454 71.2462C77.3454 71.218 77.3065 71.2004 77.296 71.1686C77.296 71.6978 77.6946 73.19 77.624 73.4157C77.4935 73.8567 76.9714 74.0013 76.6292 74.2588C76.5975 74.2835 76.5798 74.3223 76.5375 74.3364C76.3223 74.1918 75.585 74.1671 75.3311 73.4369C75.1229 72.8301 75.1582 71.853 75.1441 71.2074H75.1264C75.0771 71.285 74.9677 71.3097 74.9148 71.3838C74.5163 71.2308 74.1448 71.0152 73.8142 70.7453C73.7013 70.9217 73.6836 70.7982 73.5037 71.2321C73.1756 72.0223 73.151 73.3734 73.6378 74.1424C73.7189 74.273 73.8494 74.3647 73.9376 74.4952C73.7118 74.4952 73.4825 74.4317 73.2321 74.4317C73.2321 74.7845 74.0717 75.3489 74.9959 75.0984C75.1089 75.0549 75.2279 75.0288 75.3487 75.0208C75.3487 75.0737 75.264 75.3312 75.264 75.4124C75.6809 75.5 76.0819 75.6511 76.4528 75.8604C77.4618 76.5659 77.4159 77.5219 77.2219 78.7319C77.1831 78.9789 77.4724 79.568 77.7264 79.4904C77.9114 79.4476 78.1008 79.4263 78.2908 79.4269C78.2382 79.6078 78.1482 79.7757 78.0266 79.9197C77.9051 80.0637 77.7548 80.1806 77.5852 80.2629C77.309 80.3265 77.0219 80.3265 76.7457 80.2629C76.5199 80.1924 76.2765 79.9102 76.1389 79.9102C76.0905 80.3091 76.163 80.7134 76.347 81.0708C76.3826 81.1238 76.4122 81.1806 76.4352 81.2401C76.2717 81.2626 76.1052 81.2466 75.949 81.1933C75.7928 81.14 75.6513 81.0509 75.5357 80.9332C75.4812 80.902 75.4293 80.8666 75.3804 80.8274C75.3587 80.9198 75.3242 81.0089 75.2781 81.0919C75.1165 80.9737 74.9427 80.8732 74.7596 80.7921C74.7568 80.9525 74.7867 81.1118 74.8473 81.2604C74.9079 81.409 74.9981 81.5437 75.1123 81.6564C75.9625 82.2737 77.3489 82.6265 78.4601 82.8064C79.0986 82.9087 79.7547 82.7252 79.8959 82.2172C79.9594 81.995 79.7195 81.7234 79.5219 81.4306C79.4462 81.3211 79.3846 81.2026 79.3385 81.0778C79.3093 80.9976 79.295 80.9127 79.2961 80.8274C79.3097 80.6498 79.3627 80.4774 79.4514 80.3229C79.5149 80.1994 79.589 80.0865 79.6419 79.9701C79.6948 79.8537 79.783 79.6174 79.8394 79.4727V79.4445C80.0442 78.8054 80.493 78.2729 81.0882 77.9629C81.441 77.7336 81.7937 77.7265 82.0301 77.4196C82.1138 77.3045 82.1792 77.1772 82.2241 77.0422C82.0124 77.0969 81.8058 77.1701 81.6068 77.2609C81.6068 76.7458 81.6068 76.707 81.5856 76.2026C81.6773 76.2026 82.2911 76.58 82.2911 76.4284C82.249 76.1732 82.1475 75.9315 81.9948 75.7228L83.1342 75.7017C82.9871 75.8958 82.8913 76.1239 82.8556 76.3649C82.8556 76.4389 82.9296 76.4107 82.9579 76.4001C83.1237 76.3331 83.5046 76.1673 83.5258 76.1532C83.5258 76.6471 83.5258 76.7212 83.5258 77.2115C83.3178 77.1577 83.1139 77.0893 82.9155 77.0069C82.9155 77.1374 83.166 77.4232 83.2683 77.4902C84.1361 78.1181 84.891 78.1428 85.4414 79.4057C85.5119 79.568 85.5366 79.7585 85.6071 79.9066C85.6567 80.0199 85.7121 80.1306 85.773 80.2382C85.8783 80.3852 85.945 80.5562 85.967 80.7356C85.9565 80.9083 85.8978 81.0745 85.7976 81.2154C85.7024 81.3777 85.6142 81.5682 85.526 81.7269C85.3743 82.0912 85.1443 82.4175 84.8522 82.6829C84.4995 82.951 84.4995 83.4272 84.309 83.5648C84.055 83.7553 83.6599 83.7871 83.3918 83.9634C82.9614 84.2457 82.9473 84.542 82.3335 84.4185C81.7197 84.2951 81.3845 84.8136 80.9224 84.9441C80.6649 85.0112 80.4285 84.8136 80.2804 84.729C79.9646 84.6277 79.6616 84.4904 79.3773 84.3197C78.065 83.519 77.7793 83.72 76.4634 83.5049C75.9766 83.392 75.5251 83.2861 75.0524 83.1521C74.2551 82.9757 73.4367 83.0004 72.6289 82.884C71.4083 82.7147 72.4595 82.2737 72.449 81.1942C72.1632 81.1942 71.9727 81.3812 71.5882 81.2718C71.3222 81.2185 71.0802 81.0816 70.8974 80.881C70.7147 80.6805 70.6008 80.4269 70.5722 80.1571C70.9532 80.1571 71.7469 80.6827 72.0609 79.8714C72.156 79.5321 72.1299 79.1703 71.9868 78.8483C71.6623 78.1428 70.4699 78.0476 69.842 78.4532C69.2141 78.8589 68.5332 80.0618 68.9742 80.7462C69.5809 81.6881 70.5581 81.2542 70.6287 82.7852C70.6004 82.7499 70.0678 82.3407 70.0219 82.3125C69.7675 82.223 69.4958 82.194 69.2282 82.2278C69.2952 82.2702 69.3481 82.3372 69.4151 82.3795C70.1207 82.817 70.925 82.9475 71.6199 83.3567C72.396 83.8118 73.4755 84.8912 74.0893 84.6866C74.5373 84.5349 74.4703 83.9811 74.2093 83.713C74.5126 83.3391 75.6203 83.9881 75.6591 85.0747C75.6718 85.2169 75.6457 85.3599 75.5836 85.4885C75.5215 85.6171 75.4256 85.7264 75.3064 85.8049C75.2634 85.8518 75.2234 85.9013 75.1864 85.9531C75.1864 85.9777 76.3858 86.6198 76.0436 87.7169C75.7685 88.5918 75.5603 88.3695 75.3734 88.8422C75.2922 89.0398 75.4122 89.2655 75.4157 89.4948C75.1088 89.4948 74.7772 89.1209 74.6643 88.8775C74.5867 88.7011 74.5162 88.172 74.3539 88.0697C74.3821 89.4384 72.8088 90.539 71.5953 89.7277C71.5293 89.6658 71.4558 89.6125 71.3766 89.5689C71.0979 89.7947 70.9285 90.2744 70.5863 90.532C69.8314 91.0823 69.0659 90.987 68.2546 90.5813C68.0852 91.1458 67.549 91.5233 67.0904 91.8513C67.0375 91.8901 67.0305 91.9395 66.9634 91.9395C66.8964 91.9395 66.8894 91.8866 66.8505 91.8584C66.8117 91.8301 66.7024 91.7772 66.6354 91.7384C66.1929 91.4724 65.8356 91.0857 65.6053 90.6237C65.3028 90.8192 64.9582 90.9401 64.5999 90.9764C64.3121 91.0017 64.0221 90.9678 63.7479 90.8768C63.4737 90.7858 63.221 90.6397 63.0054 90.4473C62.7954 90.2225 62.6108 89.9753 62.4551 89.71C62.2649 89.9033 62.0298 90.0464 61.7707 90.1263C60.783 90.4791 59.4636 89.6042 59.4354 88.3307C59.132 88.8951 59.2625 89.5865 58.4441 89.7876C58.4441 89.5054 58.5464 89.322 58.3841 89.0257C58.1407 88.5847 57.4705 88.0943 57.7209 87.29C57.8742 86.8591 58.1609 86.4884 58.5394 86.2317C58.4512 85.9883 57.8797 85.9072 58.0667 85.0676C58.1936 84.4996 58.7722 83.6248 59.453 83.9458C59.2696 84.3339 59.1003 84.803 59.6823 84.9336C60.2644 85.0641 61.2874 83.7659 62.7937 83.1133C63.3564 82.9126 63.8875 82.6322 64.3706 82.2808C63.5098 82.2984 63.7462 82.3196 63.1077 82.7958C63.0679 82.8323 63.0241 82.8642 62.9772 82.891C62.9489 81.4518 63.9578 81.6881 64.5011 80.8944C65.0444 80.1006 64.0813 78.5485 63.1641 78.3721C62.5468 78.2522 61.7213 78.4039 61.4744 79.0106C61.2275 79.6174 61.3756 80.6898 62.2928 80.4217C62.5002 80.3411 62.7153 80.282 62.9348 80.2453C62.9348 80.8485 62.4057 81.3036 61.8448 81.4341C61.6881 81.4575 61.5288 81.4575 61.3721 81.4341C61.3721 81.7516 61.9647 82.115 61.9788 82.7746C61.8025 82.9157 61.8906 82.9792 61.5097 83.0921C60.8041 83.3003 59.2696 82.7393 57.5622 83.5013C56.6485 83.8999 55.9465 84.5173 55.1281 85.0394C54.9447 85.1593 54.8177 85.1276 54.8776 85.3639C54.8947 85.4886 54.9182 85.6122 54.9482 85.7343C55.0223 85.946 55.3574 86.0871 55.1775 86.461C55.0822 86.6656 55.2586 86.6551 55.2198 87.0819C55.2198 87.1983 55.3045 87.9285 54.7118 87.7592C54.3847 87.659 54.1052 87.4434 53.9252 87.1525C53.777 87.0431 53.5407 87.0537 53.4454 86.7997C53.4125 86.6173 53.4246 86.4296 53.4807 86.2529C53.3301 86.1723 53.1851 86.0815 53.0468 85.9813C52.5 85.6638 52.4259 85.9813 52.1261 85.2757C51.8897 85.2511 51.5334 85.1452 51.4593 84.923C51.3429 84.5702 51.5334 84.5138 51.2195 84.2915C50.394 83.7059 51.3817 83.0921 51.5017 82.6547C51.4528 82.3618 51.3868 82.072 51.3041 81.7869C51.1221 81.7001 50.977 81.5513 50.8949 81.3671C50.842 81.1907 50.8949 81.1272 50.7926 80.972C50.3622 80.3829 50.8949 79.9983 50.5069 79.889C50.4461 79.8714 50.3831 79.8631 50.3199 79.8643C50.3199 79.8043 50.3693 79.6703 50.3763 79.5962C50.267 79.4833 50.1682 79.4269 50.1224 79.2434C49.9989 78.7707 50.3411 79.2999 49.6779 77.8324C49.5932 77.6524 49.5438 77.4796 49.4627 77.2856C49.1558 76.58 48.8453 75.8745 48.5314 75.1901C48.4326 74.9714 47.3143 72.3221 47.272 72.2516C47.1909 72.1246 46.9933 72.1175 46.9192 72.0011C46.8452 71.8847 46.8981 71.733 46.8346 71.6484C46.5841 71.5108 46.4818 71.4685 46.3901 71.1474V71.1228C46.3835 71.0906 46.3753 71.0588 46.3654 71.0275C46.2419 71.0275 46.0797 71.0769 45.9738 71.0275C45.8306 70.8816 45.6721 70.7515 45.5011 70.6395C45.0543 70.4718 44.6436 70.2203 44.2911 69.8986C43.9983 69.4506 44.0865 69.1472 44.0971 68.731C44.2029 68.731 44.7215 69.0026 44.7532 68.9744C44.8048 68.916 44.8412 68.8457 44.8591 68.7698C44.5063 68.417 45.0214 67.8067 45.1836 67.4751C45.5752 67.4363 45.487 67.3164 46.0232 66.9742C45.3924 66.9709 44.7775 66.7765 44.2594 66.4168C44.0334 66.2548 43.8416 66.0498 43.6949 65.8136C44.0487 65.4028 44.4999 65.0875 45.0072 64.8964C45.2718 64.8047 45.5858 64.7871 45.8292 64.6777C44.8238 64.6777 43.1764 63.6194 43.1552 62.5611C43.5758 62.3567 44.0278 62.2243 44.4922 62.1695C44.6192 62.1695 45.4588 62.1695 45.5187 62.1342C45.3271 62.0603 45.1409 61.973 44.9614 61.8732C44.5325 61.7062 44.1447 61.4486 43.8245 61.118C43.5043 60.7874 43.2591 60.3916 43.1058 59.9577C43.0469 59.8335 43.0111 59.6996 43 59.5626C43.7353 59.4209 44.4896 59.4078 45.2295 59.5238C44.7883 59.2161 44.3959 58.8439 44.0653 58.4196C43.8486 58.1707 43.6832 57.8815 43.5785 57.5685C43.4737 57.2556 43.4318 56.925 43.4551 56.5958C44.1997 56.5583 44.9438 56.6785 45.6387 56.9486C45.7163 56.9768 45.8398 57.0826 45.8821 57.0121C45.487 56.8639 44.9578 56.2466 44.7109 55.9079C43.9101 54.8179 43.9595 53.6925 44.4816 52.5531C44.5825 52.6079 44.6752 52.6768 44.7568 52.7577C45.6871 53.4615 46.5665 54.23 47.3884 55.0577C47.4554 55.1212 47.533 55.1812 47.6001 55.2483L47.6883 55.3329L47.6177 55.2624C47.0121 54.5157 46.4638 53.7245 45.9774 52.8953C45.3882 51.6218 44.919 49.5617 46.3619 48.6374C46.4105 48.6132 46.4576 48.5861 46.503 48.5563C46.637 48.6021 47.2085 49.8897 47.339 50.0873C48.3268 51.6465 49.311 53.2234 50.4046 54.7156C50.5033 54.8496 50.6303 54.9696 50.722 55.1142C50.7997 54.9978 50.9972 54.9343 51.0748 54.8179C51.2459 55.1123 51.4002 55.4161 51.5369 55.728C51.8544 56.2325 52.4118 57.0721 52.9198 57.4283C53.1526 57.5871 53.1279 57.4954 53.3431 57.125C53.4595 57.1991 55.2939 59.0652 55.6467 59.4038C56.264 60 57.7633 61.2947 57.4705 62.3459C57.347 62.808 56.8778 63.1679 56.6238 63.5524C56.527 63.6826 56.4576 63.8311 56.4198 63.9889C56.382 64.1467 56.3766 64.3106 56.404 64.4705C56.4314 64.6305 56.4909 64.7832 56.579 64.9194C56.6672 65.0557 56.782 65.1727 56.9166 65.2633C57.7844 65.9688 59.2449 66.0464 59.7635 64.9917C59.4986 64.882 59.2437 64.7499 59.0015 64.5966C58.8112 64.4359 58.6858 64.2114 58.6487 63.9651V63.9051C58.5804 63.5212 58.6412 63.1255 58.8216 62.7798C58.8639 62.7022 58.9204 62.5787 59.0191 62.5576C59.1897 62.8308 59.4486 63.0374 59.7529 63.1432C60.282 63.2807 61.3756 62.7904 61.4744 62.487C61.221 62.5592 60.9549 62.5749 60.6948 62.5329C60.1903 62.3918 59.8869 61.9155 59.8728 61.2664C60.2256 61.3017 60.5466 61.6862 61.0969 61.4393C61.4303 61.286 61.6962 61.0163 61.8448 60.6808C61.9888 60.3472 62.0563 59.9856 62.0423 59.6225C62.0342 59.3833 61.9951 59.1462 61.9259 58.917C61.7343 58.2896 61.4255 57.7043 61.0158 57.192C60.8958 57.0333 60.5043 56.4865 60.3102 56.4512C60.2644 56.497 60.1691 56.5041 60.1021 56.5253C59.6188 56.6805 59.0826 56.4053 58.5323 56.363H58.5006C58.2907 56.3468 58.08 56.3819 57.8867 56.4653C57.6426 56.5791 57.441 56.7675 57.311 57.0034C57.181 57.2393 57.1294 57.5104 57.1636 57.7776C56.9978 57.6153 56.8108 57.6083 56.6591 57.3437C56.6077 57.2375 56.5792 57.1217 56.5756 57.0038C56.5719 56.8858 56.5932 56.7685 56.6379 56.6593C56.8214 56.2854 57.2623 56.116 57.6328 55.9185C56.8531 55.9185 56.4122 56.751 55.5162 57.0544C54.2744 57.4777 53.202 56.0243 53.5265 55.5446C53.71 55.28 53.6147 56.1725 54.6307 56.1549C55.1006 56.1247 55.5604 56.005 55.9853 55.8021C56.5363 55.5363 57.1376 55.3908 57.7492 55.3752C57.6901 55.3304 57.6276 55.2903 57.5622 55.2553C56.8567 54.9731 55.8301 55.0225 55.2657 55.5799C55.0752 55.7703 55.0576 55.8338 54.8388 55.5552C54.5646 55.2025 54.4256 54.7632 54.4473 54.3169V54.1935C54.4754 53.969 54.5533 53.7537 54.6754 53.5632C54.7975 53.3728 54.9606 53.2121 55.1528 53.0928C55.5127 52.894 55.9107 52.7737 56.3205 52.7401C56.4333 52.5566 56.1652 52.479 56.8567 52.3203L56.899 52.091C56.3687 52.0233 55.8424 51.9279 55.3221 51.8052C53.2055 50.9798 53.6677 50.1719 54.1439 48.5069C54.1792 48.3763 54.2356 47.7096 54.0486 47.6638C53.971 47.7167 52.3836 48.3693 52.3377 48.4257C52.0202 48.8808 52.2284 49.6851 52.5176 50.1402C53.3537 51.4595 52.8422 51.6782 52.3236 52.7224C52.0802 53.2198 52.3236 53.5655 52.5988 53.9783C51.4558 53.9994 50.9443 53.054 51.5758 52.0628C51.6943 51.9167 51.7667 51.7386 51.7839 51.5512C51.7169 51.5512 51.5299 51.8053 51.477 51.8546C51.2552 51.9848 50.9999 52.0462 50.7432 52.031C50.4791 51.9529 50.2068 51.9056 49.9319 51.8899C49.9319 51.9675 49.8825 52.0698 49.8648 52.1545C49.8331 52.3344 49.9319 52.4755 49.946 52.6131H49.9283C49.7114 52.4959 49.5357 52.315 49.4247 52.0949C49.3137 51.8748 49.2728 51.626 49.3074 51.3819C49.3992 50.6199 50.2423 51.0292 50.6938 51.0292C50.7891 51.0292 50.8561 50.9092 50.8808 50.8281C51.0007 50.4471 50.14 49.9673 49.9742 49.604C49.8574 49.3301 49.8511 49.0217 49.9565 48.7432C50.3658 47.826 51.417 47.9178 51.8791 47.6638C52.3413 47.4098 52.9374 45.713 53.7947 46.0657C54.4376 46.3672 55.0547 46.7212 55.6396 47.124C55.7614 47.3042 55.8328 47.5137 55.8464 47.7308C55.8601 47.9479 55.8155 48.1647 55.7172 48.3587C55.5232 48.909 55.2445 49.5123 55.0964 50.0026C54.7436 51.2126 56.2605 51.7135 57.1424 51.8828C57.0401 50.8457 55.6361 49.8192 57.1636 48.8526C57.3964 48.7214 57.6471 48.6252 57.9079 48.5668H57.9502C58.0213 48.5526 58.0944 48.5526 58.1654 48.5668H58.1831C58.2036 48.5739 58.2228 48.5847 58.2395 48.5986C58.2824 48.6538 58.3202 48.7129 58.3524 48.775C58.3877 48.775 58.43 48.6797 58.497 48.5668C58.4303 48.529 58.3733 48.4761 58.3307 48.4123C58.2881 48.3484 58.2611 48.2755 58.2518 48.1993C58.2425 48.1231 58.2513 48.0458 58.2773 47.9736C58.3034 47.9015 58.346 47.8364 58.4018 47.7837H58.3312L58.5147 47.4309L58.1125 47.5121V46.8771L58.5147 46.9371L58.4723 46.549H59.065L59.0121 46.9476L59.4072 46.8982V47.4909L59.0121 47.4309L59.192 47.7837H59.1144C59.1991 47.8657 59.2569 47.9715 59.2802 48.0871C59.2784 48.2626 59.2089 48.4307 59.0862 48.5563C59.125 48.6409 59.1673 48.7326 59.1673 48.7397H59.2308C59.2625 48.581 59.2943 48.4751 59.4989 48.5175C60.7865 48.782 61.1392 49.2865 61.1251 49.8403V49.8827C61.0863 50.5282 60.5748 51.2373 60.4902 51.7065C61.0158 51.7065 63.5098 50.1402 63.7815 49.4382C64.0531 48.7362 62.8396 47.4521 62.642 46.2245V46.1821C62.5186 45.3355 62.889 44.5383 64.5576 44.0444C64.7126 43.9758 64.8828 43.949 65.0514 43.9668C65.1361 44.0197 65.1784 44.2666 65.2772 44.2737C65.3441 44.241 65.418 44.2253 65.4924 44.2278L65.4395 43.9174L65.5735 43.8856C65.4804 43.8305 65.4013 43.7547 65.3422 43.6641C65.283 43.5735 65.2455 43.4705 65.2326 43.3631C65.2196 43.2557 65.2316 43.1467 65.2674 43.0446C65.3033 42.9425 65.3622 42.8501 65.4395 42.7744H65.3442L65.5982 42.2453L65.0338 42.3652V41.4657L65.6017 41.5503L65.5418 41H66.3743L66.3002 41.5644L66.8576 41.4904V42.3334L66.3002 42.2488L66.5507 42.7638H66.4413C66.5618 42.8796 66.6431 43.03 66.6742 43.1942C66.6699 43.4439 66.5701 43.6825 66.3955 43.8609L66.5189 43.8892L66.4943 44.2102C66.5842 44.1958 66.6759 44.1958 66.7659 44.2102C66.7659 43.674 67.4432 43.9844 67.743 44.0761C68.1041 44.1782 68.4478 44.334 68.7625 44.5382C68.8465 44.5964 68.9255 44.6613 68.9989 44.7323C69.7503 45.4625 69.3517 46.4714 68.8507 47.6391C68.7036 47.9319 68.5717 48.2321 68.4556 48.5386V48.5668C68.4309 48.648 68.4062 48.7397 68.3815 48.8526C68.3815 48.8702 68.3815 48.9231 68.3815 48.9866C68.3815 49.0219 68.3815 49.0607 68.3815 49.096C68.3735 49.171 68.3735 49.2467 68.3815 49.3218C68.4662 49.5546 69.133 50.059 69.3481 50.2037C69.7397 50.4682 71.246 51.4384 71.7963 51.456C71.7963 51.0221 70.0748 49.2195 72.0115 48.4363H72.0574C72.2267 48.3734 72.3999 48.3216 72.5759 48.2811H72.6677C72.8229 48.2458 72.8828 48.3587 72.9252 48.4257L72.9746 48.4751C72.9993 48.4751 73.031 48.4257 73.091 48.2635L73.1016 48.1576ZM58.2466 81.5399C58.2466 81.4271 58.1584 81.3424 58.1407 81.2295C57.8303 81.2895 57.8656 81.6176 57.0436 81.6352C57.0436 81.5223 57.3153 81.1448 57.3082 80.7744C57.3082 80.6122 57.3082 80.4464 57.3082 80.2947C57.0472 80.3405 56.9801 80.8097 56.0347 80.7215C55.8204 80.6795 55.6222 80.5782 55.4625 80.4292C55.3029 80.2802 55.1883 80.0893 55.1316 79.8784C55.5303 79.8784 55.9077 80.1077 56.1229 79.5856C56.2711 79.2329 55.8866 78.0229 56.0735 77.4091C56.5533 75.8287 57.9714 75.9415 58.0137 75.7264C57.9587 75.6134 57.915 75.4952 57.8832 75.3736C58.0334 75.374 58.1828 75.3941 58.3277 75.4335C59.005 75.5923 59.8764 75.2819 59.9998 74.6716C59.7811 74.6716 59.5518 74.795 59.319 74.8091C59.319 74.7174 59.5553 74.4564 59.6082 74.3929C59.7409 74.1278 59.8347 73.8451 59.8869 73.5533C59.9509 72.8863 59.874 72.2132 59.6612 71.5778C59.6082 71.4508 59.4213 71.0592 59.2696 71.031C58.969 71.3286 58.6081 71.5583 58.2113 71.7048C58.15 71.6367 58.0786 71.5784 57.9996 71.5319C58.0165 72.2962 57.9728 73.0605 57.8691 73.8179C57.7351 74.2694 57.1636 74.6045 56.6909 74.7245C56.5039 74.4634 55.8901 74.3717 55.6326 73.9766C55.5398 73.7335 55.5398 73.4648 55.6326 73.2217C55.7339 72.6848 55.7964 72.1413 55.8195 71.5954C55.794 71.6789 55.7622 71.7603 55.7243 71.8389C55.4703 72.4809 55.1669 74.4176 54.7436 74.7457C54.4334 74.911 54.1006 75.0299 53.7559 75.0984C53.6928 75.1312 53.6249 75.1539 53.5548 75.1654C52.1825 73.9484 52.8492 73.6556 53.6183 71.8318C53.7651 71.5272 53.8832 71.2095 53.971 70.8829C53.9216 70.9746 53.844 71.0522 53.7911 71.1439C53.4384 71.7295 53.1914 72.3786 52.8457 72.9712C52.5917 73.4051 52.4471 73.9555 52.0132 74.2306C51.6992 74.4317 51.2794 74.3047 50.9373 74.3999C50.8843 74.4182 50.8301 74.4324 50.775 74.4423C50.5285 74.0772 50.3526 73.6692 50.2564 73.2393C50.1894 72.9783 50.581 72.3751 50.715 72.1811C50.9619 71.8283 52.2178 70.0645 52.3801 69.7787L52.3554 69.747L50.1929 72.4315C49.4874 73.4404 49.2193 72.9924 48.2456 73.003C48.2456 73.1053 48.9018 74.2765 48.9512 74.3752C49.2616 74.9467 50.7326 78.0934 51.0113 78.4709C51.2512 78.7919 51.4629 78.5979 51.4064 79.1764C51.4523 79.194 51.6534 79.2716 51.6639 79.3105C51.5899 79.3951 51.4911 79.6174 51.6181 79.7091C52.3236 80.2241 51.9074 80.1324 52.186 80.5275C52.2566 80.6333 52.3836 80.6933 52.44 80.8203C52.4965 80.9473 52.44 81.2013 52.4965 81.3847C52.5587 81.5205 52.642 81.6455 52.7434 81.7551C52.9198 81.4764 53.1173 81.734 53.2726 81.6811C53.4278 81.6281 53.6747 81.4024 53.9781 81.5823C54.5602 81.935 54.6378 83.3955 56.1617 82.8699C56.5145 82.7464 58.6523 82.0973 58.7792 81.5787C58.7809 81.4217 58.7619 81.2652 58.7228 81.1131C58.6099 81.1837 58.37 81.4976 58.2572 81.5223L58.2466 81.5399ZM64.868 55.8233L64.9632 55.9573C65.5739 56.9948 66.0056 58.1278 66.2402 59.3086C66.2518 59.5002 66.2742 59.691 66.3073 59.8801C66.3073 59.7496 66.4943 58.5748 66.526 58.469C66.796 57.4007 67.2253 56.3792 67.7995 55.4387C67.9001 55.286 67.9886 55.1256 68.0641 54.959C67.7221 54.9888 67.3801 54.9018 67.094 54.712C67.0508 54.6892 67.0128 54.6577 66.9824 54.6194C66.9521 54.5812 66.93 54.537 66.9176 54.4898C67.9759 54.4898 68.7273 54.2922 69.4046 53.629C69.4561 53.5933 69.5024 53.5505 69.5422 53.5021C69.2741 53.3363 68.6426 53.0505 68.5474 52.6942C68.6849 52.6942 69.8632 52.8671 70.0501 52.8918V52.8459C69.5915 52.606 68.2122 52.2356 68.2017 51.5265C68.4239 51.6923 70.2583 51.9181 70.5228 51.7488C70.3782 51.717 70.2265 51.643 70.0925 51.6006C69.4108 51.4394 68.761 51.1651 68.1699 50.7893C67.8983 50.6305 67.6302 50.4788 67.3691 50.2919C67.0163 50.0485 66.8929 49.9391 66.4555 50.0379C66.1027 50.1261 65.5488 49.932 65.2419 50.059C65.0312 50.1854 64.8359 50.3357 64.6599 50.5071C63.7074 51.2126 62.9384 51.4242 61.8906 51.8793C61.8518 51.8793 61.8095 51.8793 61.7813 51.9217C62 51.9217 62.2258 51.9216 62.448 51.904H62.4692C63.0235 51.8998 63.5727 51.7983 64.0919 51.6042C64.0919 52.4473 62.3281 52.7859 62.2928 53.0152C62.5786 53.0152 63.4464 52.8177 63.7885 52.7612C63.7885 53.0646 63.023 53.4668 62.8255 53.6008C63.1285 53.9031 63.4881 54.1429 63.8838 54.3063H63.9226C64.422 54.4495 64.9421 54.5068 65.4606 54.4757C65.4113 54.5251 65.3901 54.5991 65.3372 54.6415C65.202 54.7627 65.0432 54.8548 64.8708 54.9118C64.6985 54.9689 64.5161 54.9897 64.3353 54.9731C64.4503 55.2583 64.6112 55.5229 64.8115 55.7562L64.868 55.8233Z" fill="#FF7448"/>
</svg>
