<svg width="132" height="132" viewBox="0 0 132 132" fill="none" xmlns="http://www.w3.org/2000/svg">
<path d="M123.163 99.5129L112.945 103.979L110.933 114.962L99.8491 116.209L94.6391 126.106L83.676 124.094L75.7906 132L65.9339 126.77L56.0569 132L48.1716 124.094L37.2084 126.106L31.9985 116.209L20.9146 114.962L18.9031 103.979L8.6842 99.5129L9.93137 88.409L1.4827 81.107L5.92834 70.8479L0.0142822 61.3935L7.27606 52.9247L4.39952 42.1024L13.8338 36.1682L14.2563 24.9838L25.0384 22.1073L28.7196 11.5465L39.8637 11.9689L46.4818 2.95697L57.0024 6.65833L65.9941 0L74.9659 6.65833L85.3858 2.95697L92.0039 11.9689L103.148 11.5465L106.829 22.1073L117.611 24.9838L118.014 36.1682L127.468 42.1024L124.592 52.9247L131.853 61.3935L125.819 70.8479L130.284 81.107L121.836 88.409L123.163 99.5129Z" fill="#92B4F6"/>
<circle cx="66.0143" cy="66" r="33" fill="white"/>
<path d="M52.8044 64.7689V82.5695C52.8045 82.722 52.7747 82.873 52.7168 83.0139C52.659 83.1548 52.5741 83.2828 52.4671 83.3906C52.3602 83.4984 52.2332 83.5839 52.0934 83.6423C51.9536 83.7006 51.8038 83.7306 51.6525 83.7305H47.1662C47.0149 83.7306 46.8651 83.7006 46.7253 83.6423C46.5855 83.5839 46.4585 83.4984 46.3515 83.3906C46.2445 83.2828 46.1597 83.1548 46.1018 83.0139C46.044 82.873 46.0142 82.722 46.0143 82.5695V64.7689C46.0143 64.4609 46.1356 64.1656 46.3517 63.9479C46.5677 63.7302 46.8607 63.6078 47.1662 63.6078H51.6525C51.958 63.6078 52.251 63.7302 52.467 63.9479C52.683 64.1656 52.8044 64.4609 52.8044 64.7689ZM81.8637 82.0058C82.2569 80.8285 81.4357 79.6942 82.0053 78.7462C82.678 77.6272 83.8206 77.5227 84.0304 75.8699C84.1739 74.7381 83.3709 73.8054 83.7941 72.8484C84.2791 71.7508 85.2595 71.4824 85.3612 69.9261C85.4865 68.0018 84.458 68.3812 85.3917 66.7828C85.9613 65.808 86.4999 64.8882 86.2866 63.6886C85.3563 58.4576 76.0776 61.2209 72.7157 60.9852C68.8678 60.7157 71.8518 57.938 73.0327 55.8552C74.2401 53.7253 75.0476 50.747 74.8441 48.3497C74.6598 46.1856 73.6367 43.2975 71.4002 43.0295C68.1361 42.6417 68.7032 46.1673 67.769 48.4086C65.4592 53.9452 61.4934 56.9731 57.2032 60.8846C55.4704 62.4632 54.0851 63.8837 54.0851 65.8808C54.0851 69.4966 54.0423 74.7544 54.0423 78.1954C54.0423 81.988 55.2846 82.9355 59.2392 83.2595C64.5132 83.6899 69.8148 85 75.1001 85C77.5509 85 80.9212 84.8281 81.8637 82.0038V82.0058Z" fill="#FF7448"/>
</svg>
