<svg width="399" height="332" viewBox="0 0 399 332" fill="none" xmlns="http://www.w3.org/2000/svg">
<path d="M399 132.937V271.131H307.343V145.181H297.796C297.252 145.182 296.708 145.135 296.172 145.042C293.854 144.648 291.747 143.423 290.227 141.585C288.707 139.747 287.873 137.416 287.874 135.007V132.937H399Z" fill="#F9E216"/>
<path d="M399 124.833V145.181H297.795C297.251 145.182 296.708 145.135 296.172 145.042C293.854 144.648 291.747 143.423 290.227 141.585C288.707 139.747 287.873 137.416 287.874 135.007C287.873 134.311 287.942 133.618 288.079 132.936C288.487 130.927 289.478 129.09 290.923 127.669C292.367 126.247 294.197 125.306 296.172 124.97C296.708 124.878 297.251 124.832 297.795 124.833H399Z" fill="#FEF8C4"/>
<path d="M387.093 136.419H304.577V137.873H387.093V136.419Z" fill="#232323"/>
<path d="M395.322 130.036H300.419V131.489H395.322V130.036Z" fill="#232323"/>
<path d="M307.343 145.181V271.131H297.796C297.252 271.132 296.71 271.092 296.172 271.01C291.649 270.334 288.151 266.878 287.891 262.638C287.878 262.472 287.874 262.307 287.874 262.124V135.007C287.873 137.416 288.707 139.747 290.227 141.585C291.747 143.423 293.854 144.648 296.172 145.042C296.708 145.135 297.252 145.182 297.796 145.181H307.343Z" fill="#1C1314"/>
<path d="M183.515 69.6142C198.216 89.8366 211.503 114.112 206.871 138.181C206.755 138.792 206.626 139.399 206.485 140.003C204.708 147.728 201.036 155.421 194.933 162.942C185.738 174.274 179.102 183 166.08 193.524C164.35 194.92 162.509 196.349 160.533 197.82L160.501 197.845L160.085 198.153C158.298 199.478 156.395 200.839 154.378 202.235C152.332 203.653 150.153 205.117 147.841 206.628C144.219 208.989 140.248 211.477 135.87 214.117C131.055 217.02 125.743 220.109 119.86 223.422C109.306 229.366 99.5929 217.819 96.249 213.536C95.6545 212.774 95.262 212.242 95.1004 212.078C94.4198 211.386 93.7257 210.72 93.0182 210.079C91.7258 208.92 90.3979 207.825 89.0232 206.787L88.9925 206.765C86.5306 204.907 83.9363 203.214 81.2385 201.545C68.2118 193.486 52.8282 185.966 38.5301 162.957C36.2556 159.333 34.8378 155.215 34.3898 150.931C34.3241 150.307 34.2767 149.68 34.2476 149.051C33.1604 125.215 58.7422 99.118 55.0704 82.4499C49.9333 59.1436 31.4319 23.7587 29.0282 0.0400391H216.636C196.975 20.534 170.07 51.1309 183.515 69.6142Z" fill="#1C1314"/>
<path d="M158.384 138.168C164.478 132.163 167.363 123.648 167.875 115.137C168.466 105.287 165.775 95.6798 162.192 86.6402C158.255 76.7228 153.236 67.2824 149.787 57.1795C146.576 47.7589 144.639 37.4507 146.986 27.5846C148.889 19.5884 153.448 11.8672 160.625 7.81773C161.523 7.31237 162.453 6.86971 163.408 6.49276C163.893 6.3023 163.68 5.49904 163.194 5.69447C155.717 8.65246 150.412 15.2773 147.59 22.8147C144.256 31.7169 144.683 41.3908 146.964 50.5066C149.569 60.959 154.394 70.6014 158.69 80.388C162.811 89.7754 166.639 99.6746 167.1 110.079C167.491 118.905 165.554 128.297 159.947 135.222C159.278 136.047 158.564 136.832 157.808 137.574C157.433 137.943 158.005 138.529 158.38 138.16L158.384 138.168Z" fill="#5B5B5B"/>
<path d="M94.8584 68.4947C98.191 83.9257 94.0071 100.829 83.8735 112.749C79.1371 118.317 73.1471 122.635 68.6385 128.421C66.5626 131.085 64.8406 134.063 63.9699 137.375C62.9635 141.199 63.1977 145.25 64.3867 149.002C67.1797 157.823 74.5735 163.84 82.46 167.732C82.9269 167.962 83.3372 167.248 82.8687 167.016C75.672 163.454 68.8145 158.157 65.7259 150.341C64.1944 146.459 63.6646 142.148 64.6403 138.052C65.4561 134.627 67.212 131.545 69.3606 128.822C73.8288 123.163 79.6993 118.895 84.3678 113.431C89.2448 107.729 92.7971 100.879 94.8261 93.5913C97.1136 85.3765 97.4479 76.6218 95.6451 68.2744C95.5337 67.7544 94.7534 67.9747 94.8665 68.4947H94.8584Z" fill="#5B5B5B"/>
<path d="M247.324 0.0400391C246.341 7.81439 243.812 15.2991 239.894 22.0312C236.758 27.4114 232.734 32.1917 228.001 36.1587C223.397 40.0177 218.354 43.3086 213.913 47.3746C209.69 51.2402 206.073 55.9637 205.19 61.8515C204.115 69.071 207.399 76.0006 210.391 82.3041C211.892 85.4675 213.43 88.6275 214.609 91.9366C215.848 95.4227 216.694 99.0423 217.132 102.725C218.015 110.073 217.28 117.529 214.982 124.547C213.101 130.197 210.22 135.443 206.485 140.023C202.038 145.514 196.485 149.954 190.208 153.039C189.741 153.268 189.333 152.554 189.801 152.324C191.201 151.644 192.563 150.894 193.888 150.076C198.898 146.97 203.302 142.94 206.879 138.188C211.381 132.246 214.456 125.301 215.855 117.914C217.221 110.552 216.919 102.966 214.973 95.7426C213.094 88.8047 209.369 82.6701 206.734 76.0436C204.348 70.0481 203.156 63.4995 205.592 57.3069C207.643 52.0948 211.672 48.0752 215.867 44.6137C220.46 40.8226 225.478 37.5566 229.831 33.4624C234.36 29.1735 238.112 24.0961 240.913 18.4654C243.796 12.6988 245.688 6.4657 246.505 0.0400391L247.324 0.0400391Z" fill="#1C1314"/>
<path d="M47.4054 162.642C46.1811 162.095 44.9976 161.456 43.8644 160.731C40.0289 158.235 36.7911 154.886 34.3916 150.931C30.9993 145.401 29.2078 138.821 29.5567 132.317C29.9008 125.929 32.647 120.193 35.2107 114.479C37.8309 108.64 40.5415 102.174 38.9843 95.6316C37.5675 89.6775 33.2334 85.0683 31.1463 79.4007C30.0708 76.5465 29.8536 73.4275 30.5227 70.4456C31.2706 67.0504 32.8166 63.8804 33.3319 60.4255C34.3448 53.6235 30.2255 47.5352 25.5408 43.1844C20.7414 38.7275 14.879 35.6883 9.93259 31.4253C5.20264 27.3526 1.79087 22.1505 0.708541 15.837C-0.210633 10.4924 0.492075 4.89274 2.83928 0.0400391H3.74068C3.29172 0.915633 2.89993 1.82081 2.56789 2.7496C0.480326 8.68515 0.649309 15.209 3.04121 21.0226C5.60487 27.1688 10.7209 31.3193 15.9646 34.9927C21.1226 38.6082 26.4551 42.0333 30.2707 47.2272C32.0477 49.6452 33.4612 52.4194 34.0201 55.4138C34.6162 58.6037 34.0605 61.6826 33.0944 64.7333C32.0573 68.0143 30.7085 71.3102 30.9411 74.8362C31.1382 77.834 32.395 80.6147 33.8101 83.1984C36.6661 88.4155 40.2265 93.3361 40.2524 99.58C40.2782 105.905 37.3107 111.765 34.7939 117.368C33.4402 120.385 32.1187 123.439 31.2626 126.652C30.5402 129.386 30.2302 132.218 30.3434 135.048C30.5526 139.967 31.8903 144.766 34.2479 149.056C37.3172 154.671 42.0196 159.325 47.8174 161.931C48.2858 162.14 47.8755 162.854 47.4054 162.642Z" fill="#1C1314"/>
<path d="M234.216 330.887C234.216 331.019 234.216 331.152 234.216 331.283H24.9416C24.764 330.081 24.6754 328.867 24.6766 327.652C24.6766 308.589 41.0764 302.339 71.3009 286.648L125.446 320.121L156.017 299.16L157.666 298.029L179.372 283.146C190.905 288.735 201.216 293.968 209.699 299.27C210.322 299.661 210.937 300.051 211.542 300.442C225.638 309.568 234.216 318.995 234.216 330.887Z" fill="#B4CAFF"/>
<path d="M179.372 283.146C176.038 285.428 168.559 292.134 160.365 300.056C159.9 300.503 159.433 300.956 158.965 301.414C148.057 312.035 136.253 324.454 131.423 331.282H125.47C120.913 327.547 116.617 323.489 112.612 319.139C105.872 311.817 84.1481 295.766 71.3007 286.647C76.708 283.872 82.2381 280.896 87.891 277.722C93.8131 274.41 100.121 270.7 106.803 266.506C106.875 261.597 107.126 253.513 107.36 245.969C107.421 243.982 107.48 242.016 107.531 240.172C107.586 238.185 107.636 236.308 107.672 234.647C107.681 234.22 107.69 233.806 107.698 233.408C107.704 233.057 107.71 232.718 107.715 232.392C107.733 231.35 107.743 230.437 107.743 229.689L142.239 229.071L142.5 232.97L142.909 239.069L143.001 240.434L144.742 266.408C146.205 267.137 147.659 267.855 149.104 268.562L150.87 269.428C160.911 274.337 170.5 278.848 179.372 283.146Z" fill="#F8E2E2"/>
<path d="M142.909 239.056C137.068 244.323 131.44 247.127 127.949 246.59C120.776 245.487 113.223 239.303 107.698 233.395C107.727 231.925 107.743 230.659 107.743 229.675L142.239 229.058L142.909 239.056Z" fill="#E9BFBF"/>
<path d="M158.68 203.115C157.829 204.751 156.202 206.924 154.857 207.495C154.637 210.092 154.337 212.524 153.983 214.576C153.782 215.762 153.563 216.82 153.337 217.723C153.041 218.882 152.728 219.758 152.416 220.266C143.558 234.676 131.191 243.674 125.18 242.75C114.733 241.145 103.478 228.776 98.8485 222.121C98.4446 221.543 98.0909 221.01 97.7953 220.532C97.6434 220.288 97.5029 220.035 97.3639 219.773C96.3155 217.757 95.6274 215.159 95.1023 212.103C94.1945 211.835 93.3819 210.858 92.6275 209.403C91.7616 207.729 89.3805 202.485 90.5808 201.47C91.227 200.927 92.5193 201.124 93.8116 201.811C93.4885 198.711 93.1234 195.398 92.6275 191.952C99.073 187.013 104.905 180.524 111.807 172.036C115.659 167.299 116.99 164.706 116.99 164.706C116.99 164.706 135.014 179.06 150.684 181.784C154.002 182.356 155.196 189.835 155.244 198.09C156.831 196.841 158.761 196.301 159.606 197.007C160.808 198.014 159.546 201.435 158.68 203.115Z" fill="#F8E2E2"/>
<path d="M117.03 163.397C118.119 168.096 117.062 173.116 114.413 177.081C111.685 181.163 107.281 183.732 102.543 184.461C99.8025 184.876 97.0067 184.666 94.3544 183.847C93.8552 183.693 93.642 184.492 94.1395 184.645C99.0452 186.147 104.329 185.63 108.869 183.204C111.042 182.008 112.95 180.363 114.471 178.373C115.992 176.382 117.093 174.09 117.705 171.64C118.411 168.87 118.447 165.965 117.809 163.177C117.687 162.659 116.909 162.879 117.03 163.397Z" fill="#1C1314"/>
<path d="M135.179 198.574C135.179 198.077 137.487 199.224 142.203 198.352C147.647 197.343 151.585 194.483 151.882 194.905C152.223 195.389 148.568 199.99 143.547 200.884C138.977 201.699 135.177 200.029 135.179 198.574Z" fill="#1C1314"/>
<path d="M114.729 200.346C114.65 199.736 111.386 200.346 106.168 199.155C101.53 198.093 99.4169 196.535 99.1956 196.922C98.8725 197.487 102.801 201.891 108.056 202.282C111.555 202.547 114.812 200.969 114.729 200.346Z" fill="#1C1314"/>
<path d="M142.153 217.3C146.201 217.3 149.482 214.374 149.482 210.765C149.482 207.155 146.201 204.229 142.153 204.229C138.105 204.229 134.824 207.155 134.824 210.765C134.824 214.374 138.105 217.3 142.153 217.3Z" fill="#FFD5C8"/>
<path d="M134.68 222.978C135.107 223.713 132.136 227.405 128.096 228.14C124.429 228.803 120.736 226.88 120.826 226.055C120.896 225.459 122.91 225.681 127.611 224.665C132.577 223.592 134.383 222.469 134.68 222.978Z" fill="#EC5F5F"/>
<path d="M107.726 218.556C111.656 218.556 114.843 215.637 114.843 212.037C114.843 208.437 111.656 205.518 107.726 205.518C103.795 205.518 100.608 208.437 100.608 212.037C100.608 215.637 103.795 218.556 107.726 218.556Z" fill="#FFD5C8"/>
<path d="M119.159 225.485C121.908 226.834 125.005 227.246 127.999 226.662C130.992 226.077 133.725 224.527 135.798 222.237C135.974 222.042 135.69 221.741 135.512 221.944C133.503 224.172 130.851 225.683 127.945 226.255C125.038 226.828 122.03 226.433 119.358 225.128C119.125 225.013 118.92 225.369 119.154 225.485H119.159Z" fill="#A58374"/>
<path d="M132.019 188.441C132.384 186.983 136.058 186.122 138.733 185.726C146.661 184.545 152.556 186.071 152.482 187.666C152.451 188.351 147.676 189.368 141.482 190.647C136.749 191.627 134.622 194.065 132.837 193.073C131.73 192.46 131.657 189.883 132.019 188.441Z" fill="#1C1314"/>
<path d="M117.067 190.206C116.662 188.759 112.959 188.007 110.282 187.689C102.325 186.74 96.4754 188.434 96.5917 190.027C96.6434 190.713 100.726 190.902 106.953 192.005C111.712 192.846 115.558 195.841 117.316 194.797C118.406 194.148 117.469 191.637 117.067 190.206Z" fill="#1C1314"/>
<path d="M123.047 203.92C123.034 205.507 122.724 207.108 122.466 208.668C122.161 210.57 121.82 212.464 121.529 214.367C121.432 215.003 121.332 215.643 121.275 216.284C121.251 216.553 121.169 216.959 121.309 217.214C121.497 217.555 122.022 217.613 122.354 217.661C123.127 217.751 123.906 217.772 124.682 217.724C126.238 217.67 127.992 217.648 129.499 217.191C129.551 217.176 129.595 217.141 129.621 217.093C129.648 217.046 129.654 216.989 129.64 216.936C129.626 216.883 129.591 216.838 129.545 216.811C129.498 216.784 129.443 216.777 129.391 216.792C128.183 217.16 126.806 217.189 125.556 217.267C124.754 217.326 123.95 217.341 123.146 217.314C122.823 217.3 121.854 217.348 121.657 217.004C121.535 216.797 121.687 216.191 121.711 215.969C121.792 215.255 121.907 214.546 122.02 213.837C122.298 212.087 122.606 210.343 122.886 208.592C123.131 207.058 123.438 205.48 123.451 203.92C123.451 203.865 123.43 203.812 123.392 203.774C123.354 203.735 123.303 203.713 123.249 203.713C123.196 203.713 123.144 203.735 123.107 203.774C123.069 203.812 123.047 203.865 123.047 203.92Z" fill="#A58374"/>
<path d="M87.0978 195.142L91.6306 223.002C86.8991 223.811 82.048 218.231 80.7961 210.538C79.5441 202.845 82.3662 195.943 87.0978 195.142Z" fill="#FEB8A2"/>
<path d="M89.2935 193.983C87.3146 182.886 87.7168 173.124 90.4889 164.954C92.9459 157.71 97.3318 151.782 103.172 147.816C108.876 143.94 115.749 141.986 123.051 142.171C130.17 142.336 137.101 144.544 143.058 148.544C148.884 152.442 153.447 158.028 156.167 164.593C159.201 171.942 159.929 180.317 158.328 189.488L156.421 189.138C159.319 172.523 154.06 158.333 141.993 150.206C130.33 142.35 115.16 142.055 104.243 149.472C97.2752 154.205 86.3114 166.238 91.2013 193.625L89.2935 193.983Z" fill="#FF7448"/>
<path d="M95.0601 225.184C94.6677 225.25 94.2664 225.237 93.879 225.145C93.4917 225.052 93.1259 224.882 92.8026 224.645C92.4793 224.407 92.2049 224.107 91.9949 223.761C91.7849 223.414 91.6435 223.029 91.5788 222.627L87.1945 195.414C87.1294 195.011 87.1423 194.6 87.2324 194.202C87.3225 193.805 87.4882 193.43 87.7198 193.099C87.9515 192.767 88.2446 192.486 88.5825 192.271C88.9203 192.055 89.2963 191.911 89.6888 191.844C90.0811 191.778 90.4825 191.791 90.8698 191.884C91.2571 191.976 91.6229 192.146 91.9462 192.383C92.2695 192.621 92.5439 192.921 92.7539 193.268C92.9639 193.614 93.1053 193.999 93.17 194.402L97.5543 221.615C97.685 222.427 97.4956 223.259 97.0279 223.929C96.5602 224.598 95.8524 225.05 95.0601 225.184Z" fill="#FF7448"/>
<path d="M160.659 190.288L160.189 218.528C164.985 218.612 168.98 212.358 169.11 204.559C169.239 196.76 165.457 190.372 160.659 190.288Z" fill="#FEB8A2"/>
<path d="M157.12 221.212C157.922 221.224 158.696 220.908 159.271 220.335C159.847 219.762 160.177 218.979 160.189 218.156L160.606 190.577C160.617 189.755 160.309 188.962 159.75 188.372C159.192 187.782 158.428 187.443 157.626 187.43C156.824 187.42 156.05 187.736 155.475 188.309C154.9 188.882 154.57 189.666 154.556 190.488L154.141 218.067C154.13 218.889 154.438 219.681 154.996 220.271C155.555 220.861 156.318 221.199 157.12 221.212Z" fill="#FF7448"/>
<path d="M183.396 309.089C180.931 309.092 178.469 308.886 176.036 308.473C164.331 306.472 154.167 299.684 146.636 288.84L148.216 287.681C164.981 311.843 190.299 309.904 206.886 300.901C224.354 291.422 239.272 270.499 230.751 246.965C221.368 221.052 218.406 196.81 221.945 174.919C224.916 156.535 232.544 140.152 244.008 127.534C251.788 118.969 261.016 112.48 270.694 108.765C279.879 105.241 288.948 104.504 296.249 106.692C305.016 109.318 310.777 115.988 312.472 125.47L310.564 125.828C308.987 116.997 303.848 111.039 295.702 108.603C288.804 106.536 280.163 107.257 271.369 110.632C261.97 114.239 252.998 120.554 245.422 128.893C233.52 141.996 208.442 179.661 232.563 246.286C236.51 257.185 235.854 268.578 230.667 279.234C225.966 288.89 217.842 297.214 207.789 302.67C200.019 306.886 191.57 309.089 183.396 309.089Z" fill="#FF7448"/>
<path d="M147.45 289.253C146.526 289.253 138.05 288.19 129.144 283.622C123.974 280.972 119.721 277.659 116.502 273.784C112.482 268.946 110.085 263.23 109.376 256.794C107.804 242.529 102.779 231.398 94.4414 223.71L95.7337 222.233C104.434 230.255 109.672 241.809 111.298 256.571C112.505 267.513 118.729 275.978 129.79 281.732C136.898 285.424 143.983 286.833 146.501 287.181C145.896 284.256 144.847 276.237 154.457 255.145C158.334 246.638 157.669 241.423 156.898 235.385C156.351 231.078 155.73 226.216 156.721 219.569L158.637 219.871C157.688 226.237 158.263 230.757 158.821 235.128C159.596 241.209 160.328 246.955 156.213 255.984C152.013 265.221 149.398 272.957 148.459 278.978C147.723 283.719 148.235 286.046 148.48 287.166C148.614 287.777 148.731 288.305 148.38 288.784C148.275 288.925 148.14 289.041 147.986 289.122C147.832 289.204 147.662 289.249 147.489 289.256L147.45 289.253Z" fill="#FF7448"/>
<path d="M310.524 123.516H312.524C313.32 123.516 314.082 123.839 314.644 124.416C315.207 124.992 315.523 125.774 315.523 126.59V136.093H307.526V126.59C307.526 125.774 307.842 124.992 308.404 124.416C308.967 123.839 309.729 123.516 310.524 123.516Z" fill="#FF7448"/>
<path d="M319.013 202.304C319.013 205.472 319.781 208.352 321.317 210.944C322.901 213.488 325.037 215.528 327.725 217.064C330.461 218.552 333.509 219.296 336.869 219.296C338.501 219.296 339.989 219.08 341.333 218.648C342.725 218.216 343.949 217.568 345.005 216.704C346.061 215.84 346.925 214.832 347.597 213.68C347.549 216.752 347.069 219.392 346.157 221.6C345.293 223.76 344.069 225.416 342.485 226.568C340.901 227.72 339.029 228.296 336.869 228.296C334.757 228.296 332.789 227.792 330.965 226.784C329.141 225.728 327.653 224.312 326.501 222.536L320.957 228.584C322.829 231.176 325.133 233.192 327.869 234.632C330.605 236.024 333.557 236.72 336.725 236.72C340.757 236.72 344.261 235.616 347.237 233.408C350.213 231.2 352.493 227.96 354.077 223.688C355.709 219.368 356.525 214.112 356.525 207.92C356.525 202.976 355.757 198.776 354.221 195.32C352.685 191.816 350.501 189.152 347.669 187.328C344.885 185.456 341.573 184.52 337.733 184.52C334.229 184.52 331.061 185.312 328.229 186.896C325.397 188.432 323.141 190.544 321.461 193.232C319.829 195.92 319.013 198.944 319.013 202.304ZM337.661 192.584C339.389 192.584 340.949 193.04 342.341 193.952C343.781 194.864 344.933 196.04 345.797 197.48C346.709 198.92 347.165 200.528 347.165 202.304C347.165 203.984 346.733 205.544 345.869 206.984C345.005 208.376 343.853 209.504 342.413 210.368C341.021 211.184 339.461 211.592 337.733 211.592C336.005 211.592 334.421 211.184 332.981 210.368C331.541 209.504 330.389 208.376 329.525 206.984C328.709 205.544 328.301 203.96 328.301 202.232C328.301 200.504 328.733 198.92 329.597 197.48C330.461 195.992 331.589 194.816 332.981 193.952C334.421 193.04 335.981 192.584 337.661 192.584Z" fill="#FEF8C4"/>
<path d="M317.528 257V247.568H319.94V251.132H320.75L323.306 247.568H325.934L322.586 252.122L326.294 257H323.54L320.714 253.256H319.94V257H317.528ZM328.01 257.126V254.984C328.298 254.972 328.556 254.9 328.784 254.768C329.012 254.636 329.21 254.414 329.378 254.102C329.558 253.778 329.696 253.328 329.792 252.752C329.9 252.176 329.972 251.438 330.008 250.538L330.134 247.568H337.208V257H334.796V249.674H332.258L332.222 250.772C332.174 252.008 332.054 253.034 331.862 253.85C331.67 254.666 331.4 255.314 331.052 255.794C330.716 256.262 330.296 256.598 329.792 256.802C329.288 257.006 328.694 257.114 328.01 257.126ZM339.651 254.21C339.651 253.598 339.819 253.064 340.155 252.608C340.503 252.14 340.983 251.78 341.595 251.528C342.207 251.276 342.909 251.15 343.701 251.15C344.097 251.15 344.499 251.18 344.907 251.24C345.315 251.3 345.669 251.396 345.969 251.528V251.024C345.969 250.424 345.789 249.962 345.429 249.638C345.081 249.314 344.559 249.152 343.863 249.152C343.347 249.152 342.855 249.242 342.387 249.422C341.919 249.602 341.427 249.866 340.911 250.214L340.137 248.63C340.761 248.222 341.397 247.916 342.045 247.712C342.705 247.508 343.395 247.406 344.115 247.406C345.459 247.406 346.503 247.742 347.247 248.414C348.003 249.086 348.381 250.046 348.381 251.294V254.3C348.381 254.552 348.423 254.732 348.507 254.84C348.603 254.948 348.753 255.014 348.957 255.038V257C348.741 257.036 348.543 257.066 348.363 257.09C348.195 257.114 348.051 257.126 347.931 257.126C347.451 257.126 347.085 257.018 346.833 256.802C346.593 256.586 346.443 256.322 346.383 256.01L346.329 255.524C345.921 256.052 345.411 256.46 344.799 256.748C344.187 257.036 343.563 257.18 342.927 257.18C342.303 257.18 341.739 257.054 341.235 256.802C340.743 256.538 340.353 256.184 340.065 255.74C339.789 255.284 339.651 254.774 339.651 254.21ZM345.519 254.696C345.651 254.552 345.759 254.408 345.843 254.264C345.927 254.12 345.969 253.988 345.969 253.868V252.914C345.681 252.794 345.369 252.704 345.033 252.644C344.697 252.572 344.379 252.536 344.079 252.536C343.455 252.536 342.939 252.674 342.531 252.95C342.135 253.214 341.937 253.568 341.937 254.012C341.937 254.252 342.003 254.48 342.135 254.696C342.267 254.912 342.459 255.086 342.711 255.218C342.963 255.35 343.263 255.416 343.611 255.416C343.971 255.416 344.325 255.35 344.673 255.218C345.021 255.074 345.303 254.9 345.519 254.696ZM355.927 257.18C355.159 257.18 354.469 257.054 353.857 256.802C353.245 256.538 352.723 256.178 352.291 255.722C351.859 255.254 351.523 254.726 351.283 254.138C351.055 253.55 350.941 252.932 350.941 252.284C350.941 251.396 351.139 250.586 351.535 249.854C351.943 249.11 352.519 248.516 353.263 248.072C354.007 247.628 354.889 247.406 355.909 247.406C356.929 247.406 357.805 247.628 358.537 248.072C359.269 248.516 359.815 249.098 360.175 249.818L357.817 250.538C357.613 250.19 357.343 249.926 357.007 249.746C356.671 249.554 356.299 249.458 355.891 249.458C355.435 249.458 355.015 249.578 354.631 249.818C354.259 250.046 353.965 250.376 353.749 250.808C353.533 251.228 353.425 251.72 353.425 252.284C353.425 252.836 353.533 253.328 353.749 253.76C353.977 254.18 354.277 254.516 354.649 254.768C355.021 255.008 355.435 255.128 355.891 255.128C356.179 255.128 356.449 255.08 356.701 254.984C356.965 254.888 357.199 254.756 357.403 254.588C357.607 254.42 357.757 254.228 357.853 254.012L360.211 254.732C359.995 255.2 359.677 255.62 359.257 255.992C358.849 256.364 358.363 256.658 357.799 256.874C357.247 257.078 356.623 257.18 355.927 257.18ZM366.899 257.18C366.131 257.18 365.441 257.054 364.829 256.802C364.217 256.538 363.695 256.178 363.263 255.722C362.831 255.254 362.495 254.726 362.255 254.138C362.027 253.55 361.913 252.932 361.913 252.284C361.913 251.396 362.111 250.586 362.507 249.854C362.915 249.11 363.491 248.516 364.235 248.072C364.979 247.628 365.861 247.406 366.881 247.406C367.901 247.406 368.777 247.628 369.509 248.072C370.241 248.516 370.787 249.098 371.147 249.818L368.789 250.538C368.585 250.19 368.315 249.926 367.979 249.746C367.643 249.554 367.271 249.458 366.863 249.458C366.407 249.458 365.987 249.578 365.603 249.818C365.231 250.046 364.937 250.376 364.721 250.808C364.505 251.228 364.397 251.72 364.397 252.284C364.397 252.836 364.505 253.328 364.721 253.76C364.949 254.18 365.249 254.516 365.621 254.768C365.993 255.008 366.407 255.128 366.863 255.128C367.151 255.128 367.421 255.08 367.673 254.984C367.937 254.888 368.171 254.756 368.375 254.588C368.579 254.42 368.729 254.228 368.825 254.012L371.183 254.732C370.967 255.2 370.649 255.62 370.229 255.992C369.821 256.364 369.335 256.658 368.771 256.874C368.219 257.078 367.595 257.18 366.899 257.18Z" fill="#FEF8C4"/>
</svg>
