<svg width="132" height="132" viewBox="0 0 132 132" fill="none" xmlns="http://www.w3.org/2000/svg">
<path d="M117 9V132H32.8701V19.8981H24.1071C23.6077 19.8989 23.1092 19.8575 22.6169 19.7743C20.4889 19.4237 18.5552 18.3334 17.1602 16.6977C15.7653 15.062 14.9998 12.9871 15 10.8426V9H117Z" fill="#92B4F6"/>
<path d="M34 18.1932V132H24.6829C24.1526 132.001 23.623 131.964 23.0985 131.891C18.6843 131.28 15.2711 128.157 15.0173 124.326C15.0047 124.176 15 124.026 15 123.862V9C14.9998 11.1771 15.8137 13.2835 17.2968 14.9441C18.7799 16.6047 20.8359 17.7116 23.0985 18.0675C23.6219 18.1519 24.1519 18.194 24.6829 18.1932H34Z" fill="#92B4F6"/>
<path d="M117 4.99358e-06V18.3592H24.1071C23.6077 18.36 23.1092 18.318 22.6169 18.2337C20.4889 17.8783 18.5552 16.7731 17.1602 15.115C15.7653 13.4568 14.9998 11.3535 15 9.17961C14.9999 8.55216 15.063 7.92632 15.1883 7.31171C15.563 5.49846 16.4729 3.84174 17.7986 2.55901C19.1243 1.27628 20.8039 0.427483 22.6169 0.124036C23.1093 0.0409656 23.6078 -0.000523927 24.1071 4.99358e-06H117Z" fill="#DCE6FF"/>
<circle cx="68" cy="73.9988" r="33" fill="white"/>
<path d="M60.6667 61.9988C60.6667 60.3507 62.5482 59.4099 63.8667 60.3988L79.8667 72.3988C80.9333 73.1988 80.9333 74.7988 79.8667 75.5988L63.8667 87.5988C62.5482 88.5876 60.6667 87.6469 60.6667 85.9988V61.9988Z" fill="#FF7448"/>
</svg>
